<svg xmlns="http://www.w3.org/2000/svg" xmlns:xlink="http://www.w3.org/1999/xlink" width="1006.562" height="768" viewBox="0 0 1006.562 768"><defs><linearGradient id="b" x1="454.308" x2="600.712" y1="434.414" y2="41.115" gradientUnits="userSpaceOnUse"><stop offset="0" stop-color="#7e0901"/><stop offset=".02" stop-color="#890901"/><stop offset=".068" stop-color="#9f0901"/><stop offset=".124" stop-color="#b00901"/><stop offset=".193" stop-color="#bc0901"/><stop offset=".29" stop-color="#c30901"/><stop offset=".56" stop-color="#c50901"/><stop offset=".751" stop-color="#c20901"/><stop offset=".868" stop-color="#b90901"/><stop offset=".934" stop-color="#b10901"/></linearGradient><linearGradient id="c" x1="452.658" x2="579.261" y1="535.196" y2="535.196" gradientUnits="userSpaceOnUse"><stop offset="0" stop-color="#64591e"/><stop offset=".558" stop-color="#bbb50b"/><stop offset=".673" stop-color="#b8b20a"/><stop offset=".758" stop-color="#b0a809"/><stop offset=".833" stop-color="#a29807"/><stop offset=".903" stop-color="#8e8205"/><stop offset=".968" stop-color="#756501"/><stop offset="1" stop-color="#665400"/></linearGradient><linearGradient id="f" x1="498.171" x2="592.489" y1="338.448" y2="216.248" gradientUnits="userSpaceOnUse"><stop offset="0" stop-color="#b90901" stop-opacity="0"/><stop offset=".069" stop-color="#b60901" stop-opacity=".13"/><stop offset=".408" stop-color="#a90901" stop-opacity=".752"/><stop offset=".56" stop-color="#a50901"/><stop offset=".655" stop-color="#a50901" stop-opacity=".984"/><stop offset=".714" stop-color="#a50901" stop-opacity=".933"/><stop offset=".763" stop-color="#a50901" stop-opacity=".846"/><stop offset=".806" stop-color="#a50901" stop-opacity=".721"/><stop offset=".846" stop-color="#a50901" stop-opacity=".561"/><stop offset=".883" stop-color="#a50901" stop-opacity=".363"/><stop offset=".917" stop-color="#a50901" stop-opacity=".133"/><stop offset=".934" stop-color="#a60901" stop-opacity="0"/></linearGradient><linearGradient id="a" x1="541.242" x2="621.094" y1="340.977" y2="237.521" gradientUnits="userSpaceOnUse"><stop offset="0" stop-color="#fff" stop-opacity="0"/><stop offset=".082" stop-color="#fff" stop-opacity=".098"/><stop offset=".186" stop-color="#fff" stop-opacity=".195"/><stop offset=".296" stop-color="#fff" stop-opacity=".265"/><stop offset=".412" stop-color="#fff" stop-opacity=".307"/><stop offset=".547" stop-color="#fff" stop-opacity=".32"/><stop offset=".624" stop-color="#fff" stop-opacity=".3"/><stop offset=".717" stop-color="#fff" stop-opacity=".242"/><stop offset=".818" stop-color="#fff" stop-opacity=".146"/><stop offset=".925" stop-color="#fff" stop-opacity=".012"/><stop offset=".934" stop-color="#fff" stop-opacity="0"/></linearGradient><linearGradient xlink:href="#a" id="g" x1="466.138" x2="543.673" y1="296.41" y2="195.956"/><linearGradient id="h" x1="471.865" x2="499.436" y1="424.711" y2="368.211" gradientUnits="userSpaceOnUse"><stop offset="0" stop-color="#883529" stop-opacity="0"/><stop offset=".126" stop-color="#993529" stop-opacity=".266"/><stop offset=".384" stop-color="#bb3529" stop-opacity=".791"/><stop offset=".5" stop-color="#c93529"/><stop offset=".549" stop-color="#c63529" stop-opacity=".959"/><stop offset=".625" stop-color="#bf3529" stop-opacity=".848"/><stop offset=".719" stop-color="#b33529" stop-opacity=".667"/><stop offset=".828" stop-color="#a23529" stop-opacity=".414"/><stop offset=".947" stop-color="#8e3529" stop-opacity=".096"/><stop offset=".98" stop-color="#883529" stop-opacity="0"/></linearGradient><linearGradient id="i" x1="530.784" x2="545.134" y1="429.087" y2="399.68" gradientUnits="userSpaceOnUse"><stop offset="0" stop-color="#883529" stop-opacity="0"/><stop offset=".117" stop-color="#9f3529" stop-opacity=".329"/><stop offset=".232" stop-color="#b33529" stop-opacity=".617"/><stop offset=".33" stop-color="#c13529" stop-opacity=".825"/><stop offset=".406" stop-color="#ca3529" stop-opacity=".953"/><stop offset=".45" stop-color="#ce3529"/><stop offset=".579" stop-color="#cd3529" stop-opacity=".988"/><stop offset=".657" stop-color="#ca3529" stop-opacity=".947"/><stop offset=".72" stop-color="#c53529" stop-opacity=".878"/><stop offset=".777" stop-color="#be3529" stop-opacity=".779"/><stop offset=".828" stop-color="#b53529" stop-opacity=".652"/><stop offset=".876" stop-color="#aa3529" stop-opacity=".495"/><stop offset=".921" stop-color="#9d3529" stop-opacity=".308"/><stop offset=".963" stop-color="#8e3529" stop-opacity=".098"/><stop offset=".98" stop-color="#883529" stop-opacity="0"/></linearGradient><linearGradient id="j" x1="425.412" x2="587.459" y1="269.934" y2="49.883" gradientUnits="userSpaceOnUse"><stop offset="0" stop-color="#fff" stop-opacity="0"/><stop offset=".082" stop-color="#fff" stop-opacity=".048"/><stop offset=".231" stop-color="#fff" stop-opacity=".175"/><stop offset=".43" stop-color="#fff" stop-opacity=".38"/><stop offset=".448" stop-color="#fff" stop-opacity=".4"/><stop offset=".494" stop-color="#fff" stop-opacity=".347"/><stop offset=".64" stop-color="#fff" stop-opacity=".197"/><stop offset=".775" stop-color="#fff" stop-opacity=".089"/><stop offset=".894" stop-color="#fff" stop-opacity=".023"/><stop offset=".983" stop-color="#fff" stop-opacity="0"/></linearGradient><linearGradient id="k" x1="349.444" x2="522.907" y1="289.669" y2="101.595" gradientUnits="userSpaceOnUse"><stop offset="0" stop-color="#500901" stop-opacity="0"/><stop offset=".097" stop-color="#660901" stop-opacity=".195"/><stop offset=".244" stop-color="#840901" stop-opacity=".455"/><stop offset=".375" stop-color="#990901" stop-opacity=".643"/><stop offset=".485" stop-color="#a70901" stop-opacity=".759"/><stop offset=".56" stop-color="#ac0901" stop-opacity=".8"/><stop offset=".617" stop-color="#a60901" stop-opacity=".749"/><stop offset=".709" stop-color="#960901" stop-opacity=".61"/><stop offset=".824" stop-color="#7c0901" stop-opacity=".383"/><stop offset=".958" stop-color="#580901" stop-opacity=".071"/><stop offset=".986" stop-color="#500901" stop-opacity="0"/></linearGradient><linearGradient id="l" x1="373.74" x2="501.624" y1="249.581" y2="102.345" gradientUnits="userSpaceOnUse"><stop offset="0" stop-color="#fff" stop-opacity="0"/><stop offset=".078" stop-color="#fff" stop-opacity=".063"/><stop offset=".205" stop-color="#fff" stop-opacity=".139"/><stop offset=".334" stop-color="#fff" stop-opacity=".185"/><stop offset=".467" stop-color="#fff" stop-opacity=".2"/><stop offset=".601" stop-color="#fff" stop-opacity=".166"/><stop offset=".816" stop-color="#fff" stop-opacity=".072"/><stop offset=".952" stop-color="#fff" stop-opacity="0"/></linearGradient><linearGradient id="m" x1="580.127" x2="661.718" y1="381.024" y2="257.452" gradientUnits="userSpaceOnUse"><stop offset="0" stop-color="#500901" stop-opacity="0"/><stop offset=".191" stop-color="#640901" stop-opacity=".184"/><stop offset=".41" stop-color="#750901" stop-opacity=".343"/><stop offset=".56" stop-color="#7c0901" stop-opacity=".4"/><stop offset=".68" stop-color="#740901" stop-opacity=".329"/><stop offset=".873" stop-color="#5f0901" stop-opacity=".137"/><stop offset=".986" stop-color="#500901" stop-opacity="0"/></linearGradient><linearGradient id="n" x1="612.581" x2="688.684" y1="396.199" y2="262.563" gradientUnits="userSpaceOnUse"><stop offset=".108" stop-color="#ffc2a9" stop-opacity="0"/><stop offset=".188" stop-color="#ffc5b1" stop-opacity=".121"/><stop offset=".288" stop-color="#ffc9b9" stop-opacity=".242"/><stop offset=".385" stop-color="#ffccc0" stop-opacity=".33"/><stop offset=".477" stop-color="#ffcec3" stop-opacity=".382"/><stop offset=".56" stop-color="#ffcfc5" stop-opacity=".4"/><stop offset=".822" stop-color="#ffc5b1" stop-opacity=".119"/><stop offset=".951" stop-color="#ffc2a9" stop-opacity="0"/></linearGradient><radialGradient id="d" cx="514.131" cy="465.633" r="132.589" fx="514.131" fy="465.633" gradientUnits="userSpaceOnUse"><stop offset="0" stop-color="#bda900"/><stop offset=".379" stop-color="#b9a300"/><stop offset=".849" stop-color="#b09400"/><stop offset="1" stop-color="#ac8e00"/></radialGradient><radialGradient id="e" cx="515.954" cy="520.175" r="91.636" fx="515.954" fy="520.175" gradientUnits="userSpaceOnUse"><stop offset="0" stop-color="#9a900b"/><stop offset=".214" stop-color="#968606"/><stop offset=".619" stop-color="#917901"/><stop offset="1" stop-color="#907500"/></radialGradient></defs><path fill="url(#b)" d="M635.404 434.142s11.252-26.056 24.051-49.521 25.598-58.511 25.294-85.328c-.305-26.817 9.142-51.197-38.093-86.242s-82.585-50.892-64.606-97.823c17.98-46.93 51.502-73.138 20.418-105.746s-32.303 45.102-104.527 46.93-77.252 21.484-81.214 75.729-36.417 65.977-36.417 65.977-55.768 21.599-47.083 82.109c8.685 60.511 5.942 88.852 42.055 113.993s31.236 39.921 31.236 39.921h228.886Z"/><path fill="#fff" stroke="#000" stroke-miterlimit="10" d="M1006.562 507.132c0 10.581-1.169 21.02-3.436 31.27s-5.633 20.311-10.037 30.171h-67.57c4.405-9.837 7.817-19.91 10.156-30.171a149.2 149.2 0 0 0 3.838-33.631c0-1.027-.012-2.067-.035-3.094h-79.343v-30.16h75.635c-17.3-76.45-93.467-142.201-201.352-181.537v-19.65c142.757 39.323 245.528 113.53 267.67 201.186a143.7 143.7 0 0 1 4.357 30.16c.083 1.819.118 3.637.118 5.456ZM973.639 602.051c-5.94 8.231-12.624 16.261-20.016 24.078-58.548 61.925-161.367 110.152-286.588 133.156h-.012a844 844 0 0 1-34.246 5.586l-3.614-17.406h-.012l-33.726-162.442H430.551l-34.529 166.28-3.46 16.698h-.012a908 908 0 0 1-34.777-4.688C221.83 742.258 109.647 691.929 47.438 626.13c-9.211-9.73-17.323-19.803-24.255-30.171h84.764v-40.221h46.704v40.221h108.641v30.171H114.915c52.939 56.092 141.422 99.359 247.973 119.682l56.233-192.33h187.724l54.805 187.417c96.041-21.917 175.502-62.846 224.497-114.77H734.416v-52.266h54.32v28.188h184.902ZM78.78 434.142h184.512v30.171H154.651s-2.137 23.157 28.034 40.528 78.623 13.415 78.623 13.415v27.727H225.35c-59.127 0-94.057-34.127-94.057-34.127s-23.57 23.027-64.771 31.246c-8.939 1.795-18.729 2.881-29.274 2.881H1.291v-27.727s32.214 2.633 60.461-5.822c6.4-1.901 12.588-4.381 18.162-7.593 30.172-17.371 28.034-40.528 28.034-40.528H.984c3.129-10.262 7.38-20.335 12.671-30.171 38.249-71.148 131.019-130.204 252.992-163.812v19.65c-89.853 32.758-157.706 83.842-187.866 144.162Z"/><path fill="#fff" stroke="#000" stroke-miterlimit="10" d="M821.502 434.142v15.085c0 16.685 2.971 39.921 21.713 53.863s41.369 25.141 41.369 25.141l-28.341 19.199s-17.599-5.257-32.227-13.942-27.198-22.17-27.198-22.17-12.571 13.485-27.198 22.17-32.227 13.942-32.227 13.942l-28.341-19.199s22.627-11.199 41.369-25.141 21.713-37.179 21.713-53.863v-15.085z"/><path fill="url(#c)" d="M564.263 534.505c5.586 5.515 10.711 11.998 14.997 17.985v.992H452.658v-1.004c4.287-5.987 9.4-12.47 14.997-17.973 15.092-14.855 37.41-17.595 48.298-17.595s33.218 2.74 48.31 17.595"/><path fill="url(#d)" d="M650.657 434.531v25.483c0 12.352-4.216 21.232-9.305 27.455-39.276 8.703-90.314 11.549-125.398 11.549s-86.133-2.846-125.398-11.549c-5.078-6.223-9.294-15.103-9.294-27.455v-25.483z"/><path fill="url(#e)" d="M641.351 487.47c-7.711 9.459-17.43 12.777-17.43 12.777l-44.661 20.417v32.214c-4.287-5.987-9.412-12.47-14.997-17.985-15.092-14.855-37.41-17.595-48.31-17.595s-33.206 2.74-48.298 17.595c-5.597 5.503-10.711 11.986-14.997 17.973v-32.203l-44.661-20.417s-9.719-3.318-17.442-12.777c39.264 8.703 90.314 11.549 125.398 11.549s86.122-2.846 125.398-11.549Z"/><path fill="url(#f)" d="M491.756 359.994s18.742-60.796 50.74-99.194 53.025-60.339 53.025-60.339.914 24.684-36.112 77.709-67.653 81.824-67.653 81.824"/><path fill="url(#a)" d="M510.712 340.072s44.763 32.207 45.068 31.293 55.768-71.615 72.529-107.27 10.971-41.14-4.266-39.007-31.412-4.334-39.929 11.724-16.429 28.16-24.705 41.359-48.696 61.902-48.696 61.902Z"/><path fill="url(#g)" d="M455.67 230.761c33.522-28.951 91.083-54.203 91.083-54.203l39.774 33.586-44.03 50.656s-12.981 15.635-21.415 31.677c-2.637 5.016-8.201 15.409-12.925 25.518-4.089 8.752-7.582 17.71-7.582 17.71l-22.388-7.995-46.321-36.569-10.361-20.811 34.167-39.569Z"/><path fill="url(#h)" d="M472.833 434.531c-7.009-15.551-32.608-32.007-10.818-48.006s61.145-53.992 41.445 10.361c-4.571 14.932-4.571 37.644-4.571 37.644h-26.056Z"/><path fill="url(#i)" d="M521.745 434.531c-3.124-17.227-2.514-30.026 6.933-35.359 23.54-13.289 25.294-.609 22.551 13.409-2.375 12.139-3.428 21.95-3.428 21.95z"/><path fill="url(#j)" d="M563.39 37.862s-40.54 45.711-45.721 64.301-2.152 42.055-25.913 69.177-80.747 63.996-80.747 63.996l-5.485 38.702 15.98-3.707 34.131-39.528s23.917-19.199 44.353-30.341 32.308-19.675 41.451-34.303 14.932-49.368 14.932-49.368-16.456 38.702-39.312 48.454.914-12.799 10.971-28.341-3.352-39.312 13.104-57.292 22.256-41.75 22.256-41.75"/><path fill="url(#k)" d="M360.802 309.54c13.256-26.284 50.206-74.205 50.206-74.205s26.935-17.877 40.814-28.803 38.251-29.702 46.085-42.932 15.571-23.609 17.857-52.694-2.286-35.485-2.286-35.485-6.247 38.245-23.16 67.729-94.166 87.537-94.166 87.537-34.741 39.35-51.425 49.54c-16.685 10.19 16.075 29.312 16.075 29.312Z"/><path fill="url(#l)" d="M410.551 197.623c46.93-36.874 61.558-64.301 69.177-94.775s27.186 0 27.186 0-9.445 36.381-27.519 54.865c-7.13 7.292-19.733 20.541-34.63 33.485-22.864 19.866-48.613 39.49-48.613 39.49l-26.219 27.8-18.198-6.925 30.17-33.522z"/><path fill="url(#m)" d="m555.781 371.365-7.79 19.923s40.836 6.307 42.969 6.353 57.596-57.855 65.52-88.634 16.151-60.949 16.151-60.949l-24.075-21.027-23.378 43.299-24.409 39.21-30.532 42.435-14.456 19.389Z"/><path fill="url(#n)" d="M604.979 383.873s29.273-32.38 38.311-48.167 18.151-39.536 22.355-61.668 15.48-28.836 15.48-28.836 14.018 19.504 0 60.644-51.197 83.5-51.197 83.5-33.765 20.113-34.405 18.894 9.456-24.366 9.456-24.366Z"/></svg>