<?xml version="1.0" encoding="UTF-8"?>
<svg id="Layer_1" data-name="Layer 1" xmlns="http://www.w3.org/2000/svg" xmlns:xlink="http://www.w3.org/1999/xlink" viewBox="0 0 595.28 841.89">
  <defs>
    <clipPath id="clippath">
      <rect width="595.28" height="841.89" fill="none" stroke-width="0"/>
    </clipPath>
    <filter id="drop-shadow-1" filterUnits="userSpaceOnUse">
      <feOffset dx="0" dy="0"/>
      <feGaussianBlur result="blur" stdDeviation="10"/>
      <feFlood flood-color="#000" flood-opacity=".75"/>
      <feComposite in2="blur" operator="in"/>
      <feComposite in="SourceGraphic"/>
    </filter>
    <filter id="drop-shadow-2" filterUnits="userSpaceOnUse">
      <feOffset dx="0" dy="0"/>
      <feGaussianBlur result="blur-2" stdDeviation="10"/>
      <feFlood flood-color="#000" flood-opacity=".75"/>
      <feComposite in2="blur-2" operator="in"/>
      <feComposite in="SourceGraphic"/>
    </filter>
    <linearGradient id="linear-gradient" x1="155.24" y1="1622.16" x2="177.21" y2="1681.17" gradientTransform="translate(-.02 1683.77) scale(1 -1)" gradientUnits="userSpaceOnUse">
      <stop offset="0" stop-color="#7e0901"/>
      <stop offset=".02" stop-color="#890901"/>
      <stop offset=".07" stop-color="#9f0901"/>
      <stop offset=".12" stop-color="#b00901"/>
      <stop offset=".19" stop-color="#bc0901"/>
      <stop offset=".29" stop-color="#c30901"/>
      <stop offset=".56" stop-color="#c50901"/>
      <stop offset=".75" stop-color="#c20901"/>
      <stop offset=".87" stop-color="#b90901"/>
      <stop offset=".93" stop-color="#b10901"/>
    </linearGradient>
    <linearGradient id="linear-gradient-2" x1="155" y1="1607.04" x2="173.99" y2="1607.04" gradientTransform="translate(-.02 1683.77) scale(1 -1)" gradientUnits="userSpaceOnUse">
      <stop offset="0" stop-color="#64591e"/>
      <stop offset=".56" stop-color="#bbb50b"/>
      <stop offset=".67" stop-color="#b8b20a"/>
      <stop offset=".76" stop-color="#b0a809"/>
      <stop offset=".83" stop-color="#a29807"/>
      <stop offset=".9" stop-color="#8e8205"/>
      <stop offset=".97" stop-color="#756501"/>
      <stop offset="1" stop-color="#665400"/>
    </linearGradient>
    <radialGradient id="radial-gradient" cx="164.06" cy="1617.87" fx="164.06" fy="1617.87" r="19.91" gradientTransform="translate(.24 1683.1) scale(1 -1)" gradientUnits="userSpaceOnUse">
      <stop offset="0" stop-color="#bda900"/>
      <stop offset=".38" stop-color="#b9a300"/>
      <stop offset=".85" stop-color="#b09400"/>
      <stop offset="1" stop-color="#ac8e00"/>
    </radialGradient>
    <radialGradient id="radial-gradient-2" cx="164.34" cy="1609.68" fx="164.34" fy="1609.68" r="13.76" gradientTransform="translate(.24 1683.1) scale(1 -1)" gradientUnits="userSpaceOnUse">
      <stop offset="0" stop-color="#9a900b"/>
      <stop offset=".21" stop-color="#968606"/>
      <stop offset=".62" stop-color="#917901"/>
      <stop offset="1" stop-color="#907500"/>
    </radialGradient>
    <linearGradient id="linear-gradient-3" x1="161.83" y1="1636.56" x2="175.98" y2="1654.89" gradientTransform="translate(-.02 1683.77) scale(1 -1)" gradientUnits="userSpaceOnUse">
      <stop offset="0" stop-color="#b90901" stop-opacity="0"/>
      <stop offset=".07" stop-color="#b60901" stop-opacity=".13"/>
      <stop offset=".41" stop-color="#a90901" stop-opacity=".75"/>
      <stop offset=".56" stop-color="#a50901"/>
      <stop offset=".66" stop-color="#a50901" stop-opacity=".98"/>
      <stop offset=".71" stop-color="#a50901" stop-opacity=".93"/>
      <stop offset=".76" stop-color="#a50901" stop-opacity=".85"/>
      <stop offset=".81" stop-color="#a50901" stop-opacity=".72"/>
      <stop offset=".85" stop-color="#a50901" stop-opacity=".56"/>
      <stop offset=".88" stop-color="#a50901" stop-opacity=".36"/>
      <stop offset=".92" stop-color="#a50901" stop-opacity=".13"/>
      <stop offset=".93" stop-color="#a60901" stop-opacity="0"/>
    </linearGradient>
    <linearGradient id="linear-gradient-4" x1="168.29" y1="1636.18" x2="180.27" y2="1651.7" gradientTransform="translate(-.02 1683.77) scale(1 -1)" gradientUnits="userSpaceOnUse">
      <stop offset="0" stop-color="#fff" stop-opacity="0"/>
      <stop offset=".08" stop-color="#fff" stop-opacity=".1"/>
      <stop offset=".19" stop-color="#fff" stop-opacity=".19"/>
      <stop offset=".3" stop-color="#fff" stop-opacity=".26"/>
      <stop offset=".41" stop-color="#fff" stop-opacity=".31"/>
      <stop offset=".55" stop-color="#fff" stop-opacity=".32"/>
      <stop offset=".62" stop-color="#fff" stop-opacity=".3"/>
      <stop offset=".72" stop-color="#fff" stop-opacity=".24"/>
      <stop offset=".82" stop-color="#fff" stop-opacity=".15"/>
      <stop offset=".93" stop-color="#fff" stop-opacity=".01"/>
      <stop offset=".93" stop-color="#fff" stop-opacity="0"/>
    </linearGradient>
    <linearGradient id="linear-gradient-5" x1="157.02" y1="1642.86" x2="168.65" y2="1657.93" xlink:href="#linear-gradient-4"/>
    <linearGradient id="linear-gradient-6" x1="157.88" y1="1623.61" x2="162.02" y2="1632.09" gradientTransform="translate(-.02 1683.77) scale(1 -1)" gradientUnits="userSpaceOnUse">
      <stop offset="0" stop-color="#883529" stop-opacity="0"/>
      <stop offset=".13" stop-color="#993529" stop-opacity=".27"/>
      <stop offset=".38" stop-color="#bb3529" stop-opacity=".79"/>
      <stop offset=".5" stop-color="#c93529"/>
      <stop offset=".55" stop-color="#c63529" stop-opacity=".96"/>
      <stop offset=".62" stop-color="#bf3529" stop-opacity=".85"/>
      <stop offset=".72" stop-color="#b33529" stop-opacity=".67"/>
      <stop offset=".83" stop-color="#a23529" stop-opacity=".41"/>
      <stop offset=".95" stop-color="#8e3529" stop-opacity=".1"/>
      <stop offset=".98" stop-color="#883529" stop-opacity="0"/>
    </linearGradient>
    <linearGradient id="linear-gradient-7" x1="166.72" y1="1622.96" x2="168.87" y2="1627.37" gradientTransform="translate(-.02 1683.77) scale(1 -1)" gradientUnits="userSpaceOnUse">
      <stop offset="0" stop-color="#883529" stop-opacity="0"/>
      <stop offset=".12" stop-color="#9f3529" stop-opacity=".33"/>
      <stop offset=".23" stop-color="#b33529" stop-opacity=".62"/>
      <stop offset=".33" stop-color="#c13529" stop-opacity=".82"/>
      <stop offset=".41" stop-color="#ca3529" stop-opacity=".95"/>
      <stop offset=".45" stop-color="#ce3529"/>
      <stop offset=".58" stop-color="#cd3529" stop-opacity=".99"/>
      <stop offset=".66" stop-color="#ca3529" stop-opacity=".95"/>
      <stop offset=".72" stop-color="#c53529" stop-opacity=".88"/>
      <stop offset=".78" stop-color="#be3529" stop-opacity=".78"/>
      <stop offset=".83" stop-color="#b53529" stop-opacity=".65"/>
      <stop offset=".88" stop-color="#aa3529" stop-opacity=".5"/>
      <stop offset=".92" stop-color="#9d3529" stop-opacity=".31"/>
      <stop offset=".96" stop-color="#8e3529" stop-opacity=".1"/>
      <stop offset=".98" stop-color="#883529" stop-opacity="0"/>
    </linearGradient>
    <linearGradient id="linear-gradient-8" x1="150.91" y1="1646.83" x2="175.22" y2="1679.85" gradientTransform="translate(-.02 1683.77) scale(1 -1)" gradientUnits="userSpaceOnUse">
      <stop offset="0" stop-color="#fff" stop-opacity="0"/>
      <stop offset=".08" stop-color="#fff" stop-opacity=".05"/>
      <stop offset=".23" stop-color="#fff" stop-opacity=".17"/>
      <stop offset=".43" stop-color="#fff" stop-opacity=".38"/>
      <stop offset=".45" stop-color="#fff" stop-opacity=".4"/>
      <stop offset=".49" stop-color="#fff" stop-opacity=".35"/>
      <stop offset=".64" stop-color="#fff" stop-opacity=".2"/>
      <stop offset=".78" stop-color="#fff" stop-opacity=".09"/>
      <stop offset=".89" stop-color="#fff" stop-opacity=".02"/>
      <stop offset=".98" stop-color="#fff" stop-opacity="0"/>
    </linearGradient>
    <linearGradient id="linear-gradient-9" x1="139.51" y1="1643.87" x2="165.54" y2="1672.09" gradientTransform="translate(-.02 1683.77) scale(1 -1)" gradientUnits="userSpaceOnUse">
      <stop offset="0" stop-color="#500901" stop-opacity="0"/>
      <stop offset=".1" stop-color="#660901" stop-opacity=".19"/>
      <stop offset=".24" stop-color="#840901" stop-opacity=".46"/>
      <stop offset=".38" stop-color="#990901" stop-opacity=".64"/>
      <stop offset=".48" stop-color="#a70901" stop-opacity=".76"/>
      <stop offset=".56" stop-color="#ac0901" stop-opacity=".8"/>
      <stop offset=".62" stop-color="#a60901" stop-opacity=".75"/>
      <stop offset=".71" stop-color="#960901" stop-opacity=".61"/>
      <stop offset=".82" stop-color="#7c0901" stop-opacity=".38"/>
      <stop offset=".96" stop-color="#580901" stop-opacity=".07"/>
      <stop offset=".99" stop-color="#500901" stop-opacity="0"/>
    </linearGradient>
    <linearGradient id="linear-gradient-10" x1="143.16" y1="1649.89" x2="162.34" y2="1671.98" gradientTransform="translate(-.02 1683.77) scale(1 -1)" gradientUnits="userSpaceOnUse">
      <stop offset="0" stop-color="#fff" stop-opacity="0"/>
      <stop offset=".08" stop-color="#fff" stop-opacity=".06"/>
      <stop offset=".2" stop-color="#fff" stop-opacity=".14"/>
      <stop offset=".33" stop-color="#fff" stop-opacity=".19"/>
      <stop offset=".47" stop-color="#fff" stop-opacity=".2"/>
      <stop offset=".6" stop-color="#fff" stop-opacity=".17"/>
      <stop offset=".82" stop-color="#fff" stop-opacity=".07"/>
      <stop offset=".95" stop-color="#fff" stop-opacity="0"/>
    </linearGradient>
    <linearGradient id="linear-gradient-11" x1="174.12" y1="1630.17" x2="186.36" y2="1648.71" gradientTransform="translate(-.02 1683.77) scale(1 -1)" gradientUnits="userSpaceOnUse">
      <stop offset="0" stop-color="#500901" stop-opacity="0"/>
      <stop offset=".19" stop-color="#640901" stop-opacity=".18"/>
      <stop offset=".41" stop-color="#750901" stop-opacity=".34"/>
      <stop offset=".56" stop-color="#7c0901" stop-opacity=".4"/>
      <stop offset=".68" stop-color="#740901" stop-opacity=".33"/>
      <stop offset=".87" stop-color="#5f0901" stop-opacity=".14"/>
      <stop offset=".99" stop-color="#500901" stop-opacity="0"/>
    </linearGradient>
    <linearGradient id="linear-gradient-12" x1="178.99" y1="1627.89" x2="190.41" y2="1647.94" gradientTransform="translate(-.02 1683.77) scale(1 -1)" gradientUnits="userSpaceOnUse">
      <stop offset=".11" stop-color="#ffc2a9" stop-opacity="0"/>
      <stop offset=".19" stop-color="#ffc5b1" stop-opacity=".12"/>
      <stop offset=".29" stop-color="#ffc9b9" stop-opacity=".24"/>
      <stop offset=".39" stop-color="#ffccc0" stop-opacity=".33"/>
      <stop offset=".48" stop-color="#ffcec3" stop-opacity=".38"/>
      <stop offset=".56" stop-color="#ffcfc5" stop-opacity=".4"/>
      <stop offset=".82" stop-color="#ffc5b1" stop-opacity=".12"/>
      <stop offset=".95" stop-color="#ffc2a9" stop-opacity="0"/>
    </linearGradient>
  </defs>
  <g clip-path="url(#clippath)">
    <rect width="595.28" height="841.89" stroke-width="0"/>
    <g>
      <polygon points="-40.06 821.01 657.27 727.9 593.87 956.4 -81.13 969.31 -40.06 821.01" fill="red" stroke-width="0"/>
      <polygon points="-40.06 841.5 657.27 748.39 593.87 976.89 -81.13 989.8 -40.06 841.5" fill="#c00" filter="url(#drop-shadow-1)" stroke-width="0"/>
      <polygon points="-31.25 865.31 666.07 772.21 602.68 1000.71 -72.32 1013.62 -31.25 865.31" fill="#970000" filter="url(#drop-shadow-2)" stroke-width="0"/>
    </g>
    <g>
      <path d="m443.59,102.46l-36.44,21.55,1.37-17.3,22.09-13.27c2.72-15.05,4.73-31.51,6.01-49.28l-22.72,14.61,1.23-15.81,30.15-19.76c-.95,16.85-1.92,30.15-2.92,39.71-.94,8.93-2.21,17.51-3.82,25.73l6.09-3.78-1.04,17.61Z" fill="#fff" stroke-width="0"/>
      <path d="m462.02,89.37c-2.09,3.03-4.76,5.73-7.99,8.1-1.05.75-3.7,2.38-7.9,4.86l5.02-87.34,13.71-9.03-.77,15.59-6.69,4.33-2.9,54.45c2.16-1.24,4.44-3.69,6.84-7.35l.69,16.39Zm18.89-5.74l-7.77,4.57,1.57-37.16-3.13,1.93-1.57,35.56-7.15,4.22,4.3-89.48,6.72-4.44-1.57,35.6,3.31-2.09,1.53-36.3,7.25-4.79-3.5,92.36Z" fill="#fff" stroke-width="0"/>
      <path d="m525.16,20.09l-39.86,24.62.57-15.78,39.49-24.87-.2,16.03Zm-1.59-25.26c-4.05,3.68-8.38,7.11-12.97,10.29-2.74,1.88-10.21,6.69-22.24,14.34l1.04-29.94,7.83-5.16-.48,15.88c9.72-6.29,16.15-10.57,19.19-12.8,1.77-1.33,4.11-3.39,7.04-6.18l.58,13.57Zm-.14,61.46l-37.11,21.92,1.02-29.19,8.19-5.02-.44,13.32,28.56-17.22-.22,16.2Z" fill="#fff" stroke-width="0"/>
      <path d="m433.75,295.9l-59.1,25.8,2.88-32.84,22.13-10.26,2.31-30.13,12.13-5.93-2.13,30.35,23.77-11.03-1.98,34.04Zm5.11-118.35c-1.1,18.59-4.46,32.68-10.07,41.99-4.08,6.85-10.74,12.56-19.87,17.09s-15.03,5.1-18.18,2c-4.29-4.08-5.61-15.26-4.05-33.32,1.53-17.71,4.88-30.77,10.08-39.45,3.79-6.4,9.95-12.02,18.57-16.91s14.82-6.21,18.14-3.69c4.64,3.39,6.45,14.08,5.38,32.3Zm-11.96,6.36c.51-7.8-.49-11.95-2.99-12.51-1.29-.19-4.71,1.22-10.2,4.21-5.89,3.21-9.27,5.33-10.19,6.38-2.67,3.11-4.33,8.76-5,17.02-.66,8.22.21,12.58,2.64,13.03.92.21,4.3-1.21,10.19-4.26,5.99-3.11,9.52-5.23,10.52-6.33,2.79-3.2,4.47-9.06,5.02-17.53Z" fill="#fff" stroke-width="0"/>
      <path d="m546.79,149.13l-71.72,36.4.94-24.17,70.77-37.44v25.21Zm-3.98-37.01c-4.28,4.79-10.02,9.36-17.19,13.7-5.45,3.29-21.15,11.89-46.37,25.4l1.54-41.24,13.3-7.56-.53,17.65c18.83-10.44,30.8-17.37,35.51-20.58,4.59-3.02,8.86-7.03,12.8-12l.93,24.63Zm1.35,139.48l-69.23,30.02,2.15-57.94,50.95-24.41.07-7.66-51.14,24.99.9-24.13,65.2-32.83-.09,56.85-52.45,24.15-.24,8.19,53.9-24.48-.02,27.26Z" fill="#fff" stroke-width="0"/>
      <path d="m400.54,535.62l-67.97,17.39,3.9-40.62,15.53-4.12,4.06-44.84,12.72-4.28-3.93,45.51,15.9-4.45c1.69-11.59,3.36-22.99,5.01-34.22.9-6.66,1.88-14.36,2.93-23.08l-41.98,16.33,3-34.34,42.38-17.41,2.14-24.64-42.43,16,3.08-32.27,55.31-22.37c-3.17,44.09-5.81,75.91-7.82,94.22-1.56,14.47-4.38,33.86-8.5,58.34l9.45-2.65-2.78,41.5Z" fill="#fff" stroke-width="0"/>
      <path d="m482.5,521.15l-76.99,18.55,2.67-41.37,75.6-20.81-1.28,43.63Zm-.42-169.16l-48.8,18.31-2.58,45.97,49.6-16.77-1.28,39.7-65.67,20.15,7.65-120.76,62.33-25.28-1.24,38.67Z" fill="#fff" stroke-width="0"/>
      <path d="m572.61,394.67l-86.08,27.17.75-25.89,84.97-28.8.36,27.52Zm-4.31,110.43l-79.82,18.95,1.79-64.05,57.91-16.66v-6.93s-59.09,17.31-59.09,17.31l.55-26.72,75.87-23.81.59,61.63-59.89,16.04-.15,8.04,61.78-16.16.44,32.36Zm-2.28-141.41l-73.95,25.37,1.46-54.77,53.77-20.98v-4.68s-54.67,21.29-54.67,21.29l.56-23.68,71.11-29.01.62,53.86-56.1,20.86-.11,6.14,57.05-20.7.27,26.3Z" fill="#fff" stroke-width="0"/>
      <path d="m357.23,680.23l-13.07,38.64c-1.71-9.2-2.6-14.14-2.69-14.9-1.31-7.72-2.05-13.44-2.25-17.2-2.77,14.97-5.4,27.26-7.87,36.81l-11.03-12.2,5.55-27.15c-1.02-3.39-2.24-8.58-3.66-15.52-.87,5.78-2.47,14.08-4.8,24.93-2.46,11.5-4.73,20.89-6.78,28.11l-9.15-18.74c3.31-10.7,6.66-25.35,10.04-43.81,3.95-21.83,7.25-45.77,9.92-71.64l12.69-2.74c-.3,3.61-.8,8.38-1.52,14.33-.92,7.56-1.55,13.04-1.87,16.39.09,4.86.59,9.32,1.52,13.38.83,3.57,1.69,7.07,2.6,10.48,1.96-10.13,4.3-29.21,6.99-56.76l12.85-2.78c-.66,8.24-2.35,24.54-5.12,49.23.86,21.15,3.4,38.25,7.65,51.14Zm9.06,121.64l-12.35,45.05c-1.59-4.06-3.01-8.2-4.27-12.42-2.95-9.89-4.87-19.44-5.78-28.67-3.45,17.25-7.93,33.14-13.42,47.57-2.72-6.89-6.46-14.58-11.18-23.03l3.52-9.29c-.9-2.97-1.72-5.82-2.46-8.56-1.78-6.9-2.97-13.12-3.59-18.68-2.19,7.7-4.4,15.43-6.6,23.19-4.05,13.27-8.04,23.21-11.94,29.75l-5.74-34.56c10.6-22.05,17.68-46.36,21.19-72.57l15.03-1.17c-.16,1.79-.47,4.58-.93,8.38-.16,1.2-.44,2.72-.82,4.53,1.85,12.34,4.41,21.37,7.67,26.97,1.23-5.82,2.43-11.67,3.61-17.55,1.17-5.86,2.15-13.64,2.93-23.31l14.95-1.17-2.15,17.25c2.87,20.81,6.97,36.97,12.32,48.26Zm2.95-82.05l-15.35,1.4,5.68-69.61-7.18,1.09,3.92-46.25,7.05-1.36,2.68-32.87,14.52-3.21-11.32,150.8Z" fill="#fff" stroke-width="0"/>
      <path d="m455.32,728.29l-82.99,6.49,3.55-48.44,81.43-9.77-1.98,51.72Zm-.82-84.15c-8.66,4.71-17.8,8.13-27.37,10.28-5.68,1.2-20.96,3.55-45.1,6.95l6.3-88.26,15.4-3.32-3.02,46.76c19.6-3.46,32.78-6.18,39.09-8.07,3.68-1.24,8.62-3.76,14.83-7.61l-.14,43.26Zm-6.58,203.17l-79.06-1.46,6.68-93.6,16.67-1.05-2.84,42.58,60.73-1.61-2.18,55.14Z" fill="#fff" stroke-width="0"/>
      <path d="m515.75,550.04c-.37,51.92-2.39,96.26-6.13,131.8-7.07,67.08-20.21,119.01-39.15,153.35l-12.28-47.76c12-17.35,21.6-45.93,28.65-85,5.45-30.04,8.47-59.43,9.11-88.01.09-3.9.1-7.58.04-11.03l-28.22,4.91,1.69-48.4,46.31-9.84Zm44.14,171.14l-11.05.86.17,134.64-21.82-.53,2.4-319.45,19.01-4.19.15,118.65,10.71-1.4.43,71.43Z" fill="#fff" stroke-width="0"/>
      <path d="m606.96,614.63c.41,15-.69,27.5-3.32,37.37-1.35,5.07-3.96,11.24-7.81,18.5-2.92,5.27-4.37,10.15-4.36,14.65l1.02,51.97-17.56,1.12-.79-64.27c-.14-11.29.97-20.47,3.31-27.6.53-1.65,2.71-6.26,6.54-13.8,2.37-4.62,3.51-9.63,3.41-14.99-.09-4.89-.68-8.96-1.76-12.22-1.08-3.24-2.47-4.72-4.18-4.44-3.94.65-5.8,9.06-5.58,25.41.02,1.79.05,4.13.09,7.03.12,3.13.19,5.26.2,6.38l-18.87,2.58-.1-20.16c-.09-18.41,2.21-34.14,6.9-47.37,4.67-13.18,10.18-20.39,16.6-21.67,6.56-1.31,12.4,3.73,17.56,15.31,5.25,11.79,8.17,27.17,8.69,46.19Zm-12.36,190.52l-3.27,11.48-13.43.08-3.67-11.27-.46-39.28,3.32-11.01,13.08-.67,3.62,10.81.8,39.86Z" fill="#fff" stroke-width="0"/>
    </g>
    <g>
      <path d="m100.83,153.83c.31,1.59.46,3.11.46,4.55,0,4.47-1.57,8.23-4.71,11.26-1.34,1.29-3.93,3.01-7.79,5.17-5.45,2.47-9.16,3.7-11.11,3.7-3.14,0-4.89-2.24-5.25-6.71,2.26-1.54,3.39-5.04,3.39-10.49s-1.39-9.44-4.17-11.96c1.23-.26,2.42-.39,3.55-.39,2.98,0,5.27.98,6.87,2.93,1.29,1.65,2.01,3.73,2.16,6.25.15,2.42.15,4.29,0,5.63-.15,1.18-.64,3.06-1.47,5.63,11.31-2.67,17.33-7.87,18.05-15.58Zm27.23,10.18c2.37.72,3.55,2.19,3.55,4.4,0,2.62-1.7,4.06-5.09,4.32-1.8.15-3.63.05-5.48-.31-2.11-.36-3.45-.54-4.01-.54-1.03,0-2.08.18-3.16.54v18.28c0,3.03-.85,5.37-2.55,7.02-1.49,1.49-3.32,2.24-5.48,2.24-1.18,0-2.26-.26-3.24-.77,1.75-.62,2.52-2.24,2.31-4.86v-52c0-2.88-.64-4.94-1.93-6.17-.31-.31-1.96-1.31-4.94-3.01-2.52-1.39-4.66-3.29-6.4-5.71.87.05,2.21-.08,4.01-.39,1.8-.31,3.24-.46,4.32-.46,3.24,0,6.87,1.08,10.88,3.24,2.83,1.49,4.24,3.42,4.24,5.79,0,.77-.15,1.72-.46,2.85-.36,1.34-.57,2.13-.62,2.39v25.38c4.58-1.95,7.89-2.93,9.95-2.93,1.29,0,2.65.23,4.09.69Z" fill="#fff" stroke-width="0"/>
      <path d="m162.83,143.03c-1.9,5.25-3.06,9.52-3.47,12.81-1.08,3.6-3.24,6.43-6.48,8.49-2.78,1.85-5.81,2.78-9.1,2.78-3.55,0-6.71-1.11-9.49-3.32-2.98-2.37-4.53-5.3-4.63-8.79-.05-1.9.75-3.81,2.39-5.71.98-1.08,2.52-2.37,4.63-3.86,1.65-1.18,2.47-1.9,2.47-2.16s-.4-.69-1.2-1.31c-.8-.62-1.25-1.23-1.35-1.85,3.39-.77,5.81-1.16,7.25-1.16,3.39,0,5.25,1.23,5.55,3.7,1.95.31,3.77,1.16,5.44,2.55,1.67,1.39,2.76,2.96,3.28,4.71.62-1.18,2.19-3.47,4.71-6.87Zm-13.27,10.42c0-1.8-.85-3.29-2.55-4.47-1.44-1.03-2.85-1.49-4.24-1.39-2.06.15-4.14.85-6.25,2.08-2.47,1.44-3.68,3.11-3.63,5.01.05,1.44.77,2.78,2.16,4.01,1.7,1.54,3.93,2.31,6.71,2.31,1.95,0,3.74-.77,5.36-2.31,1.62-1.54,2.43-3.29,2.43-5.25Zm40.04-13.58c1.65.67,2.47,1.65,2.47,2.93,0,1.49-.94,3.15-2.82,4.98-1.88,1.83-4.05,3.41-6.52,4.74.93-1.13,2.03-2.85,3.32-5.17-.05-.36-.54-.54-1.47-.54-1.23,0-2.55.28-3.93.85-1.59.62-2.73,1.44-3.39,2.47v8.79c.57-.1,1.98-.68,4.24-1.74,2.26-1.05,4.19-1.66,5.79-1.81,1.8-.15,3.24.21,4.32,1.08,1.08.88,1.62,1.9,1.62,3.09,0,2.37-1.57,3.6-4.71,3.7-1.59.05-3.16-.1-4.71-.46-1.7-.36-2.78-.54-3.24-.54-1.13,0-2.44.44-3.93,1.31-.1,1.18-.73,2.04-1.89,2.58-1.16.54-2.25,1.07-3.28,1.58,3.6.21,5.4,1.54,5.4,4.01,0,.72-.13,1.57-.39,2.55l.08,20.06c0,3.55-2.93,5.32-8.79,5.32-1.03,0-1.98-.05-2.85-.15.36-.1.82-.54,1.39-1.31.77-1.03,1.08-2.16.93-3.39v-20.75c-2.01-.41-6.48,1.11-13.42,4.55-.46.21-1.05.31-1.77.31-1.54,0-2.96-.41-4.24-1.23-1.59-1.03-2.52-2.49-2.78-4.4.36.26.98.39,1.85.39,3.03,0,7.23-1.11,12.58-3.32,5.55-2.26,8.33-4.14,8.33-5.63v-25.23c0-2.21-1.16-3.93-3.47-5.17-4.06-2.21-7.05-4.24-8.95-6.09.98.05,2.47-.15,4.47-.62s3.65-.69,4.94-.69c2.78,0,5.76.93,8.95,2.78,2.67,1.59,4.01,3.37,4.01,5.32,0,.67-.36,2.29-1.08,4.86v3.86c.57,0,2.22-.69,4.98-2.08,2.75-1.39,4.85-2.08,6.29-2.08.62,0,1.18.1,1.7.31Z" fill="#fff" stroke-width="0"/>
      <path d="m232.55,155.14c-.67,2.52-1.42,6.17-2.24,10.96-.31,3.5-1.96,6.74-4.94,9.72-3.19,3.19-6.74,4.78-10.65,4.78-2.57,0-5.07-.77-7.48-2.31-3.34-2.11-5.01-4.37-5.01-6.79,0-2.16,1.39-4.5,4.17-7.02,1.8-1.59,4.68-3.65,8.64-6.17,3.96-2.52,6.38-4.17,7.25-4.94-.26-.1-.57-.15-.93-.15-1.34,0-3.91.86-7.71,2.58-3.81,1.72-6.12,2.61-6.94,2.66-2.47.1-4.57-.41-6.29-1.54-1.72-1.13-2.66-2.7-2.82-4.71.82.57,1.88.85,3.16.85,2.16,0,4.47-.68,6.94-2.04,2.47-1.36,4.11-2.82,4.94-4.36.1-.21.15-.41.15-.62,0-.41-.75-1.03-2.24-1.85-1.7-.98-2.88-2.13-3.55-3.47.36.1.72.15,1.08.15.57,0,1.8-.32,3.7-.96,1.9-.64,3.75-.96,5.55-.96,1.03,0,2.08.08,3.16.23,3.09.51,4.63,1.57,4.63,3.16s-1.23,3.27-3.7,5.01c2.11-.41,3.86-.62,5.25-.62,2.78,0,4.37.82,4.78,2.47.36,1.54-.8,3.21-3.47,5.01l-7.41,4.63c3.75,0,6.17,1.11,7.25,3.32.93-1.39,2.49-3.73,4.71-7.02Zm-12.42,13.42c-.05-1.29-.54-2.21-1.47-2.78-.62-.41-2.03-.85-4.24-1.31-5.5,2.11-8.25,4.17-8.25,6.17,0,1.8,1.72,2.93,5.17,3.39,2.11.26,4.11-.3,6.02-1.66,1.9-1.36,2.83-2.64,2.78-3.82Zm20.44,27.54c-5.66.57-10.11.85-13.35.85-4.73,0-7.84-.62-9.33-1.85-2.26-1.23-3.39-2.83-3.39-4.78,0-2.62,2.26-5.17,6.79-7.64-1.85,1.59-2.78,2.98-2.78,4.17,0,1.9,1.98,2.85,5.94,2.85,3.24,0,7.35-.72,12.34-2.16.98-.15,1.93-.23,2.85-.23,2.11,0,3.73.41,4.86,1.23,1.13.82,1.7,1.8,1.7,2.93s-.5,2.15-1.5,3.05c-1,.9-2.38,1.43-4.13,1.58Zm12.19-31.09c1.8.21,3.21.73,4.24,1.58,1.03.85,1.54,1.81,1.54,2.89,0,2.42-2.01,3.86-6.02,4.32-.88.1-1.96.08-3.24-.08-1.54-.15-2.5-.23-2.85-.23-1.08,0-2.01.21-2.78.62l-.08,3.55c-.05,1.75-.59,3.09-1.62,4.01-1.03.93-2.21,1.39-3.55,1.39-2.21,0-3.52-.9-3.93-2.7v-2.85c-2.47.82-6.28,2.11-11.42,3.86,3.09-2.42,6.89-4.99,11.42-7.71v-33.41c0-2.21-1.13-3.93-3.39-5.17-4.12-2.21-7.1-4.22-8.95-6.02.98.05,2.47-.17,4.47-.66,2.01-.49,3.65-.73,4.94-.73,2.78,0,5.73.93,8.87,2.78,2.73,1.59,4.09,3.39,4.09,5.4,0,.57-.36,2.16-1.08,4.78v28.31c1.23-.1,2.63-.72,4.2-1.85,1.57-1.13,3.28-1.83,5.13-2.08Z" fill="#fff" stroke-width="0"/>
      <path d="m113.87,291.71c0,3.09-.93,5.4-2.78,6.94-1.49,1.18-3.42,1.77-5.79,1.77-.98,0-1.93-.1-2.85-.31,1.7-1.03,2.52-2.65,2.47-4.86v-29.47c-1.29,5.09-6.17,9.54-14.66,13.35-6.33,2.83-12.68,4.71-19.06,5.63-.93.46-1.93.69-3.01.69-2.11,0-4.1-.8-5.98-2.39-1.88-1.59-3.02-3.57-3.43-5.94,1.75.82,3.5,1.23,5.25,1.23l5.79-.46c3.5-2.21,7.51-5.58,12.04-10.11-.98.15-1.96.23-2.93.23-3.45,0-6.24-.87-8.37-2.62-2.13-1.75-3.2-3.91-3.2-6.48,0-2.26.9-4.47,2.7-6.63.82-1.23,2.02-2.37,3.59-3.39,1.57-1.03,3.18-2.06,4.82-3.09-.1-.51-.58-1.04-1.43-1.58-.85-.54-1.25-.99-1.2-1.35,1.03.21,2.24-.13,3.63-1,1.03-.98,2.65-1.47,4.86-1.47,3.03,0,4.55.95,4.55,2.85,0,.41-.1.88-.31,1.39,3.29.1,5.81,1.03,7.56,2.78,1.59,1.54,2.39,3.52,2.39,5.94,0,2.62-.9,5.2-2.7,7.71-1.8,2.52-4.22,4.37-7.25,5.55-2.57,1.9-5.79,4.06-9.64,6.48-4.53,2.83-7.1,4.45-7.71,4.86,4.11,0,9.69-1.26,16.74-3.78,9.46-3.29,15.12-7.46,16.97-12.5v-18.59c0-2.83-.64-4.89-1.93-6.17-.31-.26-1.96-1.23-4.94-2.93-2.52-1.44-4.66-3.37-6.4-5.79.87.05,2.26-.05,4.17-.31,1.9-.26,3.42-.39,4.55-.39,3.45,0,6.94.98,10.49,2.93,2.93,1.65,4.4,3.75,4.4,6.33,0,1.13-.46,3.24-1.39,6.33v48.6Zm-32.56-41.97c-3.04.36-5.66,1.67-7.87,3.93-1.29,1.34-1.93,2.7-1.93,4.09s.57,2.46,1.7,3.36c1.13.9,2.47,1.32,4.01,1.27,2.98.15,5.68-.69,8.1-2.55,2.21-1.8,3.32-3.7,3.32-5.71,0-2.98-2.44-4.45-7.33-4.4Z" fill="#fff" stroke-width="0"/>
      <path d="m163.14,260.62c-.46,1.29-1.29,5.5-2.47,12.65.15.51.23,1.05.23,1.62,0,1.54-.5,2.87-1.5,3.97-1,1.11-2.22,1.66-3.66,1.66-1.34,0-2.53-.42-3.59-1.27-1.05-.85-1.61-1.92-1.66-3.2-.05-1.29-.13-2.57-.23-3.86-.1-1.29-.69-2.34-1.77-3.16-.15.26-2.11,3.24-5.86,8.95-1.8,2.78-3.37,4.94-4.71,6.48-1.49,2.52-4.17,3.78-8.02,3.78-3.39,0-6.53-1-9.41-3.01,3.09-.21,6.12-1.44,9.1-3.7,2.98-2.26,6.56-6.4,10.72-12.42.26-.36,3.19-4.89,8.79-13.58-2.42.26-3.83.39-4.24.39-4.78,0-7.17-2.57-7.17-7.71,0-.62.03-1.29.08-2.01.87.72,2.01,1.08,3.39,1.08,1.59,0,4.17-.63,7.71-1.89,3.55-1.26,5.97-1.89,7.25-1.89,4.73.05,7.1,1.47,7.1,4.24,0,2.37-1.49,4.6-4.47,6.71-1.44,1.96-4.35,5.97-8.72,12.04,1.95.15,3.52.62,4.71,1.39.98.67,1.95,1.36,2.93,2.08.87-1.75,2.7-4.86,5.48-9.33Zm15.51,32.4c0,2.62-.9,4.6-2.7,5.94-1.59,1.18-3.63,1.77-6.09,1.77-.93,0-1.88-.1-2.85-.31,1.7-.57,2.6-2.34,2.7-5.32v-52c0-2.83-.64-4.89-1.93-6.17-.31-.26-1.96-1.23-4.94-2.93-2.52-1.44-4.66-3.37-6.4-5.79.87.05,2.26-.05,4.17-.31,1.9-.26,3.42-.39,4.55-.39,3.45,0,6.94.98,10.49,2.93,2.93,1.65,4.4,3.75,4.4,6.33,0,1.13-.46,3.24-1.39,6.33v49.92Z" fill="#fff" stroke-width="0"/>
      <path d="m247.13,268.18c-2.26-.26-5.38.59-9.33,2.55,2.73.46,4.09,1.44,4.09,2.93,0,.93-1.08,2.78-3.24,5.55.82-.15,1.62,0,2.39.46s1.16,1.05,1.16,1.77c0,2.16-3.58,3.65-10.72,4.47-2.16.26-4.45,1.05-6.87,2.39-2.21,1.23-3.52,2.34-3.93,3.32,1.18.21,2.39.31,3.63.31,3.24,0,7.66-.87,13.27-2.62,4.53.26,6.79,1.26,6.79,3.01,0,1.03-.77,2.01-2.31,2.93s-3.32,1.44-5.32,1.54c-3.19.62-6.71.93-10.57.93-7.92,0-11.88-1.21-11.88-3.63,0-1.7,1.93-3.55,5.79-5.55-.51.05-1.03.08-1.54.08-3.39,0-4.99-1.44-4.78-4.32.21.21.8.31,1.77.31,3.29,0,6.87-.72,10.72-2.16,4.58-1.7,6.76-3.7,6.56-6.02-2.31.21-5.63,1.13-9.95,2.78-4.01,1.59-6.71,2.39-8.1,2.39-2.57,0-4.01-1.8-4.32-5.4.82.36,1.7.54,2.62.54.57,0,1.85-.23,3.86-.69,1.13-.26,2.78-.8,4.94-1.62,3.14-1.23,5.61-2.16,7.41-2.78,2.37-.82,4.32-1.29,5.86-1.39.77-.05,2.55-.85,5.32-2.39-6.58.1-19.54,2.75-38.88,7.95-.98.26-1.96.39-2.93.39-2.52,0-4.8-.82-6.83-2.47-2.03-1.65-3.38-3.78-4.05-6.4,3.5,1.44,6.66,2.16,9.49,2.16,3.24,0,6.79-.62,10.65-1.85s7.66-3.16,11.42-5.79c-.51.1-1,.15-1.47.15-2.06,0-3.6-.75-4.63-2.24-.88-1.23-1.21-2.34-1-3.32,0-.62,1.23-1.49,3.7-2.62,2.67-1.18,4.14-2.03,4.4-2.55-2.16-.31-3.32-.49-3.47-.54-1.18-.41-1.77-1.29-1.77-2.62,0-.62.1-1.31.31-2.08.26.36.85.54,1.77.54,2.26,0,5.25-.86,8.95-2.58,3.7-1.72,5.61-3.28,5.71-4.67.15-.36.05-.54-.31-.54-.21,0-1.81.53-4.82,1.58-3.01,1.05-5.49,1.58-7.44,1.58-4.32,0-6.71-2.55-7.17-7.64.87.67,1.85,1,2.93,1,.93,0,3.68-.8,8.25-2.39,4.83-1.65,9.64-2.62,14.43-2.93,3.09.21,4.63,1.39,4.63,3.55s-1.62,4.94-4.86,8.33c2.06-.26,3.09.28,3.09,1.62,0,1.13-.72,2.21-2.16,3.24-1.65,1.18-3.58,1.72-5.79,1.62-3.39.77-6.4,1.93-9.03,3.47-1.54,1.03-3.06,2.08-4.55,3.16-.15.31.21.46,1.08.46,1.39,0,3.39-.28,6.02-.85,2.62-.57,4.78-1.18,6.48-1.85,3.39-1.34,6.17-2.01,8.33-2.01,2.62,0,3.93.8,3.93,2.39,0,.93-.46,1.83-1.39,2.7-.93.88-2.13,1.47-3.63,1.77-6.17,1.29-11.39,2.7-15.66,4.24-2.98,1.03-7.17,2.78-12.58,5.25,18.36-3.39,29.5-5.55,33.41-6.48,2.26-.57,4.37-.85,6.33-.85,2.52,0,4.5.42,5.94,1.27,1.44.85,2.16,1.84,2.16,2.97s-.75,2.19-2.24,3.01c-1.65.88-3.91,1.31-6.79,1.31-1.03,0-2.11-.05-3.24-.15Z" fill="#fff" stroke-width="0"/>
      <path d="m97.17,354.14c-2.39,1.59-5.9,4.76-10.53,9.49,2.52.31,4.4,1.13,5.63,2.47.62.98,1.23,1.96,1.85,2.93.1.1.21.15.31.15.41,0,1.03-.67,1.85-2.01-.1,1.65-.64,3.39-1.62,5.25-1.29,2.37-2.83,3.55-4.63,3.55-1.13,0-2.31-.51-3.55-1.54-.67-.51-1-1.36-1-2.55,0-.26.03-.66.08-1.2.05-.54.08-.96.08-1.27,0-1.39-.41-2.47-1.23-3.24-2.26,2.11-4.99,4.89-8.18,8.33-2.73,2.98-4.66,4.94-5.79,5.86-1.85,1.44-3.6,2.16-5.25,2.16-2.26,0-5.01-1.29-8.25-3.86.15.15.39.23.69.23,2.16,0,6.8-3.01,13.93-9.03,7.12-6.02,12.46-11.44,16.01-16.28-.26.05-1.58.68-3.97,1.89-2.39,1.21-4.33,1.81-5.83,1.81-3.14,0-5.32-2.29-6.56-6.87.51.67,1.54,1,3.09,1,1.9,0,3.75-.44,5.55-1.31,2.06-.98,3.32-2.19,3.78-3.63-.05-.41-.82-1-2.31-1.77-1.7-.87-2.85-2.13-3.47-3.78.21.05.44.08.69.08.67,0,1.99-.41,3.97-1.23,1.98-.82,3.66-1.23,5.05-1.23.87,0,1.75.15,2.62.46,2.78.93,4.17,2.29,4.17,4.09,0,.57-.33,1.7-1,3.39,1.03-.15,1.95-.23,2.78-.23,3.09,0,4.63.85,4.63,2.55,0,1.96-1.2,3.73-3.59,5.32Zm16.7,13.19c0,4.42-2.08,6.63-6.25,6.63-1.85,0-2.7-.26-2.55-.77-.67.21-1.26.44-1.77.69-1.23.57-2.06,1.13-2.47,1.7,3.6-.05,6.43.82,8.49,2.62,1.8,1.65,2.7,3.73,2.7,6.25,0,3.04-1.23,5.79-3.7,8.25-2.73,2.67-6.3,4.19-10.72,4.55-2.78.26-5.61-.64-8.49-2.7-3.09-2.16-4.63-4.58-4.63-7.25,0-2.31,1.31-4.45,3.93-6.4,0-.15-.13-.46-.39-.93-.26-.46-.39-.8-.39-1,3.6-.77,7.07-2.16,10.42-4.17,2.93-1.75,5.22-3.6,6.87-5.55v-7.25c-.51.62-1.03,1.21-1.54,1.77-1.34,1.29-2.62,2.21-3.86,2.78-.41.21-.85.31-1.31.31-1.44,0-2.84-.75-4.21-2.24-1.36-1.49-2.04-3.01-2.04-4.55.26.21.72.31,1.39.31,1.85,0,3.83-.62,5.94-1.85,2.67-1.54,4.55-3.6,5.63-6.17v-12.11c0-2.21-1.13-3.93-3.39-5.17-4.12-2.21-7.1-4.22-8.95-6.02.98.05,2.47-.17,4.47-.66,2.01-.49,3.65-.73,4.94-.73,2.78,0,5.73.93,8.87,2.78,2.73,1.59,4.09,3.39,4.09,5.4,0,.57-.36,2.16-1.08,4.78v26.69Zm-11.57,20.21c.67-1.13,1-2.16,1-3.09,0-1.7-1.21-3.03-3.63-4.01-1.44-.57-2.91-1.13-4.4-1.7-5.09,2.62-7.64,5.12-7.64,7.48,0,.57.15,1.11.46,1.62,1.44,2.47,3.57,3.7,6.4,3.7,1.59,0,3.12-.39,4.59-1.16,1.47-.77,2.53-1.72,3.2-2.85Z" fill="#fff" stroke-width="0"/>
      <path d="m163.76,356.61c-.51,2.26-1.03,4.53-1.54,6.79-.41,2.06-.54,4.09-.39,6.09.31.72.46,1.44.46,2.16,0,1.44-.54,2.66-1.62,3.66s-2.29,1.5-3.63,1.5c-2.42,0-3.88-1.49-4.4-4.47-.1-.26-.26-1.59-.46-4.01-.15-1.54-.95-2.6-2.39-3.16-.62.77-2.03,2.93-4.24,6.48-2.37,3.91-4.09,6.58-5.17,8.02-1.8,3.24-4.83,4.86-9.1,4.86-2.83,0-5.3-.75-7.41-2.24,1.9-.15,3.45-.57,4.63-1.23,1.54-.98,3.29-2.78,5.25-5.4,2.88-3.91,5.43-7.77,7.64-11.57.15-.31,2.42-4.45,6.79-12.42.51-.98.77-1.8.77-2.47,0-.98-1.05-1.85-3.16-2.62-2.31-.82-3.7-1.9-4.17-3.24,1.44.15,3-.19,4.67-1.04,1.67-.85,3.51-1.27,5.52-1.27.87,0,1.83.05,2.85.15,4.27.46,6.4,1.98,6.4,4.55,0,1.54-1.11,3.24-3.32,5.09-2.16,4.63-4.29,8.46-6.4,11.5,2.73-.05,4.81,1,6.25,3.16,1.29-2.01,3.34-4.96,6.17-8.87Zm7.41,41.2c-.77,0-2.19.1-4.24.31-1.75.1-3.19.15-4.32.15-2.67,0-5.3-.33-7.87-1-1.59-.41-2.96-1.17-4.09-2.28-1.13-1.11-1.7-2.38-1.7-3.82,0-2.62,2.01-5.17,6.02-7.64-1.29,1.75-1.93,3.19-1.93,4.32,0,2.01,2.01,3.01,6.02,3.01,2.78,0,6.45-.49,11.03-1.47,1.39-.62,2.83-.93,4.32-.93,1.95,0,3.64.48,5.05,1.43,1.41.95,2.12,2.04,2.12,3.28,0,2.88-3.47,4.42-10.42,4.63Zm16.97-34.41c2.21,0,3.96.51,5.25,1.54,1.13.93,1.7,2.03,1.7,3.32,0,1.39-.59,2.6-1.77,3.63-1.34,1.08-3.11,1.65-5.32,1.7-1.08.15-2.13.08-3.16-.23-1.18-.31-2.06-.46-2.62-.46-1.08,0-2.42.28-4.01.85v4.4c-.98,3.34-2.52,5.01-4.63,5.01-1.23,0-2.3-.6-3.2-1.81-.9-1.21-1.27-2.56-1.12-4.05-1.59.41-3.16.85-4.71,1.31-2.47.72-4.91,1.65-7.33,2.78,1.54-1.54,4.11-3.6,7.71-6.17,2.73-1.9,4.22-3.37,4.47-4.4v-29.86c0-2.21-1.16-3.93-3.47-5.17-4.06-2.21-7.05-4.22-8.95-6.02.98.05,2.48-.17,4.51-.66,2.03-.49,3.66-.73,4.9-.73,2.83,0,5.81.93,8.95,2.78,2.67,1.59,4.01,3.37,4.01,5.32,0,.67-.36,2.29-1.08,4.86v26.46c1.7-.36,3.23-1.04,4.59-2.04,1.36-1,3.12-1.79,5.29-2.35Z" fill="#fff" stroke-width="0"/>
      <path d="m222.13,359.54c-.51,4.32-.69,8.15-.54,11.5.1,2.42-1.05,4.89-3.47,7.41-2.67,2.73-5.71,4.09-9.1,4.09-2.98,0-5.86-1.16-8.64-3.47-2.01-1.7-3.01-3.45-3.01-5.25s1.16-3.91,3.47-6.17c1.03-1.03,3.37-2.91,7.02-5.63,2.93-2.21,4.78-3.91,5.55-5.09-.15-.21-.41-.31-.77-.31-.82,0-2.74.85-5.75,2.55-3.01,1.7-5,2.6-5.98,2.7-5.61.51-8.44-1.26-8.49-5.32.51.46,1.31.69,2.39.69,1.54,0,3.55-.62,6.02-1.85,2.83-1.34,4.24-2.67,4.24-4.01,0-.36-.9-.93-2.7-1.7-2.01-.82-3.24-1.95-3.7-3.39.72.1,2.16-.31,4.32-1.23,2.37-1.08,4.47-1.62,6.33-1.62,1.29,0,2.57.21,3.86.62,2.06.62,3.09,1.57,3.09,2.85,0,1.39-1.03,2.96-3.09,4.71,3.7-.82,5.63-1.23,5.79-1.23,1.44,0,2.47.67,3.09,2.01.1.26.15.51.15.77,0,1.08-1.21,2.52-3.63,4.32-3.81,2.78-5.92,4.37-6.33,4.78,3.7.62,6.2,1.72,7.48,3.32,1.03-2.11,1.83-4.11,2.39-6.02Zm-9.49,11.8c0-1.75-.49-2.91-1.47-3.47-.15-.05-1.72-.49-4.71-1.31-3.86,2.57-5.79,4.91-5.79,7.02,0,1.03.44,1.85,1.31,2.47.87.62,1.95.93,3.24.93,2.01,0,3.74-.6,5.21-1.81,1.47-1.21,2.2-2.48,2.2-3.82Zm30.78,19.36c0,3.03-.82,5.37-2.47,7.02-1.39,1.49-3.11,2.24-5.17,2.24-1.18,0-2.26-.26-3.24-.77,1.75-.62,2.52-2.24,2.31-4.86v-28.08c-.67.98-2.31,2.26-4.94,3.86v12.58c-.1,1.13-.64,2.19-1.62,3.16s-1.93,1.47-2.85,1.47c-1.23,0-1.96-.87-2.16-2.62-.21-1.59-.75-2.62-1.62-3.09,1.08,0,1.62-.62,1.62-1.85v-35.1c.15-1.85-.08-3.19-.69-4.01-.31-.41-1.18-1.03-2.62-1.85-1.44-.82-2.6-1.8-3.47-2.93,4.27-.41,6.07-.62,5.4-.62,1.39,0,3.14.49,5.25,1.47,2.11.98,3.16,2.47,3.16,4.47,0-.05-.18,1.08-.54,3.39v16.43c1.7-.36,3.39-1.72,5.09-4.09v-17.05c0-2.37-.33-3.91-1-4.63-.1-.15-1.25-.86-3.43-2.12-2.19-1.26-4.39-3.1-6.6-5.52.77,0,2.03-.13,3.78-.39,1.75-.26,3.14-.39,4.17-.39,2.78,0,5.57.75,8.37,2.24,2.8,1.49,4.2,3.39,4.2,5.71,0,.67-.15,1.7-.46,3.09s-.46,2.44-.46,3.16v49.68Z" fill="#fff" stroke-width="0"/>
      <path d="m84.03,506.82l-12.19,1.08v19.36l-12.88,1.31v-19.44l-9.41.62v19.13l-12.88,1.23v-19.06l-14.43,1.39-.62-10.72,62.41-5.79v10.88Zm-5.71-32.17c0,6.33-2.34,10.75-7.02,13.27-2.67,1.39-8.51,2.8-17.51,4.24-3.19.46-6.15.69-8.87.69-12.6,0-18.9-5.17-18.9-15.51,0-7.35,3.78-12.63,11.34-15.82,5.35-2.26,12.32-3.39,20.91-3.39,6.43,0,11.21,1.05,14.35,3.16,3.8,2.62,5.71,7.07,5.71,13.35Zm-12.27-.54c0-3.96-2.98-5.94-8.95-5.94-1.49,0-3.19.1-5.09.31-4.78.51-8.19,1.47-10.22,2.85s-3.05,3.55-3.05,6.48c0,3.24,2.31,4.86,6.94,4.86,1.85,0,4.35-.23,7.48-.69,4.73-.72,7.95-1.54,9.64-2.47,2.16-1.13,3.24-2.93,3.24-5.4Z" fill="#fff" stroke-width="0"/>
      <path d="m155.9,498.72l-66.58,5.55v-10.03l28.54-2.62v-6.02l12.73-.85v5.48l25.3-1.77v10.26Zm-5.32-19.21l-5.71,9.33c-6.17-3.45-13.94-5.66-23.3-6.63-3.39,2.78-7.36,5.09-11.88,6.94-.31.1-3.58,1.18-9.8,3.24l-6.02-8.95c10.34-3.03,17.44-6.53,21.29-10.49l-19.52,1.85-1.39-10.11,56.16-4.32v10.03l-19.83,1.16-1.39,1.93c11.57,1.9,18.7,3.91,21.37,6.02Zm-11.34,46.83c-6.02.62-15.43,1.31-28.24,2.08-3.91.26-7.15-.82-9.72-3.24-2.31-2.21-3.47-4.89-3.47-8.02,0-2.88,1.05-5.35,3.16-7.41,2.37-2.37,5.71-3.78,10.03-4.24,8.18-.72,17.08-1.52,26.69-2.39,4.01-.36,7.28.69,9.8,3.16,2.31,2.21,3.47,4.99,3.47,8.33,0,2.88-.95,5.4-2.85,7.56-2.11,2.37-5.07,3.75-8.87,4.17Zm-2.78-9.64c2.42-.41,3.63-1.23,3.63-2.47s-1.36-1.85-4.09-1.7c-7.77.51-15.35,1.21-22.76,2.08-2.73.31-4.09,1.11-4.09,2.39s1.62,1.8,4.86,1.54c6.89-.51,14.38-1.13,22.45-1.85Z" fill="#fff" stroke-width="0"/>
      <path d="m221.53,528.81l-13.5,1.47v-15.51l-43.97,4.55v-11.03l43.9-4.71v-45.21l13.58-1.23v71.67Zm-19.13-47.75c0,4.47-1.52,8.49-4.55,12.04-3.45,4.01-8.02,6.4-13.73,7.17-.77.1-1.52.15-2.24.15-4.68,0-8.56-1.79-11.65-5.36-3.09-3.57-4.63-8.19-4.63-13.85s2.31-9.9,6.94-13.35c4.17-3.19,9.05-4.78,14.66-4.78,10.13,0,15.2,5.99,15.2,17.98Zm-11.65,0c0-4.94-1.77-7.41-5.32-7.41-.46,0-.95.03-1.47.08-2.11.41-3.74,1.34-4.9,2.78-1.16,1.44-1.74,3.06-1.74,4.86,0,5.61,2.24,8.1,6.71,7.48,4.47-.57,6.71-3.16,6.71-7.79Z" fill="#fff" stroke-width="0"/>
      <path d="m271.1,510.06l-.39,11.26-35.72,3.16v-58.86l28.85-3.01c2.78.41,4.63,1.17,5.55,2.28.93,1.11,1.39,2.79,1.39,5.05,0,.72-.05,1.88-.15,3.47l-2.39,36.88,2.85-.23Zm-13.89-34.87c-1.03.05-4.35.39-9.95,1v36.11l8.95-.93c1.29-13.68,1.93-23.71,1.93-30.09,0-4.06-.31-6.09-.93-6.09Zm35.26,53.85l-13.19,1.16v-71.9l13.19-1.16v71.9Z" fill="#fff" stroke-width="0"/>
      <path d="m88.82,579.65l-9.95,1v28.47l-13.42,1.23v-16.36l-46.83,4.55-.85-10.72,12.88-1.31v-18.36l11.34-1v18.36l10.65-1.08-6.79-3.86c3.34-7.61,5.02-13.42,5.02-17.44,0-5.3-2.91-7.95-8.72-7.95-3.6,0-8.54,1-14.81,3.01l-2.7-10.42c25.2-7.3,37.8-3.01,37.8,12.88,0,6.02-1.75,13.78-5.25,23.3l8.25-.85v-44.59l13.58-1.31v31.32l9.8-.93v12.04Z" fill="#fff" stroke-width="0"/>
      <path d="m150.43,575.63l-13.58,1.31v-14.43l-7.48,1c-.57,4.47-3.04,8.08-7.41,10.8-3.86,2.42-8.18,3.63-12.96,3.63-4.37,0-8-1.41-10.88-4.24-3.39-3.29-5.09-8.02-5.09-14.2,0-5.5,2.34-9.98,7.02-13.42,4.22-3.14,9.15-4.71,14.81-4.71,8.13,0,12.88,3.78,14.27,11.34l7.71-.93v-13.35l13.58-1.31v38.5Zm-.08,30.71l-40.5,4.01c-5.04,0-7.56-2.03-7.56-6.09v-21.37l13.19-1.31v4.63l21.37-2.62v-4.24l13.5-1.31v28.31Zm-32.17-46.98c0-4.42-1.7-6.63-5.09-6.63-.57,0-1.13.05-1.7.15-4.42.82-6.63,3.09-6.63,6.79,0,4.53,1.77,6.79,5.32,6.79.57,0,1.16-.05,1.77-.15,4.22-.62,6.33-2.93,6.33-6.94Zm18.67,38.5v-5.4l-21.22,2.55c-.05.46-.08.93-.08,1.39,0,2.78.9,4.04,2.7,3.78l18.59-2.31Z" fill="#fff" stroke-width="0"/>
      <path d="m230.86,577.56l-9.8,1.08v12.19l-13.5,1.47v-8.79l-43.97,4.63v-10.65l15.89-1.77v-5.09c-8.44-.57-12.65-5.68-12.65-15.35,0-5.35,2.39-9.28,7.17-11.8,3.7-1.95,8.46-2.93,14.27-2.93,4.37,0,7.64.98,9.8,2.93,2.62,2.31,3.93,6.2,3.93,11.65,0,6.74-3.32,11.16-9.95,13.27v5.94l15.43-1.54v-34.41l13.58-1.23v29.08l9.8-.93v12.27Zm-10.03,29.01l-41.27,3.93c-3.14-.36-5.14-1.17-6.02-2.43-.88-1.26-1.31-3.79-1.31-7.6,0-.72.03-2.19.08-4.4.05-2.21.08-4.06.08-5.55l11.8-1.39c0,4.83.05,7.51.15,8.02.21,1.18.95,1.77,2.24,1.77.41,0,1.13-.05,2.16-.15l32.09-2.62v10.42Zm-30.55-51.46c0-3.24-1.47-4.86-4.4-4.86-.46,0-.98.03-1.54.08-3.86.51-5.79,2.21-5.79,5.09,0,3.45,1.34,5.17,4.01,5.17,1.18,0,2.44-.18,3.78-.54,2.62-.77,3.93-2.42,3.93-4.94Z" fill="#fff" stroke-width="0"/>
      <path d="m298.64,591.14l-25.38,1.85v15.97l-12.73,1v-15.89l-29.62,2.24v-11.03l67.74-5.01v10.88Zm-2.62-21.22l-10.11,8.41c-1.08-2.73-4.35-5.63-9.8-8.72-1.96-1.08-5.92-2.98-11.88-5.71-2.21,2.47-5.53,5.27-9.95,8.41-4.68,3.34-8.98,5.84-12.88,7.48l-7.1-9.95c5.97-2.78,11.31-6.38,16.05-10.8,5.04-4.73,8.13-9.28,9.26-13.66l14.35-1.39c-.82,3.14-1.26,4.81-1.31,5.01-.62,1.9-1.34,3.42-2.16,4.55,15.28,6.79,23.79,12.24,25.54,16.36Z" fill="#fff" stroke-width="0"/>
      <path d="m89.12,640.59l-10.26.93v10.8l-13.58,1.31v-5.55c-13.22,5.25-23.81,7.87-31.79,7.87-6.12,0-9.18-2.01-9.18-6.02v-15.28l-3.16.39-.08-10.8,35.95-3.16v10.26l-20.83,1.93v10.57c0,1.13,1.05,1.7,3.16,1.7,3.19,0,8.28-1.21,15.28-3.63,6.28-2.16,9.82-3.63,10.65-4.4v-18.98l13.58-1.31v13.58l10.26-.93v10.72Zm-9.8,36.88l-.54,8.72-38.04,3.24c-.72.1-1.39.15-2.01.15-4.42,0-6.63-1.65-6.63-4.94v-13.35l32.48-3.24c.05-.62.15-1.85.31-3.7l-33.33,3.16-.54-8.1,38.11-3.63c1.44-.15,2.7-.23,3.78-.23,3.8,0,5.71,1.08,5.71,3.24,0,.41-.05.9-.15,1.47l-1.23,6.4,1.7-.31-.31,8.1-33.33,3.55c-.05,1.08.06,1.8.35,2.16.28.36.89.54,1.81.54.36,0,.9-.03,1.62-.08l30.24-3.16Z" fill="#fff" stroke-width="0"/>
      <path d="m133.92,651l-9.18,7.41c-2.21-5.71-5.76-9.82-10.65-12.34-1.8,3.39-4.27,6.84-7.41,10.34-2.88,3.19-5.43,5.48-7.64,6.87l-9.41-7.95c10.85-7.71,16.9-18.36,18.13-31.94l13.19-1.31c-.31,5.14-1.26,9.41-2.85,12.81,2.52.77,5.44,2.85,8.76,6.25,3.32,3.39,5.67,6.69,7.06,9.88Zm5.25,35.49c-9,.98-17.1,1.67-24.3,2.08-3.96.26-7.2-1.03-9.72-3.86-2.37-2.62-3.55-5.76-3.55-9.41,0-3.39,1.05-6.27,3.16-8.64,2.37-2.73,5.73-4.32,10.11-4.78,6.89-.57,14.48-1.21,22.76-1.93,4.06-.41,7.35.82,9.88,3.7,2.26,2.57,3.39,5.76,3.39,9.57,0,3.34-.95,6.22-2.85,8.64-2.11,2.67-5.07,4.22-8.87,4.63Zm-2.7-10.42c2.11-.41,3.16-1.44,3.16-3.09,0-1.9-1.23-2.83-3.7-2.78-3.96.1-10.26.64-18.9,1.62-2.73.31-4.09,1.44-4.09,3.39,0,2.06,1.62,2.96,4.86,2.7,9.77-.77,16-1.39,18.67-1.85Zm14.12-19.98l-13.19,1.23v-16.82l-10.57.85v-12.19l10.57-.93v-10.49l13.19-1.16v39.5Z" fill="#fff" stroke-width="0"/>
      <path d="m198.92,640.82l-37.73,3.24-.77-11.26,13.73-1.16v-6.71l12.27-1.16v6.71l12.5-1.08v11.42Zm-1.08,24.53c0,5.2-1.67,9.39-5.01,12.58-3.14,2.98-7.41,4.81-12.81,5.48-.82.1-1.67.15-2.55.15-4.47,0-8.1-1.44-10.88-4.32-2.98-3.14-4.47-7.61-4.47-13.42,0-4.78,1.93-8.95,5.79-12.5,3.45-3.19,7.38-5.09,11.8-5.71,1.23-.15,2.39-.23,3.47-.23,9.77,0,14.66,5.99,14.66,17.98Zm-9.88.23c0-2.93-.49-5.01-1.47-6.25-.82-1.08-2.19-1.62-4.09-1.62-.82,0-1.88.1-3.16.31-4.22.67-6.48,3.27-6.79,7.79-.15,3.09.62,5.22,2.31,6.4,1.34.93,3.19,1.26,5.55,1,5.09-.51,7.64-3.06,7.64-7.64Zm43.36-7.64l-10.11.93v29.93l-13.58,1.39v-71.83l13.58-1.23v28.85l10.11-1v12.96Z" fill="#fff" stroke-width="0"/>
      <path d="m274.5,675.23l-10.88,5.94c-3.29-8.23-6.56-13.71-9.8-16.43-2.21,5.86-6.02,12.11-11.42,18.75l-10.34-7.1c3.75-3.5,7.35-9.41,10.8-17.74,3.45-8.33,5.09-15.33,4.94-20.98l-13.66,1.31-.77-10.65,39.89-3.63v10.65l-12.58,1.23c-.21,5.55-1.08,10.9-2.62,16.05,2.93,1.59,6.22,5.22,9.88,10.88,2.62,4.01,4.81,7.92,6.56,11.73Zm27.77-18.44l-9.95.93v31.71l-13.58,1.23v-72.67l13.58-1.23v28.7l9.95-.85v12.19Z" fill="#fff" stroke-width="0"/>
    </g>
    <g>
      <path d="m182.39,61.57s1.69-3.91,3.61-7.43c1.92-3.52,3.84-8.78,3.79-12.8-.05-4.02,1.37-7.68-5.72-12.94-7.09-5.26-12.39-7.64-9.69-14.68,2.7-7.04,7.73-10.97,3.06-15.87-4.66-4.89-4.85,6.77-15.68,7.04-10.84.27-11.59,3.22-12.18,11.36-.59,8.14-5.46,9.9-5.46,9.9,0,0-8.37,3.24-7.06,12.32,1.3,9.08.89,13.33,6.31,17.1,5.42,3.77,4.69,5.99,4.69,5.99h34.34Z" fill="url(#linear-gradient)" stroke-width="0"/>
      <path d="m171.72,76.62c.84.83,1.61,1.8,2.25,2.7v.15h-18.99v-.15c.64-.9,1.41-1.87,2.25-2.7,2.26-2.23,5.61-2.64,7.25-2.64s4.98.41,7.25,2.64" fill="url(#linear-gradient-2)" stroke-width="0"/>
      <path d="m184.68,61.63v3.82c0,1.85-.63,3.19-1.4,4.12-5.89,1.31-13.55,1.73-18.81,1.73s-12.92-.43-18.81-1.73c-.76-.93-1.39-2.27-1.39-4.12v-3.82h40.42Z" fill="url(#radial-gradient)" stroke-width="0"/>
      <path d="m183.29,69.57c-1.16,1.42-2.62,1.92-2.62,1.92l-6.7,3.06v4.83c-.64-.9-1.41-1.87-2.25-2.7-2.26-2.23-5.61-2.64-7.25-2.64s-4.98.41-7.25,2.64c-.84.83-1.61,1.8-2.25,2.7v-4.83l-6.7-3.06s-1.46-.5-2.62-1.92c5.89,1.31,13.55,1.73,18.81,1.73s12.92-.43,18.81-1.73h0Z" fill="url(#radial-gradient-2)" stroke-width="0"/>
      <path d="m160.84,50.44s2.81-9.12,7.61-14.88c4.8-5.76,7.96-9.05,7.96-9.05,0,0,.14,3.7-5.42,11.66-5.56,7.96-10.15,12.28-10.15,12.28" fill="url(#linear-gradient-3)" stroke-width="0"/>
      <path d="m163.69,47.45s6.72,4.83,6.76,4.69,8.37-10.74,10.88-16.09c2.51-5.35,1.65-6.17-.64-5.85-2.29.32-4.71-.65-5.99,1.76-1.28,2.41-2.46,4.22-3.71,6.21-1.24,1.98-7.31,9.29-7.31,9.29h0Z" fill="url(#linear-gradient-4)" stroke-width="0"/>
      <path d="m155.43,31.05c5.03-4.34,13.67-8.13,13.67-8.13l5.97,5.04-6.61,7.6s-1.95,2.35-3.21,4.75c-.4.75-1.23,2.31-1.94,3.83-.61,1.31-1.14,2.66-1.14,2.66l-3.36-1.2-6.95-5.49-1.55-3.12,5.13-5.94h0Z" fill="url(#linear-gradient-5)" stroke-width="0"/>
      <path d="m158,61.63c-1.05-2.33-4.89-4.8-1.62-7.2,3.27-2.4,9.17-8.1,6.22,1.55-.69,2.24-.69,5.65-.69,5.65h-3.91Z" fill="url(#linear-gradient-6)" stroke-width="0"/>
      <path d="m165.34,61.63c-.47-2.58-.38-4.5,1.04-5.3,3.53-1.99,3.79-.09,3.38,2.01-.36,1.82-.51,3.29-.51,3.29h-3.91Z" fill="url(#linear-gradient-7)" stroke-width="0"/>
      <path d="m171.59,2.11s-6.08,6.86-6.86,9.65-.32,6.31-3.89,10.38c-3.56,4.07-12.11,9.6-12.11,9.6l-.82,5.81,2.4-.56,5.12-5.93s3.59-2.88,6.65-4.55c3.07-1.67,4.85-2.95,6.22-5.15,1.37-2.19,2.24-7.41,2.24-7.41,0,0-2.47,5.81-5.9,7.27-3.43,1.46.14-1.92,1.65-4.25,1.51-2.33-.5-5.9,1.97-8.6,2.47-2.7,3.34-6.26,3.34-6.26" fill="url(#linear-gradient-8)" stroke-width="0"/>
      <path d="m141.19,42.87c1.99-3.94,7.53-11.13,7.53-11.13,0,0,4.04-2.68,6.12-4.32,2.08-1.64,5.74-4.46,6.91-6.44,1.18-1.98,2.34-3.54,2.68-7.91.34-4.36-.34-5.32-.34-5.32,0,0-.94,5.74-3.47,10.16-2.54,4.42-14.13,13.13-14.13,13.13,0,0-5.21,5.9-7.72,7.43-2.5,1.53,2.41,4.4,2.41,4.4h0Z" fill="url(#linear-gradient-9)" stroke-width="0"/>
      <path d="m148.66,26.08c7.04-5.53,9.24-9.65,10.38-14.22,1.14-4.57,4.08,0,4.08,0,0,0-1.42,5.46-4.13,8.23-1.07,1.09-2.96,3.08-5.2,5.02-3.43,2.98-7.29,5.92-7.29,5.92l-3.93,4.17-2.73-1.04,4.53-5.03,4.3-3.06Z" fill="url(#linear-gradient-10)" stroke-width="0"/>
      <path d="m170.45,52.15l-1.17,2.99s6.13.95,6.45.95,8.64-8.68,9.83-13.3c1.19-4.62,2.42-9.14,2.42-9.14l-3.61-3.15-3.51,6.5-3.66,5.88-4.58,6.37-2.17,2.91h0Z" fill="url(#linear-gradient-11)" stroke-width="0"/>
      <path d="m177.83,54.02s4.39-4.86,5.75-7.23c1.36-2.37,2.72-5.93,3.35-9.25.63-3.32,2.32-4.33,2.32-4.33,0,0,2.1,2.93,0,9.1-2.1,6.17-7.68,12.53-7.68,12.53,0,0-5.07,3.02-5.16,2.83s1.42-3.66,1.42-3.66h0Z" fill="url(#linear-gradient-12)" stroke-width="0"/>
      <path d="m206.22,100.45s-.03.02-.05.03h0s.03-.02.05-.03Z" fill="#fff" stroke="#000" stroke-miterlimit="10"/>
      <path d="m107.15,93.09s-.09-.08-.13-.12c.08.08.12.12.12.12h.01Z" fill="#fff" stroke="#000" stroke-miterlimit="10"/>
      <g>
        <g>
          <polygon points="113.36 74.08 113.36 71.61 104.6 71.61 104.6 67.77 113.36 67.77 113.36 65.45 104.6 65.45 104.6 61.61 113.36 61.61 113.36 59.91 118.22 59.91 118.22 74.08 113.36 74.08" fill="#fff" stroke-width="0"/>
          <path d="m117.72,60.41v13.17h-3.86v-2.47h-8.76v-2.83h8.76v-3.32h-8.76v-2.83h8.76v-1.71h3.86m1-1h-5.86v1.71h-8.76v4.83h8.76v1.32h-8.76v4.83h8.76v2.47h5.86v-15.17h0Z" stroke-width="0"/>
        </g>
        <g>
          <path d="m86.71,73.68v-13.13h2.42c5.97-10.31,19.73-19.06,37.81-24.04l.63-.17v3.95l-.33.12c-11.88,4.33-21.18,10.87-26.18,18.42l-.15.23c-.27.45-.56.96-.85,1.49h4.01v13.13h-17.36Zm12.58-3.74v-5.43h-7.72v5.43h7.72Z" fill="#fff" stroke-width="0"/>
          <path d="m127.07,36.99v2.95c-11.95,4.36-21.3,10.88-26.42,18.61-.05.08-.1.16-.15.24-.4.68-.84,1.45-1.28,2.26h4.36v12.13h-16.36v-12.13h2.21c5.91-10.44,19.65-19.1,37.65-24.06m-36,33.45h8.72v-6.43h-8.72v6.43m37-34.76l-1.27.35c-18.06,4.98-31.85,13.71-37.96,24.02h-2.63v14.13h18.36v-14.13h-3.65c.16-.27.3-.52.44-.75l.06-.09.07-.11c4.94-7.46,14.15-13.93,25.93-18.22l.66-.24v-4.96h0Zm-36,29.33h6.72v4.43h-6.72v-4.43h0Z" stroke-width="0"/>
        </g>
        <g>
          <path d="m204.88,75.05v-3.9h10.11v-5.96h4.86v5.96h11.04c1.11-1.99,1.9-4.36,2.36-7.05h-26.75v-3.96h17.56c-4.79-8.13-14.33-15.12-26.97-19.73l-.33-.12v-3.95l.63.17c17.82,4.91,31.49,13.51,37.58,23.63h3.19v.5c0,1.96-.18,3.84-.55,5.6-.37,1.79-.93,3.44-1.67,4.91h5.02v3.9h-36.08Z" fill="#fff" stroke-width="0"/>
          <path d="m197.25,36.99c17.76,4.89,31.39,13.39,37.42,23.65h2.98c0,1.97-.19,3.8-.54,5.49-.42,2.03-1.08,3.87-2.01,5.52h5.35v2.9h-35.08v-2.9h10.11v-5.96h3.86v5.96h11.83c1.3-2.25,2.18-4.93,2.66-8.05h-26.84v-2.96h17.92c-4.74-8.64-14.65-15.95-27.66-20.7v-2.95m-1-1.31v4.96l.66.24c12.14,4.43,21.38,11.05,26.25,18.76h-17.17v4.96h26.65c-.44,2.28-1.13,4.31-2.06,6.05h-10.24v-5.96h-5.86v5.96h-10.11v4.9h37.08v-4.9h-4.73c.59-1.32,1.05-2.77,1.37-4.31.37-1.79.56-3.7.56-5.7v-1h-3.41c-6.22-10.12-19.93-18.71-37.72-23.61l-1.27-.35h0Z" stroke-width="0"/>
        </g>
        <g>
          <path d="m145.9,112.15c-1.73-.2-3.49-.44-5.24-.71-20.29-3.14-37.36-10.7-46.85-20.73-.49-.51-.97-1.06-1.49-1.67h-4.8v-9.38h25.83v-1.26h-26.47v-3.74h31.32v8.65h-25.83v1.83h26.43v3.9h-15.05c.34.34.67.67.98.98,1.29,1.29,2.29,2.27,2.62,2.6l.05.05.06.05c8.01,7.02,19.95,12.35,33.68,15.03l8.41-28.78h28.91l8.2,28.02c7.07-1.65,13.55-3.99,19.26-6.96l.04-.02c3.42-2.06,9.03-6.58,13.15-10.03.24-.2.48-.4.72-.6-8.46-.4-12.57-2.48-12.57-6.36,0-4.37,5.14-6.49,15.7-6.49,1.57,0,3.09.05,4.51.16,4.72.35,7.87,1.29,9.63,2.85,1.06.95,1.6,2.12,1.6,3.48,0,2.73-2.15,4.6-6.39,5.59-.65.8-1.23,1.47-1.83,2.1-8.85,9.37-24.63,16.7-43.27,20.13-1.71.31-3.44.6-5.16.84l-.46.07-5.62-27.04h-23.92l-5.71,27.5-.45-.05Zm77.07-31.62c-9.27,0-10.66,1.5-10.66,2.4s1.38,2.43,10.66,2.43,10.66-1.52,10.66-2.43c0-.3-.15-.56-.45-.82-.65-.55-2.32-1.25-6.64-1.49-1.09-.06-2.29-.09-3.56-.09Z" fill="#fff" stroke-width="0"/>
          <path d="m117.72,75.16v7.65h-25.83v2.83h26.43v2.9h-15.75c.64.65,1.26,1.27,1.82,1.83,1.29,1.29,2.29,2.27,2.63,2.6.08.08.12.12.12.12h.01c8.08,7.09,20.14,12.52,34.36,15.23l8.44-28.86h28.16l8.22,28.12c7.36-1.68,14.06-4.1,19.84-7.11h0s.03-.02.05-.03c3.33-1.99,8.83-6.4,13.23-10.08.6-.5,1.16-.97,1.71-1.44-8.92-.23-13.38-2.2-13.38-5.9,0-3.99,5.07-5.99,15.2-5.99,1.62,0,3.11.06,4.47.16,4.55.34,7.67,1.25,9.33,2.72.95.85,1.44,1.88,1.44,3.11,0,2.51-2.06,4.22-6.16,5.14-.6.75-1.23,1.48-1.91,2.2-8.78,9.29-24.21,16.53-43,19.98h0c-1.71.31-3.42.59-5.14.84l-.54-2.61h0l-5.06-24.37h-24.74l-5.18,24.95-.52,2.51h0c-1.74-.2-3.48-.44-5.22-.7-20.4-3.16-37.23-10.71-46.56-20.58-.57-.6-1.1-1.21-1.61-1.83h-4.53v-8.38h25.83v-2.26h-26.47v-2.74h30.32m105.26,10.71c7.44,0,11.16-.98,11.16-2.93,0-.45-.21-.85-.62-1.2-1.03-.87-3.34-1.41-6.94-1.61-1.08-.06-2.28-.09-3.59-.09-7.44,0-11.16.97-11.16,2.9s3.72,2.93,11.16,2.93m-104.26-11.71h-32.32v4.74h26.47v.26h-25.83v10.38h5.06c.46.55.91,1.05,1.35,1.52,9.56,10.11,26.74,17.72,47.13,20.88,1.74.27,3.51.51,5.26.71h.06s.06,0,.06,0h.81l.17-.8.52-2.51,5.01-24.15h23.11l4.89,23.57.17.8h0l.38,1.81.19.92.93-.13c1.69-.24,3.41-.52,5.09-.83l.09-.02c19.02-3.49,34.49-10.69,43.54-20.27.57-.6,1.13-1.24,1.74-1.99,4.38-1.05,6.6-3.08,6.6-6.03,0-1.51-.6-2.81-1.77-3.85-1.84-1.64-5.09-2.61-9.92-2.97-1.43-.11-2.96-.16-4.54-.16-10.9,0-16.2,2.29-16.2,6.99,0,3.99,3.86,6.22,11.79,6.78-5.8,4.84-10.23,8.22-12.84,9.77h-.01c-5.55,2.89-11.84,5.18-18.69,6.82l-7.96-27.21-.21-.72h-29.66l-.21.72-8.18,27.98c-13.45-2.69-25.14-7.94-32.99-14.83l-.08-.07h-.01c-.33-.34-1.33-1.32-2.62-2.61-.04-.04-.08-.08-.12-.12h14.35v-4.9h-26.43v-.83h25.83v-9.65h0Zm104.26,10.71c-10.04,0-10.16-1.85-10.16-1.93s.12-1.9,10.16-1.9c1.27,0,2.46.03,3.54.09,4.4.25,5.87.97,6.35,1.37.27.23.27.38.27.44,0,.08-.12,1.93-10.16,1.93h0Z" stroke-width="0"/>
        </g>
      </g>
    </g>
  </g>
</svg>