<?xml version="1.0" encoding="UTF-8"?>
<svg id="Layer_1" data-name="Layer 1" xmlns="http://www.w3.org/2000/svg" viewBox="0 0 841.89 158.58">
  <rect width="841.89" height="158.58" fill="#ed1c24" stroke-width="0"/>
  <g>
    <path d="m117.85,52.54c0,1.14-.42,2.05-1.27,2.73-.72.59-1.58.88-2.59.88-.72,0-1.32-.16-1.81-.49-.98.23-2.39.6-4.25,1.12.46-.03.9-.05,1.32-.05,2.44,0,4.35.63,5.71,1.9,1.24,1.11,1.86,2.52,1.86,4.25s-.59,3.21-1.76,4.54c-2.02,2.31-4.64,3.47-7.86,3.47-2.41,0-4.55-.63-6.42-1.88-1.87-1.25-2.81-2.74-2.81-4.47s.49-3.04,1.46-4.15c.75-.81,1.97-1.64,3.66-2.49-.46-.16-.68-.31-.68-.44,0-.29,1.06-.57,3.17-.83,4.39-1.53,6.59-2.9,6.59-4.1v-3.08c-1.24,1.37-2.63,2.43-4.17,3.17-1.55.75-2.97,1.12-4.27,1.12-1.89,0-2.83-.72-2.83-2.15,0-.88.41-1.94,1.22-3.17-.03.94.62,1.42,1.95,1.42,1.14,0,2.46-.36,3.96-1.07,1.63-.81,3.01-1.86,4.15-3.12v-2.83c-1.43.78-4.09,2.17-7.96,4.15,1.3-1.07,2.49-2.16,3.56-3.27-1.5.13-2.54-.24-3.12-1.12-5.31,7.16-8.82,11.75-10.55,13.77-2.08,2.47-4.39,3.71-6.93,3.71-1.89,0-3.74-.76-5.57-2.29,3.22-.1,6.41-1.63,9.57-4.59,2.57-2.44,5.4-6.2,8.5-11.28-1.37.59-2.69.88-3.96.88-3.55,0-5.18-2.07-4.88-6.2.46.49,1.09.73,1.9.73s2.33-.39,4.44-1.17c2.41-.88,4.22-1.4,5.42-1.56.55-.06,1.09-.1,1.61-.1,2.64,0,3.96.83,3.96,2.49,0,.91-.5,1.92-1.51,3.03.36.13.73.2,1.12.2,1.17,0,2.64-.67,4.39-2v-3.12c0-1.4-.72-2.49-2.15-3.27-2.6-1.4-4.49-2.67-5.66-3.81.62.03,1.56-.11,2.83-.42,1.27-.31,2.29-.46,3.08-.46,1.79,0,3.68.59,5.66,1.76,1.73,1.01,2.59,2.13,2.59,3.37,0,.39-.23,1.42-.68,3.08v17.24Zm-7.13,10.35c.03-1.17-.54-2.03-1.71-2.59-.07-.03-1.25-.41-3.56-1.12-3.09,1.46-4.64,2.98-4.64,4.54,0,1.17.76,2.12,2.29,2.83.78.36,1.59.54,2.44.54,1.37,0,2.56-.43,3.59-1.29,1.03-.86,1.55-1.83,1.59-2.91Z" fill="#fff" stroke-width="0"/>
    <path d="m153.06,46.29c-.62,1.3-1.07,3-1.34,5.08-.28,2.08-.51,3.37-.71,3.86-.46,1.07-1.33,1.63-2.64,1.66-1.14.03-1.92-.26-2.34-.88-.26-.42-.39-1.14-.39-2.15v-.98c0-1.4-.33-2.33-.98-2.78-2.25,2.54-5.08,5.7-8.5,9.47-1.3,1.89-3.17,2.83-5.62,2.83-1.86,0-3.21-.73-4.05-2.2.16.07.34.1.54.1,1.63,0,4.41-1.87,8.35-5.62,3.81-3.65,6.62-7,8.45-10.06-2.12-.1-3.48-.29-4.1-.59-1.56-.78-2.44-2.51-2.64-5.18.59.39,1.22.59,1.9.59s2.01-.42,3.98-1.27c1.97-.85,3.69-1.27,5.15-1.27.42,0,.83.03,1.22.1,2.9.36,4.35,1.2,4.35,2.54s-1.29,2.86-3.86,4.69c-.98.98-2.29,2.38-3.96,4.2.72.36,1.45.88,2.2,1.56.59.55,1.14.9,1.66,1.03.29-.68.85-1.49,1.66-2.42.81-.93,1.37-1.7,1.66-2.32Zm8.06,23.05c-1.53.94-4.18,1.42-7.96,1.42-2.6,0-4.83-.24-6.69-.73-2.08-.59-3.21-1.37-3.37-2.34-.1-.29-.15-.62-.15-.98,0-1.04.42-2.21,1.25-3.52.83-1.3,1.25-1.77,1.25-1.42,0,.07-.02.13-.05.2-.13.55-.2,1.06-.2,1.51,0,1.89,1.33,2.83,4,2.83,1.76,0,4.56-.44,8.4-1.32.68-.16,1.33-.24,1.95-.24,1.04,0,1.89.2,2.54.59.65.39.98.9.98,1.51,0,.85-.65,1.68-1.95,2.49Zm.73-13.72c.1.42.15.83.15,1.22,0,1.33-.47,2.44-1.42,3.32-.81.78-1.74,1.17-2.78,1.17-1.43,0-2.15-.73-2.15-2.2,0-.26.03-.55.1-.88-1.11-.13-2.61.05-4.52.54s-3.41,1.09-4.52,1.81c.88-.85,2.73-2.05,5.57-3.61,2.6-1.43,3.91-2.13,3.91-2.1v-19.87c0-1.4-.72-2.49-2.15-3.27-2.6-1.4-4.49-2.67-5.66-3.81.62.03,1.56-.11,2.83-.42,1.27-.31,2.29-.46,3.08-.46,1.79,0,3.68.59,5.66,1.76,1.73,1.01,2.59,2.13,2.59,3.37,0,.39-.23,1.42-.68,3.08v20.36Z" fill="#fff" stroke-width="0"/>
    <path d="m205.85,67.67c0,3.12-1.82,4.69-5.47,4.69-.65,0-1.6-.08-2.83-.24.36-.13.8-.44,1.32-.93.81-.75,1.22-1.6,1.22-2.54v-17.92c-.81,1.37-2.21,2-4.2,1.9v6.93c0,2.25-.28,4-.83,5.27-.49,1.14-1.09,1.71-1.81,1.71-1.01,0-1.66-.99-1.95-2.98-.36-.78-.67-1.25-.93-1.42.72-.42,1.07-.94,1.07-1.56-.07-5.53-.07-8.28,0-8.25-.23,1.11-1.22,2.44-2.98,4-1.89,1.69-3.87,2.93-5.96,3.71-1.56.78-2.88,1.17-3.96,1.17-1.99,0-3.09-1.43-3.32-4.3,1.63-1.3,2.44-3.19,2.44-5.66,0-.39-.03-.77-.1-1.15-.07-.37-.57-1.31-1.51-2.81.91-.16,1.74-.24,2.49-.24,2.96,0,4.44,1.16,4.44,3.47,0,.98-.26,2.15-.78,3.52,5.14-1.07,8.24-3.29,9.28-6.64v-9.57c0-1.27-.57-2.28-1.71-3.03-1.89-1.27-3.03-2.13-3.42-2.59.55,0,1.25-.07,2.08-.22s1.46-.22,1.88-.22c1.01,0,2.1.29,3.27.88,1.69.85,2.54,1.97,2.54,3.37,0,.2-.1.9-.29,2.1v8.45c.81-.23,1.51-.49,2.1-.78,1.43-.75,2.21-1.61,2.34-2.59v-8.06c0-1.59-.36-2.75-1.07-3.47-.29-.29-1.22-.87-2.78-1.73-1.56-.86-2.88-1.91-3.96-3.15.2.07.42.1.68.1.33,0,1.03-.12,2.12-.37,1.09-.24,2.04-.37,2.86-.37,1.73,0,3.5.47,5.32,1.42,2.05,1.07,3.08,2.44,3.08,4.1,0,.75-.23,1.87-.68,3.37v32.62Zm-16.89-28.91c.16.49.24.94.24,1.37,0,1.76-1.89,3.09-5.66,4-.94.13-2.2.52-3.76,1.17-1.04.42-2.07.85-3.08,1.27.2-.29.78-.78,1.76-1.46s1.53-1.22,1.66-1.61c-1.14-.06-1.95-.28-2.44-.63-.98-.65-1.46-1.84-1.46-3.56.42.39.98.59,1.66.59.78,0,2.2-.37,4.25-1.12,2.05-.75,3.52-1.12,4.39-1.12,1.07,0,1.89.37,2.44,1.12Z" fill="#fff" stroke-width="0"/>
    <path d="m249.85,68.21c0,1.59-.54,2.8-1.61,3.61-.91.68-2.05,1.03-3.42,1.03-.55,0-1.07-.07-1.56-.2.62-.39.93-1.09.93-2.1v-18.6c-.75,4.66-7.78,8.74-21.09,12.26-.85.23-1.69.34-2.54.34-1.63,0-2.99-.38-4.08-1.15-1.09-.76-1.64-1.67-1.64-2.71,0-.26.03-.5.1-.73.62.33,1.56.49,2.83.49,2.6,0,5.42-.47,8.45-1.42.85-.26,1.53-.78,2.05-1.56.46-.68.68-1.33.68-1.95s-.21-.93-.63-.93c-1.92-.03-3.38-.42-4.37-1.17-.99-.75-1.49-1.68-1.49-2.78,0-1.89,1.07-3.5,3.22-4.83,1.76-1.04,4.39-2.6,7.91-4.69-.1-.03-.2-.05-.29-.05-.36,0-1.63.43-3.81,1.29-2.18.86-3.86,1.29-5.03,1.29-2.05,0-3.27-1.14-3.66-3.42.59.29,1.25.44,2,.44,1.69,0,3.48-.65,5.37-1.95.33-.46.47-.81.44-1.07,0-.39-.6-.83-1.81-1.32-1.33-.52-2.15-1.27-2.44-2.25.78.07,1.9-.25,3.34-.95,1.45-.7,2.61-1.05,3.49-1.05.55,0,1.09.08,1.61.24,1.89.62,2.83,1.38,2.83,2.29,0,.46-.57,1.32-1.71,2.59.16.07.37.1.63.1.23,0,.68-.04,1.37-.12.68-.08,1.2-.12,1.56-.12,1.46,0,2.25.55,2.34,1.66.1.91-.77,1.86-2.59,2.83-2.41,1.24-3.68,1.92-3.81,2.05.55-.13,1.09-.2,1.61-.2,1.43,0,2.62.42,3.56,1.27.94.85,1.42,1.87,1.42,3.08,0,2.18-1.46,3.97-4.39,5.37.46.16.68.5.68,1.03,0,.81-.41,1.68-1.22,2.59,2.18-.72,4.15-1.84,5.91-3.37,2.12-1.86,3.17-3.81,3.17-5.86v-11.13c0-1.79-.41-3.09-1.22-3.91-.2-.16-1.24-.78-3.12-1.86-1.6-.91-2.95-2.13-4.05-3.66.55.03,1.43-.03,2.64-.2,1.2-.16,2.16-.24,2.88-.24,2.18,0,4.39.62,6.64,1.86,1.86,1.04,2.78,2.38,2.78,4,0,.72-.29,2.05-.88,4v31.84Zm-15.92-19.92c0-1.79-1.38-2.69-4.15-2.69-3.39,1.4-5.08,2.77-5.08,4.1,0,.68.41,1.25,1.22,1.71.65.33,1.37.49,2.15.49,1.37,0,2.69-.39,3.96-1.17s1.9-1.59,1.9-2.44Z" fill="#fff" stroke-width="0"/>
    <path d="m284.72,60.5c0,3.26-.72,4.88-2.15,4.88-.49,0-.94-.23-1.34-.68-.41-.46-.66-1.03-.76-1.71-.1-.26-.62-.93-1.56-2,1.04-.52,1.56-1.09,1.56-1.71l-.05-9.86c-.52.52-1.16.94-1.9,1.27-.75.33-1.3.46-1.66.39-.03,1.2-.85,2.59-2.44,4.15-1.69,1.63-3.39,2.56-5.08,2.78-.49.07-.98.1-1.46.1-2.7,0-4.91-.86-6.62-2.59-1.71-1.73-2.51-3.73-2.42-6.01.06-1.66.67-3.24,1.81-4.74,1.04-1.46,2.38-2.62,4-3.47.06-.42-.11-.76-.54-1.03-.59-.36-.96-.76-1.12-1.22.62-.1,1.32-.38,2.1-.85.78-.47,1.51-.74,2.2-.81,1.07-.1,2.04.09,2.91.56.86.47,1.29,1.15,1.29,2.03,0,.26-.05.54-.15.83,1.46.13,2.77.72,3.91,1.76.98.88,1.51,1.69,1.61,2.44.85-.16,1.43-.33,1.76-.49.72-.39,1.33-1.07,1.86-2.05v-3.91c0-1.24-.55-2.21-1.66-2.93-1.73-1.14-2.88-2.12-3.47-2.93.52,0,1.16-.05,1.93-.15.76-.1,1.33-.15,1.68-.15,1.11,0,2.33.34,3.66,1.03,1.63.81,2.44,1.87,2.44,3.17,0,.29-.06.7-.17,1.22-.11.52-.17.86-.17,1.03v21.63Zm-17.29-16.94c-2.67.81-4.48,1.87-5.42,3.17-.62.85-.91,1.92-.88,3.22.03,1.17.59,2.16,1.68,2.95,1.09.8,2.29,1.12,3.59.95,1.43-.2,2.62-.85,3.56-1.98.94-1.12,1.42-2.35,1.42-3.69,0-2.31-1.32-3.86-3.96-4.64Zm26.51,24.8c0,1.46-.55,2.6-1.66,3.42-.98.72-2.2,1.07-3.66,1.07-.65,0-1.29-.08-1.9-.24.78-.52,1.22-.99,1.32-1.42.1-.62.18-1.22.24-1.81v-34.03c0-1.59-.36-2.73-1.07-3.42-.26-.23-1.2-.76-2.83-1.61-1.5-.78-2.8-1.77-3.91-2.98.46.03,1.24-.06,2.34-.29,1.27-.26,2.31-.39,3.12-.39,1.76,0,3.55.47,5.37,1.42,2.18,1.14,3.27,2.57,3.27,4.3,0,.78-.21,1.86-.63,3.22v32.76Z" fill="#fff" stroke-width="0"/>
    <path d="m337.6,67.63c0,1.63-.59,2.85-1.76,3.66-.98.72-2.21,1.07-3.71,1.07-.72,0-1.4-.08-2.05-.24,1.11-.39,1.74-1.46,1.9-3.22v-19.97c-1.99,2.15-3.83,3.22-5.52,3.22-.94,0-1.81-.37-2.59-1.12-.39,1.04-.59,1.95-.59,2.73,0,.39.06.85.17,1.39.11.54.19.94.22,1.2.36,1.24.21,2.28-.44,3.12-.65.85-1.48,1.27-2.49,1.27s-1.86-.42-2.56-1.27c-.7-.85-1.05-1.77-1.05-2.78,0-.33.04-.8.12-1.42.08-.62.12-1.07.12-1.37,0-1.01-.42-1.71-1.27-2.1-2.12,3.52-3.87,6.07-5.27,7.67-.46.88-1.38,1.67-2.76,2.37-1.38.7-2.71,1.05-3.98,1.05-1.73,0-2.75-.68-3.08-2.05.23.07.47.1.73.1,1.01,0,2.28-.7,3.81-2.1,1.17-1.07,2.57-2.82,4.2-5.22,1.17-1.66,3.56-5.34,7.18-11.04.29-.46.44-.83.44-1.12,0-.39-.54-.9-1.61-1.51-1.17-.68-1.89-1.56-2.15-2.64.36.1,1.18-.09,2.47-.56,1.29-.47,2.38-.66,3.3-.56,1.17.1,2.31.46,3.42,1.07,1.3.75,1.95,1.58,1.95,2.49s-.7,1.89-2.1,2.83l-5.32,7.47c.98.29,2.29,1.46,3.96,3.52.36-.65.91-1.59,1.66-2.83-.49-.85-.77-1.33-.83-1.46-.26-.68-.34-1.55-.24-2.59.39.26.99.39,1.81.39,1.79,0,3.56-.54,5.32-1.61,1.99-1.24,2.98-2.75,2.98-4.54v-5.03c0-1.79-.46-3.11-1.37-3.96-.2-.16-1.3-.83-3.32-2-1.69-.94-3.11-2.18-4.25-3.71.59.03,1.54-.04,2.86-.22,1.32-.18,2.34-.27,3.05-.27,2.34,0,4.61.72,6.79,2.15,1.66,1.07,2.49,2.36,2.49,3.86,0,.72-.21,1.84-.63,3.37v32.52Z" fill="#fff" stroke-width="0"/>
    <path d="m403.63,51.95c-2.18-.52-3.43-.78-3.76-.78-.42,0-.83.07-1.22.2v16.99c0,1.4-.59,2.5-1.76,3.3-1.17.8-2.77,1.2-4.79,1.2.33-.33.52-.8.59-1.42l.1-19.09c-2.44.07-5.13.65-8.06,1.76.52.68,1.04,1.37,1.56,2.05.72,1.11,1.07,2.13,1.07,3.08,1.07-1.73,2.15-2.95,3.22-3.66-1.69,2.96-2.75,5.88-3.17,8.74.03,1.11-.27,1.99-.9,2.64s-1.38.98-2.22.98c-1.56,0-2.34-.91-2.34-2.73,0-.26.02-.54.05-.83.59-3.81.7-7.06.34-9.77-1.43.49-2.86.98-4.3,1.46-2.02.65-3.71.98-5.08.98-3.06,0-5.44-1.51-7.13-4.54.81.33,1.79.49,2.93.49,3.12,0,7-.99,11.62-2.98,4.2-1.79,6.54-3.16,7.03-4.1-4.88-1.95-7.19-4.26-6.93-6.93.13-1.37.91-2.7,2.34-4,1.27-.98,2.54-1.97,3.81-2.98.16-.13.24-.36.24-.68,0-1.04-.75-1.86-2.25-2.44,1.63-.78,3.34-1.17,5.13-1.17,2.64,0,3.89.93,3.76,2.78,5.53.33,8.11,2.88,7.71,7.67-.16,2.12-1.07,3.86-2.73,5.22-1.37,1.17-3.76,2.43-7.18,3.76-4,1.43-7.99,2.88-11.96,4.35,8.76-1.82,16.36-3.11,22.8-3.86,1.43-.33,2.73-.49,3.91-.49,1.53,0,2.73.26,3.61.78.78.46,1.17,1.04,1.17,1.76s-.41,1.29-1.22,1.83c-.81.54-1.92.81-3.32.81-.85,0-1.74-.11-2.69-.34Zm-9.13-14.21c-.33-1.53-1.01-2.56-2.05-3.08-.13-.06-1.11-.33-2.93-.78-2.05.42-3.6.91-4.64,1.46-1.43.81-2.31,1.94-2.64,3.37-.23,1.07.39,2.02,1.86,2.83,1.46.81,3.04,1.17,4.74,1.07,1.46-.06,2.83-.7,4.1-1.9,1.24-1.11,1.76-2.1,1.56-2.98Z" fill="#fff" stroke-width="0"/>
    <path d="m446.31,52.68c-.55-.1-1.86.21-3.91.93-1.79.65-3.25,1.27-4.39,1.86-.03.23-.13.52-.29.88,2.54.52,4.25,1.3,5.13,2.34.78.91,1.16,2.34,1.12,4.3-.03,1.73-.99,3.37-2.88,4.93-2.05,1.73-4.43,2.59-7.13,2.59-2.02,0-3.84-.52-5.47-1.56-1.92-1.24-3.01-2.98-3.27-5.22-.16-1.27.42-2.47,1.76-3.61,1.33-.94,2.67-1.87,4-2.78.16-.29.24-.55.24-.78,0-.2-.13-.4-.39-.61-.26-.21-.36-.42-.29-.61,1.5-.72,3.08-1.07,4.74-1.07.65,0,1.42.03,2.29.1.91-.23,1.61-.46,2.1-.68,1.17-.62,2.34-1.22,3.52-1.81-.49-.06-1.03-.1-1.61-.1-2.73,0-6.75.88-12.06,2.64-6.35,2.15-9.9,3.29-10.64,3.42-.46.1-.94.15-1.46.15-1.73,0-3.39-.42-4.98-1.25s-2.39-1.67-2.39-2.51c0-.13.02-.26.05-.39.62.39,1.5.59,2.64.59,1.2,0,3.58-.36,7.13-1.07,1.82-.36,4.04-1.09,6.64-2.2,2.93-1.27,4.46-2.28,4.59-3.03.07-.39-.36-.72-1.27-.98-1.01-.26-1.56-.7-1.66-1.32.23-.03.88-.41,1.95-1.12,1.07-.72,2.29-1.07,3.66-1.07,1.04,0,2.23.18,3.56.54.13,0,.81-.36,2.05-1.07-1.11-.39-2.06-1.07-2.86-2.03-.8-.96-1.44-1.51-1.93-1.64.42-.06,1.29-.33,2.59-.78,1.11-.39,2.07-.59,2.88-.59.75,0,1.51.16,2.29.49,2.54.75,3.81,1.89,3.81,3.42,0,.72-.34,1.33-1.03,1.83-.68.5-1.5.69-2.44.56-1.24.03-2.47.08-3.71.15-.39.03-.63.13-.73.29.33.29.49.6.49.93,0,.59-.47,1.29-1.42,2.1-1.27,1.14-1.92,1.73-1.95,1.76,3.78-.75,6.93-1.19,9.47-1.32,1.59-.49,3.06-.73,4.39-.73,1.53,0,2.78.31,3.76.93.85.52,1.27,1.16,1.27,1.9s-.41,1.32-1.22,1.81c-.91.55-2.17.83-3.76.83-.91,0-1.9-.1-2.98-.29Zm-6.2-18.51c-4.04,2.51-8.15,6.07-12.35,10.69-2.21,2.44-4.02,3.66-5.42,3.66-.91,0-1.37-.47-1.37-1.42s.5-1.99,1.51-3.12c.33-.26.54-.75.63-1.46.1.1.68,0,1.76-.29.98-.49,2.1-1.46,3.37-2.93.98-1.14,1.94-2.29,2.88-3.47-2.34-.2-3.94-.55-4.79-1.07-1.24-.78-1.77-2.23-1.61-4.35.42.39.96.59,1.61.59.55,0,1.99-.41,4.3-1.22,2.31-.81,4.39-1.24,6.25-1.27,4.04-.1,6.05.67,6.05,2.29,0,.59-.29,1.21-.88,1.88-.59.67-1.24,1.16-1.95,1.49Zm-5.57,32.67c2.28-.91,3.42-2.31,3.42-4.2,0-.94-.36-1.76-1.07-2.44s-1.69-1.06-2.93-1.12c-1.4.49-2.8.98-4.2,1.46-1.82.85-2.72,1.84-2.69,2.98.03,1.01.63,1.87,1.78,2.59,1.16.72,2.4,1.07,3.74,1.07.72,0,1.37-.11,1.95-.34Z" fill="#fff" stroke-width="0"/>
    <path d="m488.85,67.14c0,1.95-.59,3.42-1.76,4.39-.94.75-2.17,1.12-3.66,1.12-.62,0-1.22-.07-1.81-.2,1.07-.65,1.59-1.68,1.56-3.08v-18.65c-.81,3.22-3.91,6.04-9.28,8.45-4,1.79-8.02,2.98-12.06,3.56-.59.29-1.22.44-1.9.44-1.33,0-2.6-.5-3.78-1.51-1.19-1.01-1.91-2.26-2.17-3.76,1.11.52,2.21.78,3.32.78l3.66-.29c2.21-1.4,4.75-3.53,7.62-6.4-.62.1-1.24.15-1.86.15-2.18,0-3.95-.55-5.3-1.66-1.35-1.11-2.03-2.47-2.03-4.1,0-1.43.57-2.83,1.71-4.2.52-.78,1.28-1.5,2.27-2.15.99-.65,2.01-1.3,3.05-1.95-.07-.33-.37-.66-.9-1s-.79-.63-.76-.85c.65.13,1.42-.08,2.29-.63.65-.62,1.68-.93,3.08-.93,1.92,0,2.88.6,2.88,1.81,0,.26-.07.55-.2.88,2.08.07,3.68.65,4.79,1.76,1.01.98,1.51,2.23,1.51,3.76,0,1.66-.57,3.29-1.71,4.88-1.14,1.6-2.67,2.77-4.59,3.52-1.63,1.2-3.66,2.57-6.1,4.1-2.86,1.79-4.49,2.82-4.88,3.08,2.6,0,6.14-.8,10.6-2.39,5.99-2.08,9.57-4.72,10.74-7.91v-11.77c0-1.79-.41-3.09-1.22-3.91-.2-.16-1.24-.78-3.12-1.86-1.59-.91-2.95-2.13-4.05-3.66.55.03,1.43-.03,2.64-.2,1.2-.16,2.17-.24,2.88-.24,2.18,0,4.39.62,6.64,1.86,1.86,1.04,2.78,2.38,2.78,4,0,.72-.29,2.05-.88,4v30.76Zm-20.61-26.56c-1.92.23-3.58,1.06-4.98,2.49-.81.85-1.22,1.71-1.22,2.59s.36,1.55,1.07,2.12c.72.57,1.56.84,2.54.81,1.89.1,3.6-.44,5.13-1.61,1.4-1.14,2.1-2.34,2.1-3.61,0-1.89-1.55-2.82-4.64-2.78Z" fill="#fff" stroke-width="0"/>
    <path d="m543.84,47.41c-1.01,2.86-1.73,5.31-2.15,7.32.26,1.86-.83,2.9-3.27,3.12-4.59.42-7.78.33-9.57-.29-.1.62-.49,1.2-1.17,1.73s-1.38.81-2.1.81c-1.46,0-2.21-1.16-2.25-3.47l-.24-11.52c-.03-1.86-.6-3.55-1.71-5.08.91-.2,1.73-.29,2.44-.29,2.02,0,3.37.88,4.05,2.64.1-.16,1.25-.81,3.47-1.95,2.41-1.24,4.02-1.89,4.83-1.95,3.52.13,5.27,1.2,5.27,3.22,0,.39-.07.85-.2,1.37,0,.81-.18,2.18-.54,4.1-.49,2.47-1.07,4.38-1.76,5.71.78.16,1.53-.24,2.25-1.22.88-1.43,1.76-2.85,2.64-4.25Zm-8.01-4.25c-1.04-.03-2.29.21-3.74.73-1.45.52-2.58,1.12-3.39,1.81v8.4c2.64.1,4.49-.55,5.57-1.95,1.07-1.4,1.61-3.71,1.61-6.93,0-.62-.02-1.3-.05-2.05Zm16.02,24.07c0,1.95-.55,3.42-1.66,4.39-.94.81-2.13,1.22-3.56,1.22-.68,0-1.35-.1-2-.29,1.07-.39,1.56-1.42,1.46-3.08v-33.11c0-1.79-.42-3.09-1.27-3.91-.16-.16-1.2-.78-3.12-1.86-1.63-.91-3-2.13-4.1-3.66.59.03,1.51-.05,2.78-.24s2.28-.29,3.03-.29c2.21,0,4.39.65,6.54,1.95,1.76,1.07,2.64,2.46,2.64,4.15,0,.75-.24,2.03-.73,3.86v30.86Z" fill="#fff" stroke-width="0"/>
    <path d="m598.19,52.24c-1.43-.16-3.4.37-5.91,1.61,1.73.29,2.59.91,2.59,1.86,0,.59-.68,1.76-2.05,3.52.52-.1,1.03,0,1.51.29s.73.67.73,1.12c0,1.37-2.26,2.31-6.79,2.83-1.37.16-2.82.67-4.35,1.51-1.4.78-2.23,1.48-2.49,2.1.75.13,1.51.2,2.29.2,2.05,0,4.85-.55,8.4-1.66,2.86.16,4.3.8,4.3,1.9,0,.65-.49,1.27-1.46,1.86s-2.1.91-3.37.98c-2.02.39-4.25.59-6.69.59-5.01,0-7.52-.77-7.52-2.29,0-1.07,1.22-2.25,3.66-3.52-.33.03-.65.05-.98.05-2.15,0-3.16-.91-3.03-2.73.13.13.5.2,1.12.2,2.08,0,4.35-.46,6.79-1.37,2.9-1.07,4.28-2.34,4.15-3.81-1.46.13-3.56.72-6.3,1.76-2.54,1.01-4.25,1.51-5.13,1.51-1.63,0-2.54-1.14-2.73-3.42.52.23,1.07.34,1.66.34.36,0,1.17-.15,2.44-.44.72-.16,1.76-.5,3.12-1.03,1.99-.78,3.55-1.37,4.69-1.76,1.5-.52,2.73-.81,3.71-.88.49-.03,1.61-.54,3.37-1.51-4.17.07-12.37,1.74-24.61,5.03-.62.16-1.24.24-1.86.24-1.59,0-3.04-.52-4.32-1.56-1.29-1.04-2.14-2.39-2.56-4.05,2.21.91,4.22,1.37,6.01,1.37,2.05,0,4.3-.39,6.74-1.17s4.85-2,7.23-3.66c-.33.07-.63.1-.93.1-1.3,0-2.28-.47-2.93-1.42-.55-.78-.76-1.48-.63-2.1,0-.39.78-.94,2.34-1.66,1.69-.75,2.62-1.29,2.78-1.61-1.37-.2-2.1-.31-2.2-.34-.75-.26-1.12-.81-1.12-1.66,0-.39.07-.83.2-1.32.16.23.54.34,1.12.34,1.43,0,3.32-.54,5.66-1.64,2.34-1.09,3.55-2.08,3.61-2.95.1-.23.03-.34-.2-.34-.13,0-1.15.33-3.05,1-1.9.67-3.47,1-4.71,1-2.73,0-4.25-1.61-4.54-4.83.55.42,1.17.63,1.86.63.59,0,2.33-.5,5.22-1.51,3.06-1.04,6.1-1.66,9.13-1.86,1.95.13,2.93.88,2.93,2.25s-1.03,3.12-3.08,5.27c1.3-.16,1.95.18,1.95,1.03,0,.72-.46,1.4-1.37,2.05-1.04.75-2.26,1.09-3.66,1.03-2.15.49-4.05,1.22-5.71,2.2-.98.65-1.94,1.32-2.88,2-.1.2.13.29.68.29.88,0,2.15-.18,3.81-.54,1.66-.36,3.03-.75,4.1-1.17,2.15-.85,3.91-1.27,5.27-1.27,1.66,0,2.49.5,2.49,1.51,0,.59-.29,1.16-.88,1.71-.59.55-1.35.93-2.29,1.12-3.91.81-7.21,1.71-9.91,2.69-1.89.65-4.54,1.76-7.96,3.32,11.62-2.15,18.67-3.52,21.14-4.1,1.43-.36,2.77-.54,4-.54,1.59,0,2.85.27,3.76.81s1.37,1.16,1.37,1.88-.47,1.38-1.42,1.9c-1.04.55-2.47.83-4.3.83-.65,0-1.33-.03-2.05-.1Z" fill="#fff" stroke-width="0"/>
    <path d="m658.85,67.58c0,1.59-.57,2.8-1.71,3.61-.98.72-2.23,1.07-3.76,1.07-.65,0-1.29-.07-1.9-.2.75-.39,1.24-.86,1.46-1.42,0-.07.08-.67.24-1.81v-18.26c-1.21.81-2.39,1.63-3.56,2.44-1.76,1.01-3.26,1.51-4.49,1.51-1.73,0-3.04-.93-3.96-2.78l-6.79,9.57c-1.37,2.02-3.37,3.03-6.01,3.03-1.69,0-3.43-.55-5.22-1.66,2.51-.29,4.9-1.63,7.18-4,2.15-2.25,5.79-7.15,10.94-14.7-1.43.59-2.78.88-4.05.88-3.35,0-5.23-1.89-5.62-5.66.55.52,1.25.78,2.1.78.94,0,2.6-.46,4.96-1.39,2.36-.93,4.09-1.39,5.2-1.39.36,0,.7.03,1.03.1,2.86.62,4.3,1.61,4.3,2.98,0,1.01-.93,2.43-2.78,4.25-.91,1.37-2.07,2.98-3.47,4.83.81.36,1.61.54,2.39.54,2.38,0,5-1.61,7.86-4.83v-9.18c0-1.82-.41-3.12-1.22-3.91-.2-.2-1.24-.83-3.12-1.9-1.6-.88-2.95-2.08-4.05-3.61.59.03,1.48-.06,2.69-.29,1.2-.23,2.18-.34,2.93-.34,2.02,0,4.2.68,6.54,2.05,1.86,1.07,2.78,2.46,2.78,4.15,0,.75-.29,2.03-.88,3.86v31.69Z" fill="#fff" stroke-width="0"/>
    <path d="m703.19,52.39c-1.76-.26-3.52-.11-5.27.44v14.36c0,1.46-.63,2.6-1.9,3.42-1.04.72-2.29,1.07-3.76,1.07-.68,0-1.29-.08-1.81-.24.26-.1.52-.41.78-.93.33-.65.49-1.42.49-2.29v-14.31c-1.21-.03-3.5.55-6.88,1.76-4.1,1.46-6.41,2.26-6.93,2.39-.85.39-1.73.59-2.64.59-1.69,0-3.24-.62-4.64-1.86-1.3-1.14-1.95-2.31-1.95-3.52,0-.16.02-.33.05-.49.75.72,1.95,1.07,3.61,1.07,2.96,0,6.67-.98,11.13-2.93,4.2-1.79,6.41-3.19,6.64-4.2-2.28.75-3.86,1.12-4.74,1.12-1.5,0-2.46-1.07-2.88-3.22,1.2-1.27,1.81-2.39,1.81-3.37s-.65-1.9-1.95-2.69c.36-.29,1.14-.63,2.34-1.03,1.04-.33,2.03-.96,2.98-1.9-1.04-.23-1.99-.85-2.86-1.88-.86-1.03-1.29-2.01-1.29-2.95,0-.2.03-.39.1-.59.42.39,1.07.59,1.95.59,1.07,0,2.51-.31,4.3-.93,1.01-.36,2.02-.72,3.03-1.07,2.02-.59,3.84-.88,5.47-.88,1.53,0,2.72.25,3.56.76.85.5,1.27,1.13,1.27,1.88,0,.85-.5,1.66-1.51,2.44-1.11.85-2.64,1.5-4.59,1.95-.62.23-2.26.54-4.93.93-2.05.29-3.65.94-4.79,1.95,1.79.49,2.69,1.4,2.69,2.73,0,.49-.13,1.01-.39,1.56,2.38-.36,4.85-.99,7.42-1.9,1.59-.75,3.03-1.12,4.3-1.12,1.95,0,2.93.67,2.93,2,0,1.63-1.45,2.85-4.35,3.66-2.15.59-3.66,1.06-4.54,1.42-2.64,1.07-6.36,2.98-11.18,5.71.26-.03,2.98-.6,8.15-1.71,3.32-.72,6.71-1.27,10.16-1.66,2.08-.55,3.96-.83,5.62-.83s3.01.29,3.96.88c.85.49,1.27,1.12,1.27,1.9s-.46,1.46-1.37,2.05c-.91.59-2.13.88-3.66.88s-3.32-.34-5.18-1.03Z" fill="#fff" stroke-width="0"/>
    <path d="m738.25,47.85c-1.24,3.12-1.82,5.68-1.76,7.67.42.59.63,1.22.63,1.9,0,.85-.29,1.59-.85,2.22-.57.63-1.25.95-2.03.95-1.17,0-2.18-.72-3.03-2.15-.29-.62-.44-1.4-.44-2.34,0-.13.02-.34.05-.63v-.68c0-1.33-.47-2.29-1.42-2.88-.13.2-2.39,3.39-6.79,9.57-1.63,2.28-3.7,3.42-6.2,3.42-1.63,0-3.19-.52-4.69-1.56,1.92-.52,3.94-1.74,6.05-3.66.81-.52,2.44-2.36,4.88-5.52,2.38-3.03,4.33-5.75,5.86-8.15-.78.07-1.37.1-1.76.1-3.52,0-5.14-1.97-4.88-5.91.52.33,1.14.49,1.86.49,1.01,0,2.61-.41,4.81-1.22,2.2-.81,3.72-1.22,4.57-1.22,2.96,0,4.44.88,4.44,2.64,0,1.53-.96,2.96-2.88,4.3-.98,1.11-2.38,2.86-4.2,5.27,1.2.29,2.21.85,3.03,1.66.46.49.91.99,1.37,1.51.52-1.04,1.64-2.96,3.37-5.76Zm16.36.73c1.24.13,2.2.53,2.88,1.2.68.67,1.03,1.42,1.03,2.27,0,.91-.39,1.66-1.17,2.25s-1.87.81-3.27.68c-.88-.1-1.87-.29-2.98-.59-.94-.26-1.69-.39-2.25-.39-.59,0-1.25.1-2,.29v12.79c0,3.74-1.79,5.62-5.37,5.62-.68,0-1.45-.08-2.29-.24,1.11-.36,1.77-1.45,2-3.27v-32.96c0-1.79-.41-3.09-1.22-3.91-.2-.16-1.24-.78-3.12-1.86-1.6-.91-2.95-2.13-4.05-3.66.55.03,1.43-.03,2.64-.2,1.2-.16,2.16-.24,2.88-.24,2.18,0,4.39.62,6.64,1.86,1.86,1.04,2.78,2.38,2.78,4,0,.72-.29,2.05-.88,4v14.7c.88-.13,1.97-.59,3.27-1.37,1.14-.68,2.31-1.03,3.52-1.03.29,0,.62.02.98.05Z" fill="#fff" stroke-width="0"/>
    <path d="m55.7,103.11c-1.17,4.04-1.66,6.58-1.46,7.62.26,1.24.39,2.05.39,2.44,0,1.33-.81,2.13-2.44,2.39-1.6-.03-2.64-.49-3.12-1.37,0-.03-.21-.94-.63-2.73-.23-1.14-.85-1.89-1.86-2.25-1.5,1.66-3.74,4.25-6.74,7.76-1.69,1.53-3.58,2.29-5.66,2.29-1.69,0-3.12-.65-4.3-1.95,2.12.1,5.03-1.64,8.74-5.22,2.38-2.31,5.62-5.99,9.72-11.04-.91.46-1.81.9-2.69,1.32-1.43.62-2.65.93-3.66.93-2.18,0-3.53-1.37-4.05-4.1.13.26.54.39,1.22.39,1.01,0,2.08-.23,3.22-.68,1.27-.52,1.97-1.09,2.1-1.71.16-.33.24-.6.24-.83,0-.42-.58-.84-1.73-1.25-1.16-.41-1.75-1.08-1.78-2.03.29.16.57.24.83.24.16,0,.77-.25,1.83-.76,1.06-.5,2.3-.84,3.74-1,2.86,0,4.3.91,4.3,2.73,0,.72-.23,1.4-.68,2.05.88-.26,1.64-.39,2.29-.39,1.63,0,2.44.68,2.44,2.05s-.62,2.46-1.86,3.17c-.75.59-2.69,2.56-5.81,5.91,1.43.33,2.65,1.07,3.66,2.25.85-1.63,2.1-3.71,3.76-6.25Zm16.41,2.1c2.05.65,3.08,1.74,3.08,3.27,0,.85-.37,1.53-1.12,2.05-.75.52-1.69.67-2.83.44-1.07-.1-2.04-.27-2.91-.51-.86-.24-1.49-.37-1.88-.37-.52,0-1.22.11-2.1.34.03,1.92-.42,3.24-1.37,3.96-.85.42-1.69.86-2.54,1.32,2.47-.2,3.71.68,3.71,2.64,0,1.07-.37,2.46-1.12,4.15-.42.91-.86,1.82-1.32,2.73,2.34.16,3.52.91,3.52,2.25,0,.65-.33,1.25-1,1.78-.67.54-1.55.85-2.66.95-1.24.1-2.38.15-3.42.15-2.05,0-4.74-.34-8.06-1.03-.03.72-.32,1.35-.85,1.9-.54.55-1.12.83-1.73.83-1.2,0-1.92-1.06-2.15-3.17l-.05-8.98c-.1-.52-.18-1.06-.24-1.61-.2-.59-.68-1.16-1.46-1.71.52-.23,1.11-.34,1.76-.34.91,0,1.75.2,2.51.61.76.41,1.21.89,1.34,1.44.98-.65,2.93-1.53,5.86-2.64,2.18-.81,3.39-1.59,3.61-2.34v-18.75c0-1.4-.72-2.49-2.15-3.27-2.6-1.4-4.49-2.67-5.66-3.81.62.03,1.56-.11,2.83-.42,1.27-.31,2.31-.46,3.12-.46,1.76,0,3.63.59,5.62,1.76,1.73,1.01,2.59,2.15,2.59,3.42,0,.36-.23,1.37-.68,3.03v12.45c1.01-.13,2.05-.47,3.12-1.03,1.07-.55,2.62-.9,4.64-1.03Zm-14.01,13.33c-.26-.1-.62-.15-1.07-.15-1.27,0-2.67.33-4.2.98-1.63.68-2.49,1.42-2.59,2.2l.05,4.49c.1.07.24.1.44.1.16,0,1.5-.26,4-.78,1.4-.29,2.34-1.07,2.83-2.34.33-.88.5-2.38.54-4.49Z" fill="#fff" stroke-width="0"/>
    <path d="m96.29,105.55c-.88,1.11-5.21,6.33-12.99,15.67-1.79,2.15-3.91,3.22-6.35,3.22-1.63,0-3.3-.54-5.03-1.61,2.44-.06,5.22-1.66,8.35-4.79,1.4-1.4,5.01-5.65,10.84-12.74-1.43.33-2.77.49-4,.49-4.46,0-6.95-1.99-7.47-5.96.72.39,1.48.59,2.29.59.72,0,2.47-.46,5.27-1.37,2.64-.88,5.11-1.24,7.42-1.07,3.22.23,4.83,1.2,4.83,2.93,0,1.63-1.06,3.17-3.17,4.64Zm21.44,4.39c1.27.46,1.9,1.27,1.9,2.44,0,1.5-.81,2.39-2.44,2.69-.52.1-1.06.15-1.61.15-.65,0-1.54-.09-2.66-.27-1.12-.18-1.95-.27-2.47-.27-.78,0-1.48.13-2.1.39v11.43c0,2.02-.57,3.55-1.71,4.59-.98.88-2.2,1.32-3.66,1.32-.65,0-1.27-.08-1.86-.24,1.07-.36,1.59-1.48,1.56-3.37v-32.91c0-1.82-.41-3.12-1.22-3.91-.2-.2-1.24-.83-3.12-1.9-1.6-.88-2.95-2.08-4.05-3.61.59.03,1.48-.06,2.69-.29,1.2-.23,2.18-.34,2.93-.34,2.02,0,4.2.68,6.54,2.05,1.86,1.07,2.78,2.46,2.78,4.15,0,.75-.29,2.03-.88,3.86v15.82c1.2-.42,2.42-.86,3.66-1.32,1.5-.52,2.73-.78,3.71-.78.72,0,1.38.11,2,.34Z" fill="#fff" stroke-width="0"/>
    <path d="m143.22,120.5c0,3.26-.72,4.88-2.15,4.88-.49,0-.94-.23-1.34-.68-.41-.46-.66-1.03-.76-1.71-.1-.26-.62-.93-1.56-2,1.04-.52,1.56-1.09,1.56-1.71l-.05-9.86c-.52.52-1.16.94-1.9,1.27-.75.33-1.3.46-1.66.39-.03,1.2-.85,2.59-2.44,4.15-1.69,1.63-3.39,2.56-5.08,2.78-.49.07-.98.1-1.46.1-2.7,0-4.91-.86-6.62-2.59-1.71-1.73-2.51-3.73-2.42-6.01.06-1.66.67-3.24,1.81-4.74,1.04-1.46,2.38-2.62,4-3.47.06-.42-.11-.76-.54-1.03-.59-.36-.96-.76-1.12-1.22.62-.1,1.32-.38,2.1-.85.78-.47,1.51-.74,2.2-.81,1.07-.1,2.04.09,2.91.56.86.47,1.29,1.15,1.29,2.03,0,.26-.05.54-.15.83,1.46.13,2.77.72,3.91,1.76.98.88,1.51,1.69,1.61,2.44.85-.16,1.43-.33,1.76-.49.72-.39,1.33-1.07,1.86-2.05v-3.91c0-1.24-.55-2.21-1.66-2.93-1.73-1.14-2.88-2.12-3.47-2.93.52,0,1.16-.05,1.93-.15.76-.1,1.33-.15,1.68-.15,1.11,0,2.33.34,3.66,1.03,1.63.81,2.44,1.87,2.44,3.17,0,.29-.06.7-.17,1.22-.11.52-.17.86-.17,1.03v21.63Zm-17.29-16.94c-2.67.81-4.48,1.87-5.42,3.17-.62.85-.91,1.92-.88,3.22.03,1.17.59,2.16,1.68,2.95,1.09.8,2.29,1.12,3.59.95,1.43-.2,2.62-.85,3.56-1.98.94-1.12,1.42-2.35,1.42-3.69,0-2.31-1.32-3.86-3.96-4.64Zm26.51,24.8c0,1.46-.55,2.6-1.66,3.42-.98.72-2.2,1.07-3.66,1.07-.65,0-1.29-.08-1.9-.24.78-.52,1.22-.99,1.32-1.42.1-.62.18-1.22.24-1.81v-34.03c0-1.59-.36-2.73-1.07-3.42-.26-.23-1.2-.76-2.83-1.61-1.5-.78-2.8-1.77-3.91-2.98.46.03,1.24-.06,2.34-.29,1.27-.26,2.31-.39,3.12-.39,1.76,0,3.55.47,5.37,1.42,2.18,1.14,3.27,2.57,3.27,4.3,0,.78-.21,1.86-.63,3.22v32.76Z" fill="#fff" stroke-width="0"/>
    <path d="m215.35,127.14c0,1.95-.59,3.42-1.76,4.39-.94.75-2.17,1.12-3.66,1.12-.62,0-1.22-.07-1.81-.2,1.07-.65,1.59-1.68,1.56-3.08v-18.65c-.81,3.22-3.91,6.04-9.28,8.45-4,1.79-8.02,2.98-12.06,3.56-.59.29-1.22.44-1.9.44-1.33,0-2.6-.5-3.78-1.51-1.19-1.01-1.91-2.26-2.17-3.76,1.11.52,2.21.78,3.32.78l3.66-.29c2.21-1.4,4.75-3.53,7.62-6.4-.62.1-1.24.15-1.86.15-2.18,0-3.95-.55-5.3-1.66-1.35-1.11-2.03-2.47-2.03-4.1,0-1.43.57-2.83,1.71-4.2.52-.78,1.28-1.5,2.27-2.15.99-.65,2.01-1.3,3.05-1.95-.07-.33-.37-.66-.9-1s-.79-.63-.76-.85c.65.13,1.42-.08,2.29-.63.65-.62,1.68-.93,3.08-.93,1.92,0,2.88.6,2.88,1.81,0,.26-.07.55-.2.88,2.08.07,3.68.65,4.79,1.76,1.01.98,1.51,2.23,1.51,3.76,0,1.66-.57,3.29-1.71,4.88-1.14,1.6-2.67,2.77-4.59,3.52-1.63,1.2-3.66,2.57-6.1,4.1-2.86,1.79-4.49,2.82-4.88,3.08,2.6,0,6.14-.8,10.6-2.39,5.99-2.08,9.57-4.72,10.74-7.91v-11.77c0-1.79-.41-3.09-1.22-3.91-.2-.16-1.24-.78-3.12-1.86-1.6-.91-2.95-2.13-4.05-3.66.55.03,1.43-.03,2.64-.2,1.2-.16,2.16-.24,2.88-.24,2.18,0,4.39.62,6.64,1.86,1.86,1.04,2.78,2.38,2.78,4,0,.72-.29,2.05-.88,4v30.76Zm-20.61-26.56c-1.92.23-3.58,1.06-4.98,2.49-.81.85-1.22,1.71-1.22,2.59s.36,1.55,1.07,2.12c.72.57,1.56.84,2.54.81,1.89.1,3.6-.44,5.13-1.61,1.4-1.14,2.1-2.34,2.1-3.61,0-1.89-1.55-2.82-4.64-2.78Z" fill="#fff" stroke-width="0"/>
    <path d="m259.35,127.14c0,1.95-.59,3.42-1.76,4.39-.94.75-2.17,1.12-3.66,1.12-.62,0-1.22-.07-1.81-.2,1.07-.65,1.59-1.68,1.56-3.08v-18.65c-.81,3.22-3.91,6.04-9.28,8.45-4,1.79-8.02,2.98-12.06,3.56-.59.29-1.22.44-1.9.44-1.33,0-2.6-.5-3.78-1.51-1.19-1.01-1.91-2.26-2.17-3.76,1.11.52,2.21.78,3.32.78l3.66-.29c2.21-1.4,4.75-3.53,7.62-6.4-.62.1-1.24.15-1.86.15-2.18,0-3.95-.55-5.3-1.66-1.35-1.11-2.03-2.47-2.03-4.1,0-1.43.57-2.83,1.71-4.2.52-.78,1.28-1.5,2.27-2.15.99-.65,2.01-1.3,3.05-1.95-.07-.33-.37-.66-.9-1s-.79-.63-.76-.85c.65.13,1.42-.08,2.29-.63.65-.62,1.68-.93,3.08-.93,1.92,0,2.88.6,2.88,1.81,0,.26-.07.55-.2.88,2.08.07,3.68.65,4.79,1.76,1.01.98,1.51,2.23,1.51,3.76,0,1.66-.57,3.29-1.71,4.88-1.14,1.6-2.67,2.77-4.59,3.52-1.63,1.2-3.66,2.57-6.1,4.1-2.86,1.79-4.49,2.82-4.88,3.08,2.6,0,6.14-.8,10.6-2.39,5.99-2.08,9.57-4.72,10.74-7.91v-11.77c0-1.79-.41-3.09-1.22-3.91-.2-.16-1.24-.78-3.12-1.86-1.6-.91-2.95-2.13-4.05-3.66.55.03,1.43-.03,2.64-.2,1.2-.16,2.16-.24,2.88-.24,2.18,0,4.39.62,6.64,1.86,1.86,1.04,2.78,2.38,2.78,4,0,.72-.29,2.05-.88,4v30.76Zm-20.61-26.56c-1.92.23-3.58,1.06-4.98,2.49-.81.85-1.22,1.71-1.22,2.59s.36,1.55,1.07,2.12c.72.57,1.56.84,2.54.81,1.89.1,3.6-.44,5.13-1.61,1.4-1.14,2.1-2.34,2.1-3.61,0-1.89-1.55-2.82-4.64-2.78Z" fill="#fff" stroke-width="0"/>
    <path d="m305.69,112.24c-1.43-.16-3.4.37-5.91,1.61,1.73.29,2.59.91,2.59,1.86,0,.59-.68,1.76-2.05,3.52.52-.1,1.03,0,1.51.29s.73.67.73,1.12c0,1.37-2.26,2.31-6.79,2.83-1.37.16-2.82.67-4.35,1.51-1.4.78-2.23,1.48-2.49,2.1.75.13,1.51.2,2.29.2,2.05,0,4.85-.55,8.4-1.66,2.86.16,4.3.8,4.3,1.9,0,.65-.49,1.27-1.46,1.86s-2.1.91-3.37.98c-2.02.39-4.25.59-6.69.59-5.01,0-7.52-.77-7.52-2.29,0-1.07,1.22-2.25,3.66-3.52-.33.03-.65.05-.98.05-2.15,0-3.16-.91-3.03-2.73.13.13.5.2,1.12.2,2.08,0,4.35-.46,6.79-1.37,2.9-1.07,4.28-2.34,4.15-3.81-1.46.13-3.56.72-6.3,1.76-2.54,1.01-4.25,1.51-5.13,1.51-1.63,0-2.54-1.14-2.73-3.42.52.23,1.07.34,1.66.34.36,0,1.17-.15,2.44-.44.72-.16,1.76-.5,3.12-1.03,1.99-.78,3.55-1.37,4.69-1.76,1.5-.52,2.73-.81,3.71-.88.49-.03,1.61-.54,3.37-1.51-4.17.07-12.37,1.74-24.61,5.03-.62.16-1.24.24-1.86.24-1.6,0-3.04-.52-4.32-1.56-1.29-1.04-2.14-2.39-2.56-4.05,2.21.91,4.22,1.37,6.01,1.37,2.05,0,4.3-.39,6.74-1.17s4.85-2,7.23-3.66c-.33.07-.63.1-.93.1-1.3,0-2.28-.47-2.93-1.42-.55-.78-.77-1.48-.63-2.1,0-.39.78-.94,2.34-1.66,1.69-.75,2.62-1.29,2.78-1.61-1.37-.2-2.1-.31-2.2-.34-.75-.26-1.12-.81-1.12-1.66,0-.39.06-.83.2-1.32.16.23.54.34,1.12.34,1.43,0,3.32-.54,5.66-1.64,2.34-1.09,3.55-2.08,3.61-2.95.1-.23.03-.34-.2-.34-.13,0-1.15.33-3.05,1-1.9.67-3.48,1-4.71,1-2.73,0-4.25-1.61-4.54-4.83.55.42,1.17.63,1.86.63.59,0,2.33-.5,5.22-1.51,3.06-1.04,6.1-1.66,9.13-1.86,1.95.13,2.93.88,2.93,2.25s-1.03,3.12-3.08,5.27c1.3-.16,1.95.18,1.95,1.03,0,.72-.46,1.4-1.37,2.05-1.04.75-2.26,1.09-3.66,1.03-2.15.49-4.05,1.22-5.71,2.2-.98.65-1.94,1.32-2.88,2-.1.2.13.29.68.29.88,0,2.15-.18,3.81-.54,1.66-.36,3.03-.75,4.1-1.17,2.15-.85,3.91-1.27,5.27-1.27,1.66,0,2.49.5,2.49,1.51,0,.59-.29,1.16-.88,1.71-.59.55-1.35.93-2.29,1.12-3.91.81-7.21,1.71-9.91,2.69-1.89.65-4.54,1.76-7.96,3.32,11.62-2.15,18.67-3.52,21.14-4.1,1.43-.36,2.77-.54,4-.54,1.59,0,2.85.27,3.76.81.91.54,1.37,1.16,1.37,1.88s-.47,1.38-1.42,1.9c-1.04.55-2.47.83-4.3.83-.65,0-1.33-.03-2.05-.1Z" fill="#fff" stroke-width="0"/>
    <path d="m366.69,112.39c-1.76-.26-3.52-.11-5.27.44v14.36c0,1.46-.63,2.6-1.9,3.42-1.04.72-2.29,1.07-3.76,1.07-.68,0-1.29-.08-1.81-.24.26-.1.52-.41.78-.93.33-.65.49-1.42.49-2.29v-14.31c-1.2-.03-3.5.55-6.88,1.76-4.1,1.46-6.41,2.26-6.93,2.39-.85.39-1.73.59-2.64.59-1.69,0-3.24-.62-4.64-1.86-1.3-1.14-1.95-2.31-1.95-3.52,0-.16.02-.33.05-.49.75.72,1.95,1.07,3.61,1.07,2.96,0,6.67-.98,11.13-2.93,4.2-1.79,6.41-3.19,6.64-4.2-2.28.75-3.86,1.12-4.74,1.12-1.5,0-2.46-1.07-2.88-3.22,1.2-1.27,1.81-2.39,1.81-3.37s-.65-1.9-1.95-2.69c.36-.29,1.14-.63,2.34-1.03,1.04-.33,2.03-.96,2.98-1.9-1.04-.23-1.99-.85-2.86-1.88-.86-1.03-1.29-2.01-1.29-2.95,0-.2.03-.39.1-.59.42.39,1.07.59,1.95.59,1.07,0,2.51-.31,4.3-.93,1.01-.36,2.02-.72,3.03-1.07,2.02-.59,3.84-.88,5.47-.88,1.53,0,2.72.25,3.56.76.85.5,1.27,1.13,1.27,1.88,0,.85-.5,1.66-1.51,2.44-1.11.85-2.64,1.5-4.59,1.95-.62.23-2.26.54-4.93.93-2.05.29-3.65.94-4.79,1.95,1.79.49,2.69,1.4,2.69,2.73,0,.49-.13,1.01-.39,1.56,2.38-.36,4.85-.99,7.42-1.9,1.59-.75,3.03-1.12,4.3-1.12,1.95,0,2.93.67,2.93,2,0,1.63-1.45,2.85-4.35,3.66-2.15.59-3.66,1.06-4.54,1.42-2.64,1.07-6.36,2.98-11.18,5.71.26-.03,2.98-.6,8.15-1.71,3.32-.72,6.71-1.27,10.16-1.66,2.08-.55,3.96-.83,5.62-.83s3.01.29,3.96.88c.85.49,1.27,1.12,1.27,1.9s-.46,1.46-1.37,2.05c-.91.59-2.13.88-3.66.88s-3.32-.34-5.18-1.03Z" fill="#fff" stroke-width="0"/>
    <path d="m410.44,127.33c0,3.42-1.92,5.13-5.76,5.13-.49,0-1.03-.03-1.61-.1.94-.39,1.48-1.5,1.61-3.32v-15.97c-1.33,2.02-2.98,3.03-4.93,3.03-1.01,0-1.82-.33-2.44-.98-.72-.72-1.09-1.69-1.12-2.93-.26.94-.54,1.99-.83,3.12,1.11.46,1.66,1.04,1.66,1.76,0,.91-.54,1.53-1.61,1.86-1.63.52-3.16.78-4.59.78s-2.95-.28-4.54-.83c-.59,1.43-1.55,2.15-2.88,2.15s-2.08-1.04-2.34-3.12v-13.82c.1-1.04-.07-1.97-.49-2.78-.03-.03-.41-.57-1.12-1.61.88-.29,1.68-.44,2.39-.44,1.01,0,1.86.28,2.54.83.06.07.47.52,1.22,1.37,1.92-.98,4.39-2.05,7.42-3.22,2.99-.26,4.49.67,4.49,2.78,0,.42-.07.88-.2,1.37,0-.06.6-.41,1.81-1.03,1.5-.81,2.82-1.22,3.96-1.22.59,0,1.12.11,1.61.34v-4.35c0-1.79-.41-3.09-1.22-3.91-.2-.16-1.24-.78-3.12-1.86-1.6-.91-2.95-2.13-4.05-3.66.55.03,1.44-.04,2.66-.22,1.22-.18,2.21-.27,2.95-.27,2.15,0,4.33.63,6.54,1.9,1.86,1.07,2.78,2.43,2.78,4.05,0,.78-.29,2.1-.88,3.96l.1,31.2Zm-18.02-24.02c-.33-.06-.68-.1-1.07-.1-1.07,0-2.17.25-3.27.76-1.11.5-1.77,1.12-2,1.83v10.25c2.51.13,4.25-.68,5.22-2.44.78-1.46,1.17-3.86,1.17-7.18,0-.88-.02-1.92-.05-3.12Zm12.26,4.98v-3.91c-1.11.75-2.8,1.92-5.08,3.52.59-.98,1.32-1.97,2.2-2.98-.13-.03-.29-.05-.49-.05-.59,0-1.27.17-2.05.51s-1.37.71-1.76,1.1c-.13.59-.42,2.07-.88,4.44.49.59,1.3.88,2.44.88s2.25-.31,3.34-.93c1.09-.62,1.85-1.48,2.27-2.59Z" fill="#fff" stroke-width="0"/>
    <path d="m473.35,127.14c0,1.95-.59,3.42-1.76,4.39-.94.75-2.17,1.12-3.66,1.12-.62,0-1.22-.07-1.81-.2,1.07-.65,1.59-1.68,1.56-3.08v-18.65c-.81,3.22-3.91,6.04-9.28,8.45-4,1.79-8.02,2.98-12.06,3.56-.59.29-1.22.44-1.9.44-1.33,0-2.6-.5-3.78-1.51-1.19-1.01-1.91-2.26-2.17-3.76,1.11.52,2.21.78,3.32.78l3.66-.29c2.21-1.4,4.75-3.53,7.62-6.4-.62.1-1.24.15-1.86.15-2.18,0-3.95-.55-5.3-1.66-1.35-1.11-2.03-2.47-2.03-4.1,0-1.43.57-2.83,1.71-4.2.52-.78,1.28-1.5,2.27-2.15.99-.65,2.01-1.3,3.05-1.95-.07-.33-.37-.66-.9-1s-.79-.63-.76-.85c.65.13,1.42-.08,2.29-.63.65-.62,1.68-.93,3.08-.93,1.92,0,2.88.6,2.88,1.81,0,.26-.07.55-.2.88,2.08.07,3.68.65,4.79,1.76,1.01.98,1.51,2.23,1.51,3.76,0,1.66-.57,3.29-1.71,4.88-1.14,1.6-2.67,2.77-4.59,3.52-1.63,1.2-3.66,2.57-6.1,4.1-2.86,1.79-4.49,2.82-4.88,3.08,2.6,0,6.14-.8,10.6-2.39,5.99-2.08,9.57-4.72,10.74-7.91v-11.77c0-1.79-.41-3.09-1.22-3.91-.2-.16-1.24-.78-3.12-1.86-1.59-.91-2.95-2.13-4.05-3.66.55.03,1.43-.03,2.64-.2,1.2-.16,2.17-.24,2.88-.24,2.18,0,4.39.62,6.64,1.86,1.86,1.04,2.78,2.38,2.78,4,0,.72-.29,2.05-.88,4v30.76Zm-20.61-26.56c-1.92.23-3.58,1.06-4.98,2.49-.81.85-1.22,1.71-1.22,2.59s.36,1.55,1.07,2.12c.72.57,1.56.84,2.54.81,1.89.1,3.6-.44,5.13-1.61,1.4-1.14,2.1-2.34,2.1-3.61,0-1.89-1.55-2.82-4.64-2.78Z" fill="#fff" stroke-width="0"/>
    <path d="m507.53,107.46c-.29.81-.81,3.48-1.56,8.01.1.33.15.67.15,1.03,0,.98-.32,1.81-.95,2.51-.63.7-1.41,1.05-2.32,1.05-.85,0-1.6-.27-2.27-.81s-1.02-1.21-1.05-2.03c-.03-.81-.08-1.63-.15-2.44-.07-.81-.44-1.48-1.12-2-.1.16-1.33,2.05-3.71,5.66-1.14,1.76-2.13,3.12-2.98,4.1-.94,1.6-2.64,2.39-5.08,2.39-2.15,0-4.13-.63-5.96-1.9,1.95-.13,3.87-.91,5.76-2.34,1.89-1.43,4.15-4.05,6.79-7.86.16-.23,2.02-3.09,5.57-8.59-1.53.16-2.42.24-2.69.24-3.03,0-4.54-1.63-4.54-4.88,0-.39.02-.81.05-1.27.55.46,1.27.68,2.15.68,1.01,0,2.64-.4,4.88-1.2,2.25-.8,3.78-1.2,4.59-1.2,3,.03,4.49.93,4.49,2.69,0,1.5-.94,2.91-2.83,4.25-.91,1.24-2.75,3.78-5.52,7.62,1.24.1,2.23.39,2.98.88.62.42,1.24.86,1.86,1.32.55-1.11,1.71-3.08,3.47-5.91Zm9.81,20.51c0,1.66-.57,2.91-1.71,3.76-1.01.75-2.29,1.12-3.86,1.12-.59,0-1.19-.07-1.81-.2,1.07-.36,1.64-1.48,1.71-3.37v-32.91c0-1.79-.41-3.09-1.22-3.91-.2-.16-1.24-.78-3.12-1.86-1.59-.91-2.95-2.13-4.05-3.66.55.03,1.43-.03,2.64-.2,1.2-.16,2.17-.24,2.88-.24,2.18,0,4.39.62,6.64,1.86,1.86,1.04,2.78,2.38,2.78,4,0,.72-.29,2.05-.88,4v31.59Z" fill="#fff" stroke-width="0"/>
    <path d="m563.69,112.24c-1.43-.16-3.4.37-5.91,1.61,1.73.29,2.59.91,2.59,1.86,0,.59-.68,1.76-2.05,3.52.52-.1,1.03,0,1.51.29s.73.67.73,1.12c0,1.37-2.26,2.31-6.79,2.83-1.37.16-2.82.67-4.35,1.51-1.4.78-2.23,1.48-2.49,2.1.75.13,1.51.2,2.29.2,2.05,0,4.85-.55,8.4-1.66,2.86.16,4.3.8,4.3,1.9,0,.65-.49,1.27-1.46,1.86s-2.1.91-3.37.98c-2.02.39-4.25.59-6.69.59-5.01,0-7.52-.77-7.52-2.29,0-1.07,1.22-2.25,3.66-3.52-.33.03-.65.05-.98.05-2.15,0-3.16-.91-3.03-2.73.13.13.5.2,1.12.2,2.08,0,4.35-.46,6.79-1.37,2.9-1.07,4.28-2.34,4.15-3.81-1.46.13-3.56.72-6.3,1.76-2.54,1.01-4.25,1.51-5.13,1.51-1.63,0-2.54-1.14-2.73-3.42.52.23,1.07.34,1.66.34.36,0,1.17-.15,2.44-.44.72-.16,1.76-.5,3.12-1.03,1.99-.78,3.55-1.37,4.69-1.76,1.5-.52,2.73-.81,3.71-.88.49-.03,1.61-.54,3.37-1.51-4.17.07-12.37,1.74-24.61,5.03-.62.16-1.24.24-1.86.24-1.59,0-3.04-.52-4.32-1.56-1.29-1.04-2.14-2.39-2.56-4.05,2.21.91,4.22,1.37,6.01,1.37,2.05,0,4.3-.39,6.74-1.17s4.85-2,7.23-3.66c-.33.07-.63.1-.93.1-1.3,0-2.28-.47-2.93-1.42-.55-.78-.76-1.48-.63-2.1,0-.39.78-.94,2.34-1.66,1.69-.75,2.62-1.29,2.78-1.61-1.37-.2-2.1-.31-2.2-.34-.75-.26-1.12-.81-1.12-1.66,0-.39.07-.83.2-1.32.16.23.54.34,1.12.34,1.43,0,3.32-.54,5.66-1.64,2.34-1.09,3.55-2.08,3.61-2.95.1-.23.03-.34-.2-.34-.13,0-1.15.33-3.05,1-1.9.67-3.47,1-4.71,1-2.73,0-4.25-1.61-4.54-4.83.55.42,1.17.63,1.86.63.59,0,2.33-.5,5.22-1.51,3.06-1.04,6.1-1.66,9.13-1.86,1.95.13,2.93.88,2.93,2.25s-1.03,3.12-3.08,5.27c1.3-.16,1.95.18,1.95,1.03,0,.72-.46,1.4-1.37,2.05-1.04.75-2.26,1.09-3.66,1.03-2.15.49-4.05,1.22-5.71,2.2-.98.65-1.94,1.32-2.88,2-.1.2.13.29.68.29.88,0,2.15-.18,3.81-.54,1.66-.36,3.03-.75,4.1-1.17,2.15-.85,3.91-1.27,5.27-1.27,1.66,0,2.49.5,2.49,1.51,0,.59-.29,1.16-.88,1.71-.59.55-1.35.93-2.29,1.12-3.91.81-7.21,1.71-9.91,2.69-1.89.65-4.54,1.76-7.96,3.32,11.62-2.15,18.67-3.52,21.14-4.1,1.43-.36,2.77-.54,4-.54,1.59,0,2.85.27,3.76.81s1.37,1.16,1.37,1.88-.47,1.38-1.42,1.9c-1.04.55-2.47.83-4.3.83-.65,0-1.33-.03-2.05-.1Z" fill="#fff" stroke-width="0"/>
    <path d="m633.43,111.27c.39.1.73.38,1.03.85.29.47.44,1,.44,1.59,0,.85-.37,1.54-1.12,2.08s-1.58.81-2.49.81c-.33,0-.9-.07-1.71-.22s-1.5-.22-2.05-.22c-.98,0-1.95.21-2.93.63,0,1.14-.4,2.04-1.2,2.71-.8.67-1.67,1-2.61,1-1.4,0-2.12-.6-2.15-1.81-.59-.06-1.09-.1-1.51-.1-.68,0-2.44.34-5.27,1.03,1.53-.72,3.05-1.45,4.57-2.2,1.51-.75,2.27-1.43,2.27-2.05l-.05-6.59c-1.07,3.22-4.75,6.3-11.04,9.23-4,1.86-7.49,3.12-10.45,3.81-.49.2-1.03.29-1.61.29-1.14,0-2.23-.37-3.27-1.12-1.17-.88-2.1-2.1-2.78-3.66,1.11.46,2.38.68,3.81.68,1.92,0,3.58-.37,4.98-1.12,1.53-.81,2.33-1.89,2.39-3.22.07-1.17-.09-1.96-.46-2.37-.37-.41-1.31-.77-2.81-1.1.23-.1.91-.63,2.05-1.61.88-.78,1.79-1.17,2.73-1.17.42,0,.86.07,1.32.2,1.76.49,2.64,1.55,2.64,3.17,0,1.3-.63,2.9-1.9,4.79,2.25-.72,3.78-1.74,4.59-3.08.65-.98.98-2.34.98-4.1,0-.36-.03-1.11-.1-2.25-.03-.94-.03-1.71,0-2.29-1.99.78-3.71,1.17-5.18,1.17-3.16,0-4.83-1.69-5.03-5.08.59.33,1.2.49,1.86.49.88,0,2.42-.53,4.64-1.59,2.21-1.06,4.05-1.59,5.52-1.59.46,0,.91.05,1.37.15,1.76.33,2.64,1.27,2.64,2.83,0,.81-.21,1.69-.63,2.64-.36,2.77-.6,4.49-.73,5.18-.29,1.46-.72,2.6-1.27,3.42.81-.33,1.82-1.12,3.03-2.39,1.53-1.63,2.46-3.34,2.78-5.13v-8.15c0-1.46-.44-2.54-1.32-3.22-1.07-.55-2.13-1.11-3.17-1.66-1.56-.88-2.85-2.1-3.86-3.66.68.03,1.64-.04,2.88-.22,1.24-.18,2.18-.27,2.83-.27,2.08,0,4.26.68,6.54,2.05,1.66,1.01,2.49,2.28,2.49,3.81,0,.65-.24,1.79-.73,3.42v17.19c.75-.26,2-.81,3.76-1.66,1.01-.49,1.9-.73,2.69-.73.72,0,1.59.15,2.64.44Zm-8.01,17.68c-1.95.98-5.4,1.46-10.35,1.46-3.58,0-5.96-.26-7.13-.78-1.63-.75-2.44-1.82-2.44-3.22,0-2.12,1.38-4.02,4.15-5.71-.85,1.14-1.27,2.08-1.27,2.83,0,1.27,1.24,1.9,3.71,1.9,2.18,0,4.64-.37,7.37-1.12,1.27-.36,2.41-.54,3.42-.54,1.37,0,2.4.28,3.1.83.7.55,1.05,1.2,1.05,1.95,0,1.07-.54,1.87-1.61,2.39Z" fill="#fff" stroke-width="0"/>
    <path d="m668.35,108.34c0,1.24-.39,2.2-1.17,2.88-.59.52-1.42.9-2.49,1.12-.78.16-1.56.31-2.34.44,1.46.2,2.47.39,3.03.59.88.33,1.32.85,1.32,1.56,0,.94-.78,2.33-2.34,4.15,1.37.55,2.05,1.14,2.05,1.76,0,.52-.47.98-1.42,1.39-.95.41-1.86.61-2.73.61-3.16.88-4.77,1.33-4.83,1.37-2.12.72-3.68,1.53-4.69,2.44.52.29,1.19.44,2,.44s3.04-.44,6.69-1.32c1.17-.29,2.21-.44,3.12-.44,2.31,0,3.47.65,3.47,1.95,0,.85-.57,1.61-1.71,2.29-1.3.72-2.98,1.07-5.03,1.07-.49,0-.99-.02-1.51-.05-.72.1-1.5.15-2.34.15-2.05,0-3.84-.24-5.37-.73-1.69-.52-2.54-1.19-2.54-2,0-1.07,1.45-2.25,4.35-3.52-.78-.23-1.56-.46-2.34-.68-1.14-.42-1.66-1.27-1.56-2.54.39.33.99.49,1.81.49,1.82,0,3.96-.65,6.4-1.95,2.44-1.3,3.73-2.52,3.86-3.66-.26-.16-.59-.24-.98-.24-.78,0-2.34.54-4.69,1.61s-4.05,1.61-5.13,1.61c-1.53,0-2.57-.85-3.12-2.54.13.16.41.24.83.24,1.56,0,4.25-.9,8.06-2.69,3.81-1.79,5.71-3.03,5.71-3.71v-5.42c-1.3,2.18-2.69,3.27-4.15,3.27s-2.88-1.07-4.35-3.22c-.59.55-1.21,1.25-1.86,2.1,1.17.26,2.02.6,2.54,1.03.36.26.76.8,1.22,1.61.06.1.13.15.2.15.16,0,.37-.24.63-.73.23-.39.36-.52.39-.39-.03,1.43-.54,2.82-1.51,4.17-.98,1.35-1.99,2.03-3.03,2.03-.88,0-1.58-.59-2.1-1.76-.13-.33-.2-.65-.2-.98s.1-.72.29-1.2c.2-.47.29-.84.29-1.1,0-.39-.15-.78-.44-1.17-2.34,2.54-4.69,5.09-7.03,7.67-2.44,2.44-4.62,3.66-6.54,3.66-1.53,0-3.14-.67-4.83-2,.13.13.31.2.54.2,1.46,0,3.96-1.48,7.47-4.44,4-3.35,7.67-7.37,10.99-12.06-1.04.65-2.07,1.29-3.08,1.9-1.73,1.01-3.16,1.51-4.3,1.51-1.92,0-3.27-1.32-4.05-3.96.23.36.7.54,1.42.54,1.17,0,2.49-.37,3.96-1.12,1.59-.81,2.65-1.74,3.17-2.78-.1-.16-.72-.62-1.86-1.37-.95-.65-1.64-1.53-2.1-2.64.23.1.47.15.73.15.39,0,1.22-.28,2.49-.83,1.27-.55,2.44-.83,3.52-.83.36,0,.71.03,1.07.1,2.28.33,3.42,1.27,3.42,2.83,0,.55-.16,1.19-.49,1.9,2.83-.13,4.25.34,4.25,1.42,0,.72-.66,1.78-1.98,3.2s-1.99,2.19-2.03,2.32c.13.2.39.29.78.29.88,0,1.9-.39,3.08-1.17,1.37-.91,2.52-2.16,3.47-3.76v-4.98c0-1.4-.72-2.49-2.15-3.27-2.61-1.4-4.49-2.67-5.66-3.81.62.03,1.56-.11,2.83-.42,1.27-.31,2.31-.46,3.12-.46,1.76,0,3.63.59,5.62,1.76,1.72,1.01,2.59,2.15,2.59,3.42,0,.36-.23,1.37-.68,3.03v13.53Z" fill="#fff" stroke-width="0"/>
    <path d="m702.87,104.97c-.65,1.5-1.17,3.17-1.56,5.03-.33,1.69-.65,3.39-.98,5.08.16.94-.08,1.77-.73,2.49-.65.72-1.45,1.07-2.39,1.07-1.73,0-2.85-1.17-3.37-3.52.16-.52.24-.99.24-1.42,0-1.01-.7-1.97-2.1-2.88-1.66,2.44-3.99,5.53-6.98,9.28-1.3,1.3-2.87,1.95-4.69,1.95s-3.6-.57-5.32-1.71c2.31-.29,4.26-1.22,5.86-2.78,1.5-1.17,3.42-3.4,5.76-6.69.49-.72,2.31-3.48,5.47-8.3.52-.65.78-1.22.78-1.71,0-.52-.34-1.04-1.03-1.56l-2.34-1.46c1.43-.52,2.51-.83,3.22-.93.39-.06,1.37-.13,2.93-.2,1.17.1,2.14.48,2.91,1.15.76.67,1.15,1.41,1.15,2.22,0,1.01-.57,1.86-1.71,2.54-.55.59-2,2.59-4.35,6.01.78.1,1.59.52,2.44,1.27.59.65,1.19,1.29,1.81,1.9.88-1.24,2.54-3.52,4.98-6.84Zm9.08,22.12c0,1.89-.54,3.35-1.61,4.39-.94.91-2.08,1.37-3.42,1.37-.78,0-1.5-.16-2.15-.49,1.11-.36,1.61-1.37,1.51-3.03v-33.45c0-1.79-.42-3.09-1.27-3.91-.16-.16-1.19-.78-3.08-1.86-1.63-.91-3-2.13-4.1-3.66.59.03,1.49-.04,2.71-.22,1.22-.18,2.17-.27,2.86-.27,2.18,0,4.39.63,6.64,1.9,1.82,1.04,2.73,2.38,2.73,4,0,.65-.28,1.99-.83,4v31.2Z" fill="#fff" stroke-width="0"/>
    <path d="m746.04,103.06c-.49.36-2.15,2.38-4.98,6.05-3.39,4.36-6.71,8.24-9.96,11.62-1.24,1.27-2.9,1.9-4.98,1.9-1.86,0-3.34-.59-4.44-1.76,2.86-.36,5.84-2.05,8.94-5.08,1.86-1.82,3.45-3.78,4.79-5.86-2.02,1.04-3.65,1.56-4.88,1.56-2.02,0-3.08-1.4-3.17-4.2.42.72,1.29,1.07,2.59,1.07,1.37,0,2.94-.35,4.71-1.05,1.77-.7,3.21-1.52,4.32-2.47.46-.46.94-1.12,1.46-2-.85.49-1.92.73-3.22.73-1.53,0-2.82-.33-3.86-.98-1.21-.78-1.81-1.87-1.81-3.27,0-.39.05-.81.15-1.27.23.46.81.68,1.76.68s2.78-.36,5.62-1.07c2.6-.68,4.28-.96,5.03-.83,2.77.46,4.15,1.42,4.15,2.88,0,1.07-.73,2.18-2.2,3.32Zm10.3,23.39c0,1.92-.54,3.42-1.61,4.49-.94.91-2.08,1.37-3.42,1.37-.78,0-1.48-.16-2.1-.49,1.11-.39,1.59-1.51,1.46-3.37v-32.57c0-1.79-.41-3.09-1.22-3.91-.2-.16-1.24-.78-3.12-1.86-1.6-.91-2.95-2.13-4.05-3.66.55.03,1.44-.04,2.66-.22,1.22-.18,2.17-.27,2.86-.27,2.18,0,4.39.63,6.64,1.9,1.86,1.04,2.78,2.38,2.78,4,0,.72-.29,2.05-.88,4v30.57Z" fill="#fff" stroke-width="0"/>
    <path d="m791.75,107.85c-1.24,3.12-1.82,5.68-1.76,7.67.42.59.63,1.22.63,1.9,0,.85-.29,1.59-.85,2.22-.57.63-1.25.95-2.03.95-1.17,0-2.18-.72-3.03-2.15-.29-.62-.44-1.4-.44-2.34,0-.13.02-.34.05-.63v-.68c0-1.33-.47-2.29-1.42-2.88-.13.2-2.39,3.39-6.79,9.57-1.63,2.28-3.7,3.42-6.2,3.42-1.63,0-3.19-.52-4.69-1.56,1.92-.52,3.94-1.74,6.05-3.66.81-.52,2.44-2.36,4.88-5.52,2.38-3.03,4.33-5.75,5.86-8.15-.78.07-1.37.1-1.76.1-3.52,0-5.14-1.97-4.88-5.91.52.33,1.14.49,1.86.49,1.01,0,2.61-.41,4.81-1.22,2.2-.81,3.72-1.22,4.57-1.22,2.96,0,4.44.88,4.44,2.64,0,1.53-.96,2.96-2.88,4.3-.98,1.11-2.38,2.86-4.2,5.27,1.2.29,2.21.85,3.03,1.66.46.49.91.99,1.37,1.51.52-1.04,1.64-2.96,3.37-5.76Zm16.36.73c1.24.13,2.2.53,2.88,1.2.68.67,1.03,1.42,1.03,2.27,0,.91-.39,1.66-1.17,2.25s-1.87.81-3.27.68c-.88-.1-1.87-.29-2.98-.59-.94-.26-1.69-.39-2.25-.39-.59,0-1.25.1-2,.29v12.79c0,3.74-1.79,5.62-5.37,5.62-.68,0-1.45-.08-2.29-.24,1.11-.36,1.77-1.45,2-3.27v-32.96c0-1.79-.41-3.09-1.22-3.91-.2-.16-1.24-.78-3.12-1.86-1.6-.91-2.95-2.13-4.05-3.66.55.03,1.43-.03,2.64-.2,1.2-.16,2.16-.24,2.88-.24,2.18,0,4.39.62,6.64,1.86,1.86,1.04,2.78,2.38,2.78,4,0,.72-.29,2.05-.88,4v14.7c.88-.13,1.97-.59,3.27-1.37,1.14-.68,2.31-1.03,3.52-1.03.29,0,.62.02.98.05Z" fill="#fff" stroke-width="0"/>
  </g>
</svg>