<?xml version="1.0" encoding="UTF-8"?>
<svg id="Layer_1" data-name="Layer 1" xmlns="http://www.w3.org/2000/svg" xmlns:xlink="http://www.w3.org/1999/xlink" viewBox="0 0 1006.56 768">
  <defs>
    <linearGradient id="linear-gradient" x1="446.8" y1="1176.65" x2="590.93" y2="1563.85" gradientTransform="translate(-.02 1609.55) scale(1 -1)" gradientUnits="userSpaceOnUse">
      <stop offset="0" stop-color="#7e0901"/>
      <stop offset=".02" stop-color="#890901"/>
      <stop offset=".07" stop-color="#9f0901"/>
      <stop offset=".12" stop-color="#b00901"/>
      <stop offset=".19" stop-color="#bc0901"/>
      <stop offset=".29" stop-color="#c30901"/>
      <stop offset=".56" stop-color="#c50901"/>
      <stop offset=".75" stop-color="#c20901"/>
      <stop offset=".87" stop-color="#b90901"/>
      <stop offset=".93" stop-color="#b10901"/>
    </linearGradient>
    <linearGradient id="linear-gradient-2" x1="445.18" y1="1077.43" x2="569.81" y2="1077.43" gradientTransform="translate(-.02 1609.55) scale(1 -1)" gradientUnits="userSpaceOnUse">
      <stop offset="0" stop-color="#64591e"/>
      <stop offset=".56" stop-color="#bbb50b"/>
      <stop offset=".67" stop-color="#b8b20a"/>
      <stop offset=".76" stop-color="#b0a809"/>
      <stop offset=".83" stop-color="#a29807"/>
      <stop offset=".9" stop-color="#8e8205"/>
      <stop offset=".97" stop-color="#756501"/>
      <stop offset="1" stop-color="#665400"/>
    </linearGradient>
    <radialGradient id="radial-gradient" cx="506.3" cy="1146.03" fx="506.3" fy="1146.03" r="130.62" gradientTransform="translate(-.3 1608.9) scale(1 -1)" gradientUnits="userSpaceOnUse">
      <stop offset="0" stop-color="#bda900"/>
      <stop offset=".38" stop-color="#b9a300"/>
      <stop offset=".85" stop-color="#b09400"/>
      <stop offset="1" stop-color="#ac8e00"/>
    </radialGradient>
    <radialGradient id="radial-gradient-2" cx="508.1" cy="1092.3" fx="508.1" fy="1092.3" r="90.27" gradientTransform="translate(-.3 1608.9) scale(1 -1)" gradientUnits="userSpaceOnUse">
      <stop offset="0" stop-color="#9a900b"/>
      <stop offset=".21" stop-color="#968606"/>
      <stop offset=".62" stop-color="#917901"/>
      <stop offset="1" stop-color="#907500"/>
    </radialGradient>
    <linearGradient id="linear-gradient-3" x1="489.98" y1="1271.13" x2="582.84" y2="1391.43" gradientTransform="translate(-.02 1609.55) scale(1 -1)" gradientUnits="userSpaceOnUse">
      <stop offset="0" stop-color="#b90901" stop-opacity="0"/>
      <stop offset=".07" stop-color="#b60901" stop-opacity=".13"/>
      <stop offset=".41" stop-color="#a90901" stop-opacity=".75"/>
      <stop offset=".56" stop-color="#a50901"/>
      <stop offset=".66" stop-color="#a50901" stop-opacity=".98"/>
      <stop offset=".71" stop-color="#a50901" stop-opacity=".93"/>
      <stop offset=".76" stop-color="#a50901" stop-opacity=".85"/>
      <stop offset=".81" stop-color="#a50901" stop-opacity=".72"/>
      <stop offset=".85" stop-color="#a50901" stop-opacity=".56"/>
      <stop offset=".88" stop-color="#a50901" stop-opacity=".36"/>
      <stop offset=".92" stop-color="#a50901" stop-opacity=".13"/>
      <stop offset=".93" stop-color="#a60901" stop-opacity="0"/>
    </linearGradient>
    <linearGradient id="linear-gradient-4" x1="532.39" y1="1268.64" x2="611" y2="1370.49" gradientTransform="translate(-.02 1609.55) scale(1 -1)" gradientUnits="userSpaceOnUse">
      <stop offset="0" stop-color="#fff" stop-opacity="0"/>
      <stop offset=".08" stop-color="#fff" stop-opacity=".1"/>
      <stop offset=".19" stop-color="#fff" stop-opacity=".19"/>
      <stop offset=".3" stop-color="#fff" stop-opacity=".26"/>
      <stop offset=".41" stop-color="#fff" stop-opacity=".31"/>
      <stop offset=".55" stop-color="#fff" stop-opacity=".32"/>
      <stop offset=".62" stop-color="#fff" stop-opacity=".3"/>
      <stop offset=".72" stop-color="#fff" stop-opacity=".24"/>
      <stop offset=".82" stop-color="#fff" stop-opacity=".15"/>
      <stop offset=".93" stop-color="#fff" stop-opacity=".01"/>
      <stop offset=".93" stop-color="#fff" stop-opacity="0"/>
    </linearGradient>
    <linearGradient id="linear-gradient-5" x1="458.45" y1="1312.51" x2="534.78" y2="1411.41" xlink:href="#linear-gradient-4"/>
    <linearGradient id="linear-gradient-6" x1="464.09" y1="1186.2" x2="491.23" y2="1241.83" gradientTransform="translate(-.02 1609.55) scale(1 -1)" gradientUnits="userSpaceOnUse">
      <stop offset="0" stop-color="#883529" stop-opacity="0"/>
      <stop offset=".13" stop-color="#993529" stop-opacity=".27"/>
      <stop offset=".38" stop-color="#bb3529" stop-opacity=".79"/>
      <stop offset=".5" stop-color="#c93529"/>
      <stop offset=".55" stop-color="#c63529" stop-opacity=".96"/>
      <stop offset=".62" stop-color="#bf3529" stop-opacity=".85"/>
      <stop offset=".72" stop-color="#b33529" stop-opacity=".67"/>
      <stop offset=".83" stop-color="#a23529" stop-opacity=".41"/>
      <stop offset=".95" stop-color="#8e3529" stop-opacity=".1"/>
      <stop offset=".98" stop-color="#883529" stop-opacity="0"/>
    </linearGradient>
    <linearGradient id="linear-gradient-7" x1="522.09" y1="1181.9" x2="536.22" y2="1210.85" gradientTransform="translate(-.02 1609.55) scale(1 -1)" gradientUnits="userSpaceOnUse">
      <stop offset="0" stop-color="#883529" stop-opacity="0"/>
      <stop offset=".12" stop-color="#9f3529" stop-opacity=".33"/>
      <stop offset=".23" stop-color="#b33529" stop-opacity=".62"/>
      <stop offset=".33" stop-color="#c13529" stop-opacity=".82"/>
      <stop offset=".41" stop-color="#ca3529" stop-opacity=".95"/>
      <stop offset=".45" stop-color="#ce3529"/>
      <stop offset=".58" stop-color="#cd3529" stop-opacity=".99"/>
      <stop offset=".66" stop-color="#ca3529" stop-opacity=".95"/>
      <stop offset=".72" stop-color="#c53529" stop-opacity=".88"/>
      <stop offset=".78" stop-color="#be3529" stop-opacity=".78"/>
      <stop offset=".83" stop-color="#b53529" stop-opacity=".65"/>
      <stop offset=".88" stop-color="#aa3529" stop-opacity=".5"/>
      <stop offset=".92" stop-color="#9d3529" stop-opacity=".31"/>
      <stop offset=".96" stop-color="#8e3529" stop-opacity=".1"/>
      <stop offset=".98" stop-color="#883529" stop-opacity="0"/>
    </linearGradient>
    <linearGradient id="linear-gradient-8" x1="418.35" y1="1338.58" x2="577.89" y2="1555.21" gradientTransform="translate(-.02 1609.55) scale(1 -1)" gradientUnits="userSpaceOnUse">
      <stop offset="0" stop-color="#fff" stop-opacity="0"/>
      <stop offset=".08" stop-color="#fff" stop-opacity=".05"/>
      <stop offset=".23" stop-color="#fff" stop-opacity=".17"/>
      <stop offset=".43" stop-color="#fff" stop-opacity=".38"/>
      <stop offset=".45" stop-color="#fff" stop-opacity=".4"/>
      <stop offset=".49" stop-color="#fff" stop-opacity=".35"/>
      <stop offset=".64" stop-color="#fff" stop-opacity=".2"/>
      <stop offset=".78" stop-color="#fff" stop-opacity=".09"/>
      <stop offset=".89" stop-color="#fff" stop-opacity=".02"/>
      <stop offset=".98" stop-color="#fff" stop-opacity="0"/>
    </linearGradient>
    <linearGradient id="linear-gradient-9" x1="343.56" y1="1319.15" x2="514.34" y2="1504.31" gradientTransform="translate(-.02 1609.55) scale(1 -1)" gradientUnits="userSpaceOnUse">
      <stop offset="0" stop-color="#500901" stop-opacity="0"/>
      <stop offset=".1" stop-color="#660901" stop-opacity=".19"/>
      <stop offset=".24" stop-color="#840901" stop-opacity=".46"/>
      <stop offset=".38" stop-color="#990901" stop-opacity=".64"/>
      <stop offset=".48" stop-color="#a70901" stop-opacity=".76"/>
      <stop offset=".56" stop-color="#ac0901" stop-opacity=".8"/>
      <stop offset=".62" stop-color="#a60901" stop-opacity=".75"/>
      <stop offset=".71" stop-color="#960901" stop-opacity=".61"/>
      <stop offset=".82" stop-color="#7c0901" stop-opacity=".38"/>
      <stop offset=".96" stop-color="#580901" stop-opacity=".07"/>
      <stop offset=".99" stop-color="#500901" stop-opacity="0"/>
    </linearGradient>
    <linearGradient id="linear-gradient-10" x1="367.48" y1="1358.62" x2="493.38" y2="1503.57" gradientTransform="translate(-.02 1609.55) scale(1 -1)" gradientUnits="userSpaceOnUse">
      <stop offset="0" stop-color="#fff" stop-opacity="0"/>
      <stop offset=".08" stop-color="#fff" stop-opacity=".06"/>
      <stop offset=".2" stop-color="#fff" stop-opacity=".14"/>
      <stop offset=".33" stop-color="#fff" stop-opacity=".19"/>
      <stop offset=".47" stop-color="#fff" stop-opacity=".2"/>
      <stop offset=".6" stop-color="#fff" stop-opacity=".17"/>
      <stop offset=".82" stop-color="#fff" stop-opacity=".07"/>
      <stop offset=".95" stop-color="#fff" stop-opacity="0"/>
    </linearGradient>
    <linearGradient id="linear-gradient-11" x1="570.67" y1="1229.21" x2="650.99" y2="1350.87" gradientTransform="translate(-.02 1609.55) scale(1 -1)" gradientUnits="userSpaceOnUse">
      <stop offset="0" stop-color="#500901" stop-opacity="0"/>
      <stop offset=".19" stop-color="#640901" stop-opacity=".18"/>
      <stop offset=".41" stop-color="#750901" stop-opacity=".34"/>
      <stop offset=".56" stop-color="#7c0901" stop-opacity=".4"/>
      <stop offset=".68" stop-color="#740901" stop-opacity=".33"/>
      <stop offset=".87" stop-color="#5f0901" stop-opacity=".14"/>
      <stop offset=".99" stop-color="#500901" stop-opacity="0"/>
    </linearGradient>
    <linearGradient id="linear-gradient-12" x1="602.62" y1="1214.27" x2="677.54" y2="1345.84" gradientTransform="translate(-.02 1609.55) scale(1 -1)" gradientUnits="userSpaceOnUse">
      <stop offset=".11" stop-color="#ffc2a9" stop-opacity="0"/>
      <stop offset=".19" stop-color="#ffc5b1" stop-opacity=".12"/>
      <stop offset=".29" stop-color="#ffc9b9" stop-opacity=".24"/>
      <stop offset=".39" stop-color="#ffccc0" stop-opacity=".33"/>
      <stop offset=".48" stop-color="#ffcec3" stop-opacity=".38"/>
      <stop offset=".56" stop-color="#ffcfc5" stop-opacity=".4"/>
      <stop offset=".82" stop-color="#ffc5b1" stop-opacity=".12"/>
      <stop offset=".95" stop-color="#ffc2a9" stop-opacity="0"/>
    </linearGradient>
  </defs>
  <path d="m625.06,432.63s11.08-25.65,23.68-48.75c12.6-23.1,25.2-57.6,24.9-84-.3-26.4,9-50.4-37.5-84.9-46.5-34.5-81.3-50.1-63.6-96.3,17.7-46.2,50.7-72,20.1-104.1-30.6-32.1-31.8,44.4-102.9,46.2-71.1,1.8-76.05,21.15-79.95,74.55-3.9,53.4-35.85,64.95-35.85,64.95,0,0-54.9,21.26-46.35,80.83,8.55,59.57,5.85,87.47,41.4,112.22,35.55,24.75,30.75,39.3,30.75,39.3h225.33Z" fill="url(#linear-gradient)" stroke-width="0"/>
  <path d="m555.03,531.43c5.5,5.43,10.54,11.81,14.76,17.71v.98h-124.64v-.99c4.22-5.89,9.25-12.28,14.76-17.69,14.86-14.62,36.83-17.32,47.55-17.32s32.7,2.7,47.56,17.32" fill="url(#linear-gradient-2)" stroke-width="0"/>
  <path d="m640.08,433.01v25.09c0,12.16-4.15,20.9-9.16,27.03-38.67,8.57-88.91,11.37-123.45,11.37s-84.8-2.8-123.45-11.37c-5-6.13-9.15-14.87-9.15-27.03v-25.09h265.21Z" fill="url(#radial-gradient)" stroke-width="0"/>
  <path d="m630.92,485.13c-7.59,9.31-17.16,12.58-17.16,12.58l-43.97,20.1v31.71c-4.22-5.89-9.27-12.28-14.76-17.71-14.86-14.62-36.83-17.32-47.56-17.32s-32.69,2.7-47.55,17.32c-5.51,5.42-10.54,11.8-14.76,17.69v-31.7l-43.97-20.1s-9.57-3.27-17.17-12.58c38.65,8.57,88.91,11.37,123.45,11.37s84.79-2.8,123.45-11.37h0Z" fill="url(#radial-gradient-2)" stroke-width="0"/>
  <path d="m483.65,359.63s18.45-59.85,49.95-97.65c31.5-37.8,52.2-59.4,52.2-59.4,0,0,.9,24.3-35.55,76.5-36.45,52.2-66.6,80.55-66.6,80.55" fill="url(#linear-gradient-3)" stroke-width="0"/>
  <path d="m502.31,340.02s44.07,31.71,44.37,30.81c.3-.9,54.9-70.5,71.4-105.61,16.5-35.1,10.8-40.5-4.2-38.4-15,2.1-30.92-4.27-39.31,11.54-8.38,15.81-16.17,27.72-24.32,40.72-8.15,12.99-47.94,60.94-47.94,60.94h0Z" fill="url(#linear-gradient-4)" stroke-width="0"/>
  <path d="m448.12,232.4c33-28.5,89.67-53.36,89.67-53.36l39.16,33.06-43.35,49.87s-12.78,15.39-21.08,31.19c-2.6,4.94-8.07,15.17-12.72,25.12-4.03,8.62-7.46,17.44-7.46,17.44l-22.04-7.87-45.6-36-10.2-20.49,33.64-38.95h0Z" fill="url(#linear-gradient-5)" stroke-width="0"/>
  <path d="m465.02,433.01c-6.9-15.31-32.1-31.51-10.65-47.26,21.45-15.75,60.2-53.15,40.8,10.2-4.5,14.7-4.5,37.06-4.5,37.06h-25.65Z" fill="url(#linear-gradient-6)" stroke-width="0"/>
  <path d="m513.17,433.01c-3.08-16.96-2.47-29.56,6.83-34.81,23.17-13.08,24.9-.6,22.2,13.2-2.34,11.95-3.37,21.61-3.37,21.61h-25.65Z" fill="url(#linear-gradient-7)" stroke-width="0"/>
  <path d="m554.17,42.5s-39.91,45-45.01,63.3c-5.1,18.3-2.12,41.4-25.51,68.1-23.39,26.7-79.49,63-79.49,63l-5.4,38.1,15.73-3.65,33.6-38.91s23.55-18.9,43.66-29.87c20.12-10.97,31.81-19.37,40.81-33.77,9-14.4,14.7-48.6,14.7-48.6,0,0-16.2,38.1-38.7,47.7-22.5,9.6.9-12.6,10.8-27.9,9.9-15.3-3.3-38.7,12.9-56.4,16.2-17.7,21.91-41.1,21.91-41.1" fill="url(#linear-gradient-8)" stroke-width="0"/>
  <path d="m354.72,309.96c13.05-25.88,49.43-73.05,49.43-73.05,0,0,26.52-17.6,40.18-28.36,13.66-10.76,37.66-29.24,45.37-42.27,7.71-13.02,15.33-23.24,17.58-51.88,2.25-28.63-2.25-34.93-2.25-34.93,0,0-6.15,37.65-22.8,66.68-16.65,29.03-92.7,86.18-92.7,86.18,0,0-34.2,38.74-50.63,48.77-16.43,10.03,15.83,28.86,15.83,28.86h0Z" fill="url(#linear-gradient-9)" stroke-width="0"/>
  <path d="m403.7,199.78c46.2-36.3,60.6-63.3,68.1-93.3,7.5-30,26.76,0,26.76,0,0,0-9.3,35.82-27.09,54.01-7.02,7.18-19.43,20.22-34.09,32.97-22.51,19.56-47.86,38.88-47.86,38.88l-25.81,27.37-17.92-6.82,29.7-33,28.2-20.1Z" fill="url(#linear-gradient-10)" stroke-width="0"/>
  <path d="m546.68,370.82l-7.67,19.61s40.2,6.21,42.3,6.25c2.1.05,56.7-56.96,64.5-87.26,7.8-30.3,15.9-60,15.9-60l-23.7-20.7-23.02,42.63-24.03,38.6-30.06,41.78-14.23,19.09h0Z" fill="url(#linear-gradient-11)" stroke-width="0"/>
  <path d="m595.11,383.14s28.82-31.88,37.72-47.42c8.9-15.54,17.87-38.92,22.01-60.71,4.14-21.79,15.24-28.39,15.24-28.39,0,0,13.8,19.2,0,59.7-13.8,40.5-50.4,82.2-50.4,82.2,0,0-33.24,19.8-33.87,18.6-.63-1.2,9.31-23.99,9.31-23.99h0Z" fill="url(#linear-gradient-12)" stroke-width="0"/>
  <path d="m781.44,687.78c-.12.06-.23.12-.35.19l.02.02c.11-.06.22-.14.33-.2Z" fill="#fff" stroke="#000" stroke-miterlimit="10"/>
  <path d="m131.33,639.5c-.3-.26-.58-.53-.88-.79.52.51.81.79.81.79h.07Z" fill="#fff" stroke="#000" stroke-miterlimit="10"/>
  <g>
    <g>
      <polygon points="174.89 511.92 174.89 495.72 117.41 495.72 117.41 476.12 174.89 476.12 174.89 455.32 117.41 455.32 117.41 435.72 174.89 435.72 174.89 424.52 201.19 424.52 201.19 511.92 174.89 511.92" fill="#fff" stroke-width="0"/>
      <path d="m200.69,425.02v86.4h-25.3v-16.2h-57.48v-18.6h57.48v-21.8h-57.48v-18.6h57.48v-11.2h25.3m1-1h-27.3v11.2h-57.48v20.6h57.48v19.8h-57.48v20.6h57.48v16.2h27.3v-88.4h0Z" stroke-width="0"/>
    </g>
    <g>
      <path d="m0,509.32v-80.6h14.7c19.26-33.91,50.81-64.98,93.79-92.34,42.7-27.18,94.32-49.22,153.42-65.5l.63-.17v20.35l-.33.12c-78.53,28.63-140.01,71.93-173.14,121.92-.19.28-.36.56-.54.85-.15.24-.3.47-.45.71-2.22,3.74-4.84,8.35-7.99,14.07h28.26v80.6H0Zm82.54-19v-41.2H26.29v41.2h56.24Z" fill="#fff" stroke-width="0"/>
      <path d="m262.03,271.36v19.34c-78.43,28.59-139.78,71.39-173.38,122.12-.34.52-.65,1.04-.99,1.56-2.64,4.44-5.5,9.54-8.42,14.84h28.6v79.6H.49v-79.6h14.49c38.76-68.51,128.94-125.32,247.05-157.86M25.79,490.82h57.24v-42.2H25.79v42.2m237.24-220.78l-1.27.35c-59.15,16.3-110.81,38.36-153.55,65.56-42.94,27.34-74.5,58.37-93.81,92.26H-.51v81.6h109.35v-81.6h-27.91c2.97-5.37,5.46-9.74,7.59-13.33.13-.21.28-.45.43-.69.17-.28.35-.56.53-.83,33.07-49.91,94.47-93.14,172.89-121.73l.66-.24v-21.36h0ZM26.79,449.62h55.24v40.2H26.79v-40.2h0Z" stroke-width="0"/>
    </g>
    <g>
      <path d="m775.4,518.3v-20.03h66.32v-39.09h26.3v39.09h76.83c8.29-14.43,14.05-31.85,17.15-51.8h-176.04v-20.44h117.22c-30.92-55.72-95.09-103.59-180.81-134.85l-.33-.12v-20.35l.63.17c58.32,16.06,109.39,37.74,151.79,64.44,42.67,26.86,74.27,57.38,93.94,90.71h19.75v.5c0,12.68-1.19,24.84-3.54,36.16-2.73,13.16-7.04,25.13-12.82,35.59h34.78v20.03h-231.17Z" fill="#fff" stroke-width="0"/>
      <path d="m722.54,271.36c116.56,32.11,205.99,87.85,245.57,155.16h19.54c0,12.92-1.22,24.91-3.52,36.05-2.76,13.32-7.11,25.42-13.18,36.19h35.13v19.03h-230.17v-19.03h66.32v-39.09h25.3v39.09h77.62c8.51-14.74,14.33-32.34,17.44-52.8h-176.13v-19.44h117.57c-31.12-56.7-96.11-104.69-181.49-135.82v-19.34m-1-1.31v21.36l.66.24c85.23,31.08,149.12,78.58,180.13,133.88h-116.87v21.44h175.96c-3.09,19.53-8.75,36.62-16.85,50.8h-76.04v-39.09h-27.3v39.09h-66.32v21.03h232.17v-21.03h-34.43c5.6-10.33,9.79-22.09,12.46-34.99,2.35-11.35,3.55-23.55,3.55-36.26v-1h-19.97c-19.71-33.3-51.32-63.79-93.95-90.63-42.44-26.72-93.55-48.42-151.92-64.5l-1.27-.35h0Z" stroke-width="0"/>
    </g>
    <g>
      <path d="m385.98,761.8c-11.44-1.31-22.97-2.87-34.31-4.62-132.51-20.52-243.97-69.8-305.81-135.2-3.41-3.6-6.84-7.48-10.46-11.85H5.4v-56h169.49v-13.8H1.22v-19h199.97v51.2H31.7v17.6h173.42v20h-102.67c3.91,3.94,7.69,7.73,11.12,11.15,8.77,8.75,15.41,15.28,17.24,17.07l.68.67.17.1c53.41,46.81,133.22,82.23,224.77,99.76l55.34-189.27h185.56l53.93,184.42c47.61-10.9,91.21-26.54,129.61-46.5l.32-.17c22.22-13.28,59.43-43.28,86.73-66.1,3.55-2.97,6.93-5.81,10.2-8.58-57.72-1.67-87-14.85-87-39.2,0-13.26,8.5-23.33,25.25-29.94,16.6-6.54,41.83-9.86,74.98-9.86,10.22,0,20.1.35,29.37,1.04,29.91,2.24,50.61,8.29,61.52,18,6.37,5.66,9.59,12.64,9.59,20.75,0,16.61-13.68,28.1-40.67,34.15-4.46,5.54-8.42,10.1-12.45,14.36-28.82,30.48-68.05,57.41-116.61,80.02-48.82,22.74-104.61,39.97-165.8,51.21h-.04s-.06,0-.06,0c-11.05,2.04-22.4,3.9-33.64,5.49l-.46.07-3.57-17.2-.09-.4-33.12-159.52h-161.5l-33.91,163.3-3.49,16.84h-.42Zm505.38-207.48c-48.24,0-72.7,6.24-72.7,18.53s24.46,18.74,72.7,18.74,72.7-6.3,72.7-18.74c0-2.78-1.32-5.3-3.92-7.5-6.63-5.61-21.85-9.12-45.24-10.43-7.19-.4-15.11-.61-23.54-.61Z" fill="#fff" stroke-width="0"/>
      <path d="m200.69,521.82v50.2H31.2v18.6h173.42v19h-103.37c4.21,4.25,8.29,8.34,11.96,12.01,8.49,8.48,15.05,14.92,17.24,17.08.52.51.8.79.8.79h.07c53.05,46.5,132.18,82.17,225.45,99.96l55.36-189.34h184.81l53.95,184.51c48.27-11.02,92.25-26.93,130.19-46.65l.02.02c.11-.06.22-.14.33-.2,21.84-13.05,57.95-42.02,86.8-66.15,3.91-3.27,7.62-6.4,11.2-9.43-58.54-1.5-87.82-14.41-87.82-38.74,0-26.2,33.24-39.3,99.73-39.3,10.66,0,20.37.37,29.33,1.04,29.87,2.24,50.32,8.18,61.22,17.87,6.26,5.57,9.42,12.35,9.42,20.38,0,16.48-13.52,27.7-40.45,33.7-3.94,4.89-8.06,9.73-12.53,14.46-57.64,60.96-158.86,108.44-282.14,131.09h-.01c-11.2,2.06-22.44,3.9-33.71,5.5l-3.56-17.14h-.01l-33.2-159.92h-162.31l-33.99,163.7-3.41,16.44h-.01c-11.44-1.32-22.86-2.86-34.24-4.62-133.83-20.73-244.27-70.28-305.52-135.05-3.73-3.94-7.23-7.95-10.59-12.01H5.9v-55h169.49v-14.8H1.72v-18h198.97m690.66,70.27c48.8,0,73.2-6.41,73.2-19.24,0-2.98-1.4-5.6-4.1-7.88-6.74-5.71-21.92-9.23-45.54-10.55-7.11-.4-14.94-.61-23.57-.61-48.8,0-73.2,6.34-73.2,19.03s24.4,19.24,73.2,19.24m-689.66-71.27H.72v20h173.67v12.8H4.9v57h30.27c3.58,4.3,6.96,8.13,10.34,11.7,61.91,65.48,173.47,114.81,306.09,135.35,11.34,1.75,22.87,3.31,34.28,4.62h.06s.06,0,.06,0h.81l.18-.8,3.41-16.44,33.83-162.9h160.69l33.04,159.12.17.8h.01l3.39,16.34.19.92.93-.13c11.21-1.59,22.53-3.44,33.67-5.49l.1-.02c61.24-11.25,117.07-28.49,165.93-51.25,48.61-22.64,87.9-49.6,116.76-80.13,4.01-4.24,7.94-8.77,12.37-14.25,27.14-6.12,40.89-17.76,40.89-34.6,0-8.26-3.28-15.37-9.76-21.13-10.99-9.78-31.79-15.87-61.81-18.12-9.27-.69-19.17-1.05-29.41-1.05-33.21,0-58.5,3.33-75.17,9.89-16.96,6.68-25.57,16.91-25.57,30.4,0,12.54,7.59,22.24,22.55,28.84,14.25,6.28,35.65,9.92,63.62,10.82-3.39,2.87-6.36,5.36-9.2,7.74-27.29,22.82-64.48,52.8-86.67,66.06l-.12.07-.18.08c-38.24,19.88-81.65,35.47-129.03,46.36l-53.69-183.6-.21-.72h-186.31l-.21.72-55.1,188.47c-91.28-17.54-170.83-52.88-224.08-99.56l-.28-.25h-.04l-.51-.5c-2.39-2.35-8.86-8.71-17.24-17.07-3.18-3.18-6.7-6.71-10.27-10.3h101.97v-21H32.2v-16.6h169.49v-52.2h0Zm689.66,70.27c-47.91,0-72.2-6.14-72.2-18.24s24.29-18.03,72.2-18.03c8.43,0,16.34.2,23.52.6,23.28,1.3,38.4,4.77,44.95,10.31,2.52,2.13,3.74,4.46,3.74,7.12,0,12.1-24.29,18.24-72.2,18.24h0Z" stroke-width="0"/>
    </g>
  </g>
</svg>