<?xml version="1.0" encoding="UTF-8"?>
<svg id="Layer_1" data-name="Layer 1" xmlns="http://www.w3.org/2000/svg" xmlns:xlink="http://www.w3.org/1999/xlink" viewBox="0 0 1006.56 768">
  <defs>
    <linearGradient id="linear-gradient" x1="453.82" y1="334.23" x2="600.22" y2="727.53" gradientTransform="translate(0 767.89) scale(1 -1)" gradientUnits="userSpaceOnUse">
      <stop offset="0" stop-color="#7e0901"/>
      <stop offset=".02" stop-color="#890901"/>
      <stop offset=".07" stop-color="#9f0901"/>
      <stop offset=".12" stop-color="#b00901"/>
      <stop offset=".19" stop-color="#bc0901"/>
      <stop offset=".29" stop-color="#c30901"/>
      <stop offset=".56" stop-color="#c50901"/>
      <stop offset=".75" stop-color="#c20901"/>
      <stop offset=".87" stop-color="#b90901"/>
      <stop offset=".93" stop-color="#b10901"/>
    </linearGradient>
    <linearGradient id="linear-gradient-2" x1="452.17" y1="233.44" x2="578.77" y2="233.44" gradientTransform="translate(0 767.89) scale(1 -1)" gradientUnits="userSpaceOnUse">
      <stop offset="0" stop-color="#64591e"/>
      <stop offset=".56" stop-color="#bbb50b"/>
      <stop offset=".67" stop-color="#b8b20a"/>
      <stop offset=".76" stop-color="#b0a809"/>
      <stop offset=".83" stop-color="#a29807"/>
      <stop offset=".9" stop-color="#8e8205"/>
      <stop offset=".97" stop-color="#756501"/>
      <stop offset="1" stop-color="#665400"/>
    </linearGradient>
    <radialGradient id="radial-gradient" cx="513.64" cy="303.01" fx="513.64" fy="303.01" r="132.59" gradientTransform="translate(0 767.89) scale(1 -1)" gradientUnits="userSpaceOnUse">
      <stop offset="0" stop-color="#bda900"/>
      <stop offset=".38" stop-color="#b9a300"/>
      <stop offset=".85" stop-color="#b09400"/>
      <stop offset="1" stop-color="#ac8e00"/>
    </radialGradient>
    <radialGradient id="radial-gradient-2" cx="515.46" cy="248.47" fx="515.46" fy="248.47" r="91.64" gradientTransform="translate(0 767.89) scale(1 -1)" gradientUnits="userSpaceOnUse">
      <stop offset="0" stop-color="#9a900b"/>
      <stop offset=".21" stop-color="#968606"/>
      <stop offset=".62" stop-color="#917901"/>
      <stop offset="1" stop-color="#907500"/>
    </radialGradient>
    <linearGradient id="linear-gradient-3" x1="497.68" y1="430.19" x2="592" y2="552.39" gradientTransform="translate(0 767.89) scale(1 -1)" gradientUnits="userSpaceOnUse">
      <stop offset="0" stop-color="#b90901" stop-opacity="0"/>
      <stop offset=".07" stop-color="#b60901" stop-opacity=".13"/>
      <stop offset=".41" stop-color="#a90901" stop-opacity=".75"/>
      <stop offset=".56" stop-color="#a50901"/>
      <stop offset=".66" stop-color="#a50901" stop-opacity=".98"/>
      <stop offset=".71" stop-color="#a50901" stop-opacity=".93"/>
      <stop offset=".76" stop-color="#a50901" stop-opacity=".85"/>
      <stop offset=".81" stop-color="#a50901" stop-opacity=".72"/>
      <stop offset=".85" stop-color="#a50901" stop-opacity=".56"/>
      <stop offset=".88" stop-color="#a50901" stop-opacity=".36"/>
      <stop offset=".92" stop-color="#a50901" stop-opacity=".13"/>
      <stop offset=".93" stop-color="#a60901" stop-opacity="0"/>
    </linearGradient>
    <linearGradient id="linear-gradient-4" x1="540.75" y1="427.66" x2="620.6" y2="531.12" gradientTransform="translate(0 767.89) scale(1 -1)" gradientUnits="userSpaceOnUse">
      <stop offset="0" stop-color="#fff" stop-opacity="0"/>
      <stop offset=".08" stop-color="#fff" stop-opacity=".1"/>
      <stop offset=".19" stop-color="#fff" stop-opacity=".19"/>
      <stop offset=".3" stop-color="#fff" stop-opacity=".26"/>
      <stop offset=".41" stop-color="#fff" stop-opacity=".31"/>
      <stop offset=".55" stop-color="#fff" stop-opacity=".32"/>
      <stop offset=".62" stop-color="#fff" stop-opacity=".3"/>
      <stop offset=".72" stop-color="#fff" stop-opacity=".24"/>
      <stop offset=".82" stop-color="#fff" stop-opacity=".15"/>
      <stop offset=".93" stop-color="#fff" stop-opacity=".01"/>
      <stop offset=".93" stop-color="#fff" stop-opacity="0"/>
    </linearGradient>
    <linearGradient id="linear-gradient-5" x1="465.65" y1="472.23" x2="543.18" y2="572.68" gradientTransform="translate(0 767.89) scale(1 -1)" gradientUnits="userSpaceOnUse">
      <stop offset="0" stop-color="#fff" stop-opacity="0"/>
      <stop offset=".08" stop-color="#fff" stop-opacity=".1"/>
      <stop offset=".19" stop-color="#fff" stop-opacity=".19"/>
      <stop offset=".3" stop-color="#fff" stop-opacity=".26"/>
      <stop offset=".41" stop-color="#fff" stop-opacity=".31"/>
      <stop offset=".55" stop-color="#fff" stop-opacity=".32"/>
      <stop offset=".62" stop-color="#fff" stop-opacity=".3"/>
      <stop offset=".72" stop-color="#fff" stop-opacity=".24"/>
      <stop offset=".82" stop-color="#fff" stop-opacity=".15"/>
      <stop offset=".93" stop-color="#fff" stop-opacity=".01"/>
      <stop offset=".93" stop-color="#fff" stop-opacity="0"/>
    </linearGradient>
    <linearGradient id="linear-gradient-6" x1="471.37" y1="343.93" x2="498.94" y2="400.43" gradientTransform="translate(0 767.89) scale(1 -1)" gradientUnits="userSpaceOnUse">
      <stop offset="0" stop-color="#883529" stop-opacity="0"/>
      <stop offset=".13" stop-color="#993529" stop-opacity=".27"/>
      <stop offset=".38" stop-color="#bb3529" stop-opacity=".79"/>
      <stop offset=".5" stop-color="#c93529"/>
      <stop offset=".55" stop-color="#c63529" stop-opacity=".96"/>
      <stop offset=".62" stop-color="#bf3529" stop-opacity=".85"/>
      <stop offset=".72" stop-color="#b33529" stop-opacity=".67"/>
      <stop offset=".83" stop-color="#a23529" stop-opacity=".41"/>
      <stop offset=".95" stop-color="#8e3529" stop-opacity=".1"/>
      <stop offset=".98" stop-color="#883529" stop-opacity="0"/>
    </linearGradient>
    <linearGradient id="linear-gradient-7" x1="530.29" y1="339.55" x2="544.64" y2="368.96" gradientTransform="translate(0 767.89) scale(1 -1)" gradientUnits="userSpaceOnUse">
      <stop offset="0" stop-color="#883529" stop-opacity="0"/>
      <stop offset=".12" stop-color="#9f3529" stop-opacity=".33"/>
      <stop offset=".23" stop-color="#b33529" stop-opacity=".62"/>
      <stop offset=".33" stop-color="#c13529" stop-opacity=".82"/>
      <stop offset=".41" stop-color="#ca3529" stop-opacity=".95"/>
      <stop offset=".45" stop-color="#ce3529"/>
      <stop offset=".58" stop-color="#cd3529" stop-opacity=".99"/>
      <stop offset=".66" stop-color="#ca3529" stop-opacity=".95"/>
      <stop offset=".72" stop-color="#c53529" stop-opacity=".88"/>
      <stop offset=".78" stop-color="#be3529" stop-opacity=".78"/>
      <stop offset=".83" stop-color="#b53529" stop-opacity=".65"/>
      <stop offset=".88" stop-color="#aa3529" stop-opacity=".5"/>
      <stop offset=".92" stop-color="#9d3529" stop-opacity=".31"/>
      <stop offset=".96" stop-color="#8e3529" stop-opacity=".1"/>
      <stop offset=".98" stop-color="#883529" stop-opacity="0"/>
    </linearGradient>
    <linearGradient id="linear-gradient-8" x1="424.92" y1="498.71" x2="586.97" y2="718.76" gradientTransform="translate(0 767.89) scale(1 -1)" gradientUnits="userSpaceOnUse">
      <stop offset="0" stop-color="#fff" stop-opacity="0"/>
      <stop offset=".08" stop-color="#fff" stop-opacity=".05"/>
      <stop offset=".23" stop-color="#fff" stop-opacity=".17"/>
      <stop offset=".43" stop-color="#fff" stop-opacity=".38"/>
      <stop offset=".45" stop-color="#fff" stop-opacity=".4"/>
      <stop offset=".49" stop-color="#fff" stop-opacity=".35"/>
      <stop offset=".64" stop-color="#fff" stop-opacity=".2"/>
      <stop offset=".78" stop-color="#fff" stop-opacity=".09"/>
      <stop offset=".89" stop-color="#fff" stop-opacity=".02"/>
      <stop offset=".98" stop-color="#fff" stop-opacity="0"/>
    </linearGradient>
    <linearGradient id="linear-gradient-9" x1="348.95" y1="478.97" x2="522.41" y2="667.05" gradientTransform="translate(0 767.89) scale(1 -1)" gradientUnits="userSpaceOnUse">
      <stop offset="0" stop-color="#500901" stop-opacity="0"/>
      <stop offset=".1" stop-color="#660901" stop-opacity=".19"/>
      <stop offset=".24" stop-color="#840901" stop-opacity=".46"/>
      <stop offset=".38" stop-color="#990901" stop-opacity=".64"/>
      <stop offset=".48" stop-color="#a70901" stop-opacity=".76"/>
      <stop offset=".56" stop-color="#ac0901" stop-opacity=".8"/>
      <stop offset=".62" stop-color="#a60901" stop-opacity=".75"/>
      <stop offset=".71" stop-color="#960901" stop-opacity=".61"/>
      <stop offset=".82" stop-color="#7c0901" stop-opacity=".38"/>
      <stop offset=".96" stop-color="#580901" stop-opacity=".07"/>
      <stop offset=".99" stop-color="#500901" stop-opacity="0"/>
    </linearGradient>
    <linearGradient id="linear-gradient-10" x1="373.25" y1="519.06" x2="501.13" y2="666.3" gradientTransform="translate(0 767.89) scale(1 -1)" gradientUnits="userSpaceOnUse">
      <stop offset="0" stop-color="#fff" stop-opacity="0"/>
      <stop offset=".08" stop-color="#fff" stop-opacity=".06"/>
      <stop offset=".2" stop-color="#fff" stop-opacity=".14"/>
      <stop offset=".33" stop-color="#fff" stop-opacity=".19"/>
      <stop offset=".47" stop-color="#fff" stop-opacity=".2"/>
      <stop offset=".6" stop-color="#fff" stop-opacity=".17"/>
      <stop offset=".82" stop-color="#fff" stop-opacity=".07"/>
      <stop offset=".95" stop-color="#fff" stop-opacity="0"/>
    </linearGradient>
    <linearGradient id="linear-gradient-11" x1="579.63" y1="387.62" x2="661.23" y2="511.19" gradientTransform="translate(0 767.89) scale(1 -1)" gradientUnits="userSpaceOnUse">
      <stop offset="0" stop-color="#500901" stop-opacity="0"/>
      <stop offset=".19" stop-color="#640901" stop-opacity=".18"/>
      <stop offset=".41" stop-color="#750901" stop-opacity=".34"/>
      <stop offset=".56" stop-color="#7c0901" stop-opacity=".4"/>
      <stop offset=".68" stop-color="#740901" stop-opacity=".33"/>
      <stop offset=".87" stop-color="#5f0901" stop-opacity=".14"/>
      <stop offset=".99" stop-color="#500901" stop-opacity="0"/>
    </linearGradient>
    <linearGradient id="linear-gradient-12" x1="612.09" y1="372.44" x2="688.19" y2="506.08" gradientTransform="translate(0 767.89) scale(1 -1)" gradientUnits="userSpaceOnUse">
      <stop offset=".11" stop-color="#ffc2a9" stop-opacity="0"/>
      <stop offset=".19" stop-color="#ffc5b1" stop-opacity=".12"/>
      <stop offset=".29" stop-color="#ffc9b9" stop-opacity=".24"/>
      <stop offset=".39" stop-color="#ffccc0" stop-opacity=".33"/>
      <stop offset=".48" stop-color="#ffcec3" stop-opacity=".38"/>
      <stop offset=".56" stop-color="#ffcfc5" stop-opacity=".4"/>
      <stop offset=".82" stop-color="#ffc5b1" stop-opacity=".12"/>
      <stop offset=".95" stop-color="#ffc2a9" stop-opacity="0"/>
    </linearGradient>
  </defs>
  <path d="m634.91,433.39s11.25-26.06,24.05-49.52c12.8-23.46,25.6-58.51,25.29-85.33-.3-26.82,9.14-51.2-38.09-86.24s-82.59-50.89-64.61-97.82c17.98-46.93,51.5-73.14,20.42-105.75s-32.3,45.1-104.53,46.93-77.25,21.48-81.21,75.73-36.42,65.98-36.42,65.98c0,0-55.77,21.6-47.08,82.11,8.68,60.51,5.94,88.85,42.05,113.99,36.11,25.14,31.24,39.92,31.24,39.92h228.89Z" fill="url(#linear-gradient)" stroke-width="0"/>
  <path d="m1006.07,506.38c0,10.58-1.17,21.02-3.44,31.27s-5.63,20.31-10.04,30.17h-67.57c4.41-9.84,7.82-19.91,10.16-30.17,2.55-11.03,3.84-22.31,3.84-33.63,0-1.03-.01-2.07-.03-3.09h-79.34v-30.16h75.64c-17.3-76.45-93.47-142.2-201.35-181.54v-19.65c142.76,39.32,245.53,113.53,267.67,201.19,2.52,9.87,3.98,19.98,4.36,30.16.08,1.82.12,3.64.12,5.46h0Zm-32.92,94.92c-5.94,8.23-12.62,16.26-20.02,24.08-58.55,61.92-161.37,110.15-286.59,133.16h-.01c-11.38,2.1-22.79,3.96-34.25,5.59l-3.61-17.41h-.01l-33.73-162.44h-164.87l-34.53,166.28-3.46,16.7h-.01c-11.62-1.34-23.22-2.9-34.78-4.69-135.94-21.05-248.13-71.38-310.34-137.18-9.21-9.73-17.32-19.8-24.25-30.17h84.76v-40.22h46.7v40.22h108.64v30.17H114.42c52.94,56.09,141.42,99.36,247.97,119.68l56.23-192.33h187.72l54.8,187.42c96.04-21.92,175.5-62.85,224.5-114.77h-151.73v-52.27h54.32v28.19h184.9ZM78.29,433.39h184.51v30.17h-108.64s-2.14,23.16,28.03,40.53c30.17,17.37,78.62,13.41,78.62,13.41v27.73h-35.96c-59.13,0-94.06-34.13-94.06-34.13,0,0-23.57,23.03-64.77,31.25-8.94,1.79-18.73,2.88-29.27,2.88H.8v-27.73s32.21,2.63,60.46-5.82c6.4-1.9,12.59-4.38,18.16-7.59,30.17-17.37,28.03-40.53,28.03-40.53H.49c3.13-10.26,7.38-20.33,12.67-30.17,38.25-71.15,131.02-130.2,252.99-163.81v19.65c-89.85,32.76-157.71,83.84-187.87,144.16h0Z" fill="#fff" stroke="#000" stroke-miterlimit="10"/>
  <path d="m821.01,433.39v15.08c0,16.68,2.97,39.92,21.71,53.86,18.74,13.94,41.37,25.14,41.37,25.14l-28.34,19.2s-17.6-5.26-32.23-13.94-27.2-22.17-27.2-22.17c0,0-12.57,13.49-27.2,22.17s-32.23,13.94-32.23,13.94l-28.34-19.2s22.63-11.2,41.37-25.14,21.71-37.18,21.71-53.86v-15.08h49.37Z" fill="#fff" stroke="#000" stroke-miterlimit="10"/>
  <path d="m563.77,533.75c5.59,5.52,10.71,12,15,17.98v.99h-126.6v-1c4.29-5.99,9.4-12.47,15-17.97,15.09-14.85,37.41-17.59,48.3-17.59s33.22,2.74,48.31,17.59" fill="url(#linear-gradient-2)" stroke-width="0"/>
  <path d="m650.16,433.78v25.48c0,12.35-4.22,21.23-9.3,27.45-39.28,8.7-90.31,11.55-125.4,11.55s-86.13-2.85-125.4-11.55c-5.08-6.22-9.29-15.1-9.29-27.45v-25.48h269.4Z" fill="url(#radial-gradient)" stroke-width="0"/>
  <path d="m640.86,486.72c-7.71,9.46-17.43,12.78-17.43,12.78l-44.66,20.42v32.21c-4.29-5.99-9.41-12.47-15-17.98-15.09-14.85-37.41-17.59-48.31-17.59s-33.21,2.74-48.3,17.59c-5.6,5.5-10.71,11.99-15,17.97v-32.2l-44.66-20.42s-9.72-3.32-17.44-12.78c39.26,8.7,90.31,11.55,125.4,11.55s86.12-2.85,125.4-11.55h0Z" fill="url(#radial-gradient-2)" stroke-width="0"/>
  <path d="m491.26,359.24s18.74-60.8,50.74-99.19c32-38.4,53.03-60.34,53.03-60.34,0,0,.91,24.68-36.11,77.71s-67.65,81.82-67.65,81.82" fill="url(#linear-gradient-3)" stroke-width="0"/>
  <path d="m510.22,339.32s44.76,32.21,45.07,31.29,55.77-71.61,72.53-107.27,10.97-41.14-4.27-39.01-31.41-4.33-39.93,11.72-16.43,28.16-24.71,41.36-48.7,61.9-48.7,61.9h0Z" fill="url(#linear-gradient-4)" stroke-width="0"/>
  <path d="m455.18,230.01c33.52-28.95,91.08-54.2,91.08-54.2l39.77,33.59-44.03,50.66s-12.98,15.64-21.41,31.68c-2.64,5.02-8.2,15.41-12.92,25.52-4.09,8.75-7.58,17.71-7.58,17.71l-22.39-7.99-46.32-36.57-10.36-20.81,34.17-39.57h0Z" fill="url(#linear-gradient-5)" stroke-width="0"/>
  <path d="m472.34,433.78c-7.01-15.55-32.61-32.01-10.82-48.01,21.79-16,61.15-53.99,41.45,10.36-4.57,14.93-4.57,37.64-4.57,37.64h-26.06Z" fill="url(#linear-gradient-6)" stroke-width="0"/>
  <path d="m521.25,433.78c-3.12-17.23-2.51-30.03,6.93-35.36,23.54-13.29,25.29-.61,22.55,13.41-2.38,12.14-3.43,21.95-3.43,21.95h-26.06Z" fill="url(#linear-gradient-7)" stroke-width="0"/>
  <path d="m562.9,37.11s-40.54,45.71-45.72,64.3-2.15,42.06-25.91,69.18-80.75,64-80.75,64l-5.48,38.7,15.98-3.71,34.13-39.53s23.92-19.2,44.35-30.34c20.44-11.14,32.31-19.68,41.45-34.3s14.93-49.37,14.93-49.37c0,0-16.46,38.7-39.31,48.45s.91-12.8,10.97-28.34-3.35-39.31,13.1-57.29,22.26-41.75,22.26-41.75" fill="url(#linear-gradient-8)" stroke-width="0"/>
  <path d="m360.31,308.79c13.26-26.28,50.21-74.21,50.21-74.21,0,0,26.93-17.88,40.81-28.8s38.25-29.7,46.08-42.93,15.57-23.61,17.86-52.69-2.29-35.49-2.29-35.49c0,0-6.25,38.24-23.16,67.73s-94.17,87.54-94.17,87.54c0,0-34.74,39.35-51.42,49.54-16.68,10.19,16.08,29.31,16.08,29.31h0Z" fill="url(#linear-gradient-9)" stroke-width="0"/>
  <path d="m410.06,196.87c46.93-36.87,61.56-64.3,69.18-94.78s27.19,0,27.19,0c0,0-9.45,36.38-27.52,54.86-7.13,7.29-19.73,20.54-34.63,33.49-22.86,19.87-48.61,39.49-48.61,39.49l-26.22,27.8-18.2-6.93,30.17-33.52,28.65-20.42Z" fill="url(#linear-gradient-10)" stroke-width="0"/>
  <path d="m555.29,370.61l-7.79,19.92s40.84,6.31,42.97,6.35,57.6-57.86,65.52-88.63,16.15-60.95,16.15-60.95l-24.08-21.03-23.38,43.3-24.41,39.21-30.53,42.43-14.46,19.39h0Z" fill="url(#linear-gradient-11)" stroke-width="0"/>
  <path d="m604.49,383.12s29.27-32.38,38.31-48.17,18.15-39.54,22.35-61.67,15.48-28.84,15.48-28.84c0,0,14.02,19.5,0,60.64s-51.2,83.5-51.2,83.5c0,0-33.77,20.11-34.4,18.89s9.46-24.37,9.46-24.37h0Z" fill="url(#linear-gradient-12)" stroke-width="0"/>
</svg>